<svg width="15" height="16" viewBox="0 0 15 16" fill="none" xmlns="http://www.w3.org/2000/svg">
<path d="M3.8125 3.39375C4.31875 3.39375 4.73125 2.98125 4.73125 2.46875V1.54375C4.73125 1.0375 4.31875 0.625 3.8125 0.625C3.30625 0.625 2.89375 1.0375 2.89375 1.54375V2.4625C2.89375 2.975 3.30625 3.39375 3.8125 3.39375ZM11.1875 3.39375C11.7 3.39375 12.1125 2.98125 12.1125 2.46875V1.54375C12.1125 1.0375 11.7 0.625 11.1875 0.625C10.675 0.625 10.2688 1.0375 10.2688 1.54375V2.4625C10.2625 2.975 10.675 3.39375 11.1875 3.39375ZM13.0312 1.54375V2.4625C13.0312 3.48125 12.2063 4.30625 11.1875 4.30625C10.1687 4.30625 9.34375 3.48125 9.34375 2.4625V1.54375H5.65625V2.4625C5.65625 3.4875 4.83125 4.3125 3.8125 4.3125C2.79375 4.3125 1.96875 3.4875 1.96875 2.46875V1.54375C0.95 1.54375 0.125 2.375 0.125 3.39375V13.5312C0.125 14.55 0.95 15.375 1.96875 15.375H13.0312C14.05 15.375 14.875 14.55 14.875 13.5312V3.39375C14.875 2.375 14.05 1.54375 13.0312 1.54375ZM13.0312 12.6125C13.0312 13.125 12.6188 13.5312 12.1125 13.5312H2.89375C2.3875 13.5312 1.96875 13.1188 1.96875 12.6125V7.08125C1.96875 6.575 2.38125 6.1625 2.89375 6.1625H12.1125C12.625 6.1625 13.0312 6.575 13.0312 7.08125V12.6125ZM9.79375 7.75625C10.1438 8.10625 10.1438 8.675 9.79375 9.03125L6.48125 12.3438C6.13125 12.6938 5.5625 12.6938 5.20625 12.3438C4.85625 11.9937 4.85625 11.425 5.20625 11.0688L8.51875 7.75625C8.86875 7.40625 9.4375 7.40625 9.79375 7.75625ZM5.20625 7.75625C5.55625 7.40625 6.125 7.40625 6.48125 7.75625L9.79375 11.0688C10.1438 11.4188 10.1438 11.9875 9.79375 12.3438C9.44375 12.6938 8.875 12.6938 8.51875 12.3438L5.20625 9.03125C4.85625 8.675 4.85625 8.10625 5.20625 7.75625Z" fill="#565656"/>
</svg>
