<svg width="16" height="16" viewBox="0 0 16 16" fill="none" xmlns="http://www.w3.org/2000/svg">
<path d="M10.1937 7.99992L15.5457 2.64805C16.1515 2.04224 16.1515 1.06019 15.5457 0.454386C14.94 -0.151421 13.9578 -0.151297 13.352 0.454386L8.00008 5.80638L2.64802 0.454262C2.04222 -0.151421 1.06018 -0.151421 0.454381 0.454262C-0.151295 1.06007 -0.151295 2.04212 0.454381 2.64792L5.80632 7.99992L0.454257 13.352C-0.151419 13.9579 -0.151419 14.9399 0.454257 15.5458C0.757157 15.8486 1.15412 16 1.55107 16C1.94803 16 2.34499 15.8485 2.64789 15.5458L7.99995 10.1936L13.352 15.5458C13.6549 15.8485 14.0519 16 14.4488 16C14.8458 16 15.2428 15.8485 15.5457 15.5458C16.1515 14.9399 16.1515 13.9579 15.5457 13.352L10.1937 7.99992Z" fill="#D92D20" fill-opacity="0.8"/>
</svg>
