<svg width="16" height="20" viewBox="0 0 16 20" fill="none" xmlns="http://www.w3.org/2000/svg">
<path d="M15.58 2.54946C15.8207 2.49652 16 2.29483 16 2.05354V0.509944C16 0.22837 15.7559 0 15.4549 0H0.545102C0.244115 0 0 0.22837 0 0.509944V2.05363C0 2.29492 0.179338 2.4966 0.420001 2.54955C0.584621 5.29594 2.10927 7.81285 4.57022 9.35526L5.59901 10L4.57022 10.6447C2.10918 12.1871 0.584531 14.7041 0.420001 17.4505C0.179338 17.5034 0 17.7051 0 17.9464V19.4901C0 19.7716 0.244115 20 0.545102 20H15.4549C15.7559 20 16 19.7716 16 19.4901V17.9464C16 17.7051 15.8207 17.5034 15.58 17.4505C15.4154 14.7041 13.8907 12.1872 11.4297 10.6447L10.4009 10L11.4297 9.35526C13.8907 7.81285 15.4154 5.29585 15.58 2.54946ZM1.0902 1.01989H14.9098V1.54369H1.0902V1.01989ZM14.9098 18.98H1.0902V18.4562H14.9098V18.98ZM9.11819 9.57632C8.9671 9.671 8.87643 9.82985 8.87643 10C8.87643 10.1702 8.9671 10.329 9.11819 10.4237L10.823 11.4921C12.977 12.842 14.3198 15.0366 14.4873 17.4364H1.51275C1.68018 15.0367 3.02295 12.8421 5.17701 11.4921L6.88181 10.4237C7.0329 10.329 7.12357 10.1702 7.12357 10C7.12357 9.82985 7.0329 9.671 6.88181 9.57632L5.17701 8.5079C3.02295 7.15791 1.68018 4.96328 1.51275 2.56357H14.4873C14.3198 4.96337 12.977 7.15791 10.823 8.5079L9.11819 9.57632Z" fill="#0D47A1"/>
<path d="M9.42151 7.02539H6.57835C6.35241 7.02539 6.14981 7.15585 6.06914 7.35328C5.98846 7.5508 6.04643 7.77441 6.21486 7.91533L7.6364 9.1052C7.73987 9.1918 7.86988 9.23506 7.9998 9.23506C8.12971 9.23506 8.25981 9.1918 8.3632 9.1052L9.78473 7.91533C9.95317 7.77433 10.0111 7.55072 9.93046 7.35328C9.85005 7.15585 9.64746 7.02539 9.42151 7.02539Z" fill="#0D47A1"/>
<path d="M7.97759 11.9473L6.59503 12.7781C5.38617 13.5357 4.66064 14.8073 4.66064 16.1685H11.6117C11.6117 14.8073 10.8862 13.5357 9.6773 12.7781L8.29474 11.9473C8.19717 11.8926 8.07525 11.8926 7.97759 11.9473Z" fill="#0D47A1"/>
</svg>
