<svg width="25" height="25" viewBox="0 0 30 30" fill="none" xmlns="http://www.w3.org/2000/svg">
        <path d="M22.6031 6.2734C22.6225 6.28832 22.642 6.30324 22.6621 6.31861C22.786 6.41606 22.9016 6.52152 23.0166 6.62924C23.0646 6.67368 23.1132 6.7163 23.1632 6.75836C23.3847 6.95257 23.5686 7.18706 23.745 7.42213C23.7601 7.44218 23.7601 7.44218 23.7755 7.46264C23.9128 7.6451 24.0402 7.83081 24.1543 8.02902C24.1668 8.05041 24.1668 8.05041 24.1795 8.07224C24.7146 8.9969 24.9992 10.0394 25 11.1095C25 11.1368 25 11.1368 25 11.1646C24.9996 11.4744 24.9826 11.7764 24.9299 12.0821C24.9246 12.1138 24.9246 12.1138 24.9191 12.1461C24.7312 13.2168 24.2607 14.3129 23.5114 15.11C23.4712 15.1531 23.4328 15.197 23.3944 15.2417C23.194 15.4729 22.9742 15.6882 22.7323 15.8751C22.7056 15.8966 22.679 15.918 22.6523 15.9395C21.6629 16.729 20.4363 17.1774 19.1774 17.2406C19.1605 17.2415 19.1435 17.2423 19.1261 17.2432C18.6408 17.2641 18.1553 17.1842 17.6831 17.0786C17.6643 17.0748 17.6455 17.0711 17.6261 17.0672C17.6029 17.0607 17.5796 17.0542 17.5556 17.0475C17.4718 17.0369 17.4718 17.0369 17.4084 17.0977C17.385 17.1234 17.3621 17.1497 17.3396 17.1762C17.3268 17.1905 17.314 17.2049 17.3008 17.2196C17.2727 17.2511 17.2448 17.2828 17.2171 17.3146C17.1562 17.3847 17.0943 17.4538 17.0324 17.5231C16.999 17.5605 16.9657 17.5979 16.9324 17.6354C16.8089 17.7744 16.6835 17.9116 16.5569 18.0478C16.5385 18.0676 16.52 18.0875 16.5009 18.108C16.4245 18.1901 16.348 18.2722 16.2714 18.3542C16.2124 18.4174 16.1535 18.4807 16.0946 18.5441C16.0848 18.5546 16.0751 18.5651 16.065 18.5759C15.9189 18.7333 15.7764 18.8934 15.6354 19.0554C15.4166 19.3059 15.1927 19.5506 14.9599 19.7879C14.9316 19.8168 14.9316 19.8168 14.9028 19.8462C14.4466 20.3063 14.0311 20.6155 13.3727 20.6666C13.3493 20.6684 13.3258 20.6702 13.3017 20.6721C12.788 20.7042 12.2736 20.6129 11.7659 20.5568C11.7659 21.2935 11.7659 22.0302 11.7659 22.7892C11.0335 22.7892 10.3012 22.7892 9.54671 22.7892C9.54671 23.5188 9.54671 24.2483 9.54671 25C8.08918 25 6.63165 25 5.12995 25C4.98553 23.753 4.98553 23.753 5.0165 23.3765C5.01863 23.3505 5.02076 23.3246 5.02295 23.2979C5.08832 22.6259 5.45177 22.1833 5.90558 21.7121C5.91563 21.7017 5.92567 21.6912 5.93602 21.6804C6.1929 21.4138 6.45937 21.1577 6.72993 20.9052C6.90949 20.7376 7.08616 20.5674 7.26064 20.3944C7.27236 20.3828 7.28407 20.3712 7.29613 20.3593C7.35564 20.3003 7.41511 20.2413 7.47455 20.1822C7.89187 19.7678 8.31403 19.3588 8.73953 18.9529C9.15179 18.5597 9.56177 18.1642 9.96888 17.7656C9.98151 17.7532 9.99413 17.7408 10.0071 17.7281C10.1591 17.5793 10.311 17.4304 10.4629 17.2814C10.6838 17.0647 10.9049 16.8481 11.126 16.6316C11.15 16.6081 11.1741 16.5846 11.1981 16.5611C11.538 16.2282 11.8794 15.897 12.2223 15.5673C12.2894 15.5028 12.3565 15.4382 12.4235 15.3737C12.4452 15.3527 12.467 15.3317 12.4888 15.3108C12.5209 15.2798 12.553 15.2489 12.5851 15.218C12.7178 15.0901 12.8508 14.9626 12.9842 14.8354C13.0584 14.7645 13.1323 14.6934 13.2061 14.6221C13.2401 14.5894 13.2742 14.5569 13.3085 14.5245C13.3548 14.4806 13.4006 14.4364 13.4464 14.3919C13.46 14.3793 13.4736 14.3666 13.4876 14.3536C13.5291 14.3144 13.5291 14.3144 13.5756 14.2495C13.5738 14.1699 13.5544 14.1097 13.5187 14.0394C12.8099 12.5828 12.6242 10.8158 13.1274 9.26725C13.3731 8.54955 13.7212 7.87998 14.2005 7.29209C14.2104 7.27989 14.2203 7.26769 14.2306 7.25512C14.4917 6.93718 14.7787 6.63212 15.1054 6.38177C15.1325 6.36012 15.1596 6.33845 15.1867 6.31675C15.557 6.02282 15.954 5.7896 16.3765 5.57982C16.3914 5.57237 16.4063 5.56492 16.4216 5.55724C16.9944 5.27483 17.6419 5.11389 18.2725 5.03796C18.2895 5.03589 18.3065 5.03381 18.324 5.03167C19.8481 4.86863 21.392 5.34285 22.6031 6.2734ZM19.3497 7.7906C19.0449 8.15014 18.905 8.57324 18.9357 9.04133C18.9682 9.38433 19.1191 9.72513 19.3497 9.9797C19.3652 9.99719 19.3806 10.0147 19.3965 10.0327C19.6938 10.3518 20.0989 10.5448 20.535 10.5671C20.9481 10.5734 21.3496 10.4067 21.6551 10.1314C21.6824 10.107 21.6824 10.107 21.7103 10.0821C22.0218 9.78733 22.2088 9.37188 22.224 8.94212C22.2299 8.49667 22.0801 8.09477 21.7799 7.76545C21.6939 7.67749 21.6049 7.60091 21.5043 7.53051C21.4875 7.51877 21.4708 7.50704 21.4535 7.49495C20.7738 7.05324 19.8968 7.2188 19.3497 7.7906Z" fill="black" />
      </svg>