<svg width="25" height="25" viewBox="0 0 30 30" fill="none" xmlns="http://www.w3.org/2000/svg">
        <path d="M14.7407 17.165C15.9803 17.2522 17.0106 17.0904 18.2281 16.875C19.4531 17.1774 19.9567 17.3529 20.6253 18.4219C20.7114 18.6539 20.7976 18.8859 20.8863 19.125C20.3177 19.6011 19.7491 20.0771 19.1804 20.5532C18.2946 21.8246 18.1187 23.248 17.8484 24.75C16.1553 24.7717 14.4624 24.7851 12.7692 24.7969C12.2866 24.8032 11.8039 24.8094 11.3066 24.8159C10.8465 24.8183 10.3863 24.8208 9.91224 24.8232C9.48667 24.8272 9.06109 24.8311 8.62262 24.8351C7.59519 24.75 7.59519 24.75 6.8357 24C6.54985 22.1751 6.65501 20.6425 7.42905 18.9609C9.69509 16.6085 11.6352 16.7895 14.7407 17.165Z" fill="black" />
        <path d="M16.3293 7.49977C17.5112 8.14086 18.375 8.91516 18.9875 10.1248C19.1385 11.9145 19.1677 12.7816 18.3229 14.3904C17.1068 15.7915 16.5175 16.0624 14.6679 16.2654C13.0366 16.0987 12.2744 15.6388 11.0128 14.6248C9.93236 13.0243 9.92924 11.6263 10.2533 9.74977C11.489 7.30456 13.7876 6.94245 16.3293 7.49977Z" fill="black" />
        <path d="M24.304 17.25C24.955 17.9847 25.5891 18.7346 26.2027 19.5C25.6023 20.9021 24.7228 21.8726 23.6632 22.9688C23.3484 23.3033 23.0336 23.6378 22.7093 23.9824C21.3841 24.9389 20.5926 24.8985 18.9875 24.75C18.7215 22.1791 18.7215 22.1791 19.4025 21.0806C19.9784 20.4499 20.5785 19.8795 21.2185 19.3125C21.4295 19.1114 21.6405 18.9103 21.8579 18.7031C23.4157 17.25 23.4157 17.25 24.304 17.25Z" fill="black" />
        <path d="M25.8228 15C26.8719 15.109 27.5645 15.2665 28.4336 15.8672C28.8608 16.5 28.8608 16.5 28.8371 17.25C28.3905 18.1907 27.8359 18.5683 26.9621 19.125C26.2102 18.3825 25.4583 17.64 24.6836 16.875C25.3956 15.4219 25.3956 15.4219 25.8228 15Z" fill="black" />
      </svg>