<svg width="25" height="25 flex-shrink-0 " viewBox="0 0 30 30" fill="none" xmlns="http://www.w3.org/2000/svg">
        <path d="M8.37896 11.0197H12.6046C12.9547 11.0197 13.2384 10.7362 13.2384 10.3863C13.2384 10.0364 12.9547 9.75293 12.6046 9.75293H8.37896C8.02882 9.75293 7.74512 10.0364 7.74512 10.3863C7.74512 10.7362 8.02882 11.0197 8.37896 11.0197Z" fill="black" />
        <path d="M8.37896 13.9987H17.6187C17.9689 13.9987 18.2526 13.7152 18.2526 13.3653C18.2526 13.0155 17.9689 12.7319 17.6187 12.7319H8.37896C8.02882 12.7319 7.74512 13.0155 7.74512 13.3653C7.74512 13.7151 8.02882 13.9987 8.37896 13.9987Z" fill="black" />
        <path d="M21.7359 17.0874L20.0901 18.9999C20.0736 19.0192 20.0542 19.0241 20.0409 19.0249C20.028 19.0254 20.0077 19.0232 19.989 19.0059L18.8474 17.969C18.6745 17.812 18.4074 17.8249 18.2505 17.9974C18.0935 18.1699 18.1063 18.437 18.2789 18.5939L19.4204 19.6308C19.5912 19.786 19.8077 19.8696 20.0354 19.8696C20.0545 19.8696 20.0736 19.869 20.0927 19.8679C20.3413 19.8526 20.568 19.7399 20.731 19.5505L22.3768 17.638C22.529 17.4612 22.5089 17.1947 22.3319 17.0426C22.1549 16.8905 21.8882 16.9105 21.7359 17.0874Z" fill="black" />
        <path d="M25 18.4794C25 16.1099 23.2309 14.1467 20.9436 13.8363V10.8585C20.9436 10.2268 20.6053 9.41465 20.1567 8.9695L16.9409 5.77892C16.4933 5.33486 15.6801 5 15.0494 5H6.47896C5.6635 5 5 5.66305 5 6.47794V23.5221C5 24.337 5.6635 25 6.47896 25H19.4646C20.2801 25 20.9436 24.337 20.9436 23.5221V23.1225C23.2309 22.8121 25 20.8489 25 18.4794ZM19.147 9.75289H16.5759C16.4613 9.75289 16.3646 9.65619 16.3646 9.54175V6.99226L19.147 9.75289ZM19.4646 23.7332H6.47896C6.36436 23.7332 6.26768 23.6365 6.26768 23.5221V6.47794C6.26768 6.36351 6.36436 6.26681 6.47896 6.26681H15.0494C15.0647 6.26681 15.0808 6.26765 15.097 6.26858V9.54175C15.097 10.3566 15.7605 11.0197 16.5759 11.0197H19.676V13.8364C18.3864 14.0114 17.262 14.7114 16.5262 15.7142C16.5055 15.7122 16.4847 15.711 16.4635 15.711H8.37879C8.02865 15.711 7.74495 15.9945 7.74495 16.3444C7.74495 16.6943 8.02865 16.9778 8.37879 16.9778H15.8679C15.7077 17.4496 15.6196 17.9543 15.6196 18.4794C15.6196 19.156 15.765 19.7988 16.0242 20.3803H13.393C13.0428 20.3803 12.7591 20.6638 12.7591 21.0137C12.7591 21.3636 13.0428 21.6471 13.393 21.6471H16.4634C16.5791 21.6471 16.6872 21.6156 16.7807 21.5615C17.5095 22.3938 18.5269 22.9665 19.6759 23.1224V23.522C19.6759 23.6366 19.5792 23.7332 19.4646 23.7332ZM20.3098 21.8996C18.4226 21.8996 16.8873 20.3654 16.8873 18.4794C16.8873 16.5935 18.4226 15.0592 20.3098 15.0592C22.197 15.0592 23.7323 16.5935 23.7323 18.4794C23.7323 20.3654 22.197 21.8996 20.3098 21.8996Z" fill="black" />
      </svg>