<svg width="25" height="25" viewBox="0 0 30 30" fill="none" xmlns="http://www.w3.org/2000/svg">
        <path d="M7.89225 5.02497C7.93293 5.02475 7.97361 5.02453 8.01553 5.0243C8.06077 5.02425 8.10602 5.02421 8.15263 5.02416C8.20027 5.02396 8.24791 5.02376 8.29699 5.02356C8.42984 5.02305 8.56268 5.02272 8.69553 5.02247C8.80933 5.02222 8.92313 5.02182 9.03693 5.02143C9.41204 5.02012 9.78715 5.01929 10.1623 5.01857C10.2599 5.01838 10.3576 5.01819 10.4553 5.01799C11.0616 5.01678 11.6679 5.01574 12.2742 5.01508C12.4148 5.01493 12.5553 5.01477 12.6958 5.01461C12.7308 5.01457 12.7657 5.01454 12.8017 5.01449C13.3673 5.01383 13.9329 5.01223 14.4984 5.01024C15.0789 5.00822 15.6594 5.00708 16.2399 5.00679C16.5659 5.00661 16.8919 5.00604 17.2179 5.00446C17.4956 5.00312 17.7733 5.00258 18.0511 5.00307C18.1927 5.0033 18.3344 5.00315 18.476 5.00197C18.6298 5.0007 18.7835 5.00126 18.9373 5.00199C19.0041 5.001 19.0041 5.001 19.0722 5C19.3667 5.00348 19.5542 5.06779 19.7757 5.26481C19.9741 5.47918 20.0349 5.69632 20.0614 5.98258C20.0452 6.1696 19.9919 6.3376 19.932 6.51481C19.9062 6.51481 19.8804 6.51481 19.8538 6.51481C19.8393 6.56194 19.8393 6.56194 19.8246 6.61003C19.7757 6.71012 19.7757 6.71012 19.6927 6.74186C19.6685 6.74428 19.6444 6.7467 19.6195 6.74919C19.6195 6.77497 19.6195 6.80075 19.6195 6.82731C19.3571 6.94581 19.137 6.96092 18.8512 6.95859C18.7833 6.95874 18.7833 6.95874 18.7141 6.95889C18.5892 6.95905 18.4643 6.95869 18.3394 6.9581C18.2045 6.95759 18.0695 6.95776 17.9346 6.95785C17.701 6.95792 17.4674 6.95755 17.2339 6.95689C16.8962 6.95593 16.5585 6.95563 16.2208 6.95548C15.6729 6.95523 15.1249 6.95445 14.577 6.95334C14.0449 6.95226 13.5127 6.95143 12.9806 6.95094C12.9477 6.9509 12.9149 6.95087 12.8811 6.95084C12.7164 6.95069 12.5518 6.95054 12.3871 6.9504C11.0219 6.94918 9.6566 6.94712 8.29135 6.9445C8.29135 6.97028 8.29135 6.99606 8.29135 7.02262C8.26214 7.02781 8.23294 7.033 8.20285 7.03834C8.16438 7.04524 8.12591 7.05214 8.08627 7.05924C8.0482 7.06604 8.01013 7.07284 7.97091 7.07984C7.8813 7.09699 7.79358 7.11651 7.70541 7.13981C7.70541 7.16559 7.70541 7.19137 7.70541 7.21794C7.53414 7.33512 7.53414 7.33512 7.43197 7.33512C7.41908 7.3738 7.40619 7.41247 7.39291 7.45231C7.35385 7.49137 7.31478 7.53044 7.27572 7.5695C7.22979 7.65153 7.22979 7.65153 7.1976 7.72575C7.17182 7.72575 7.14603 7.72575 7.11947 7.72575C7.11147 7.76759 7.10346 7.80944 7.09521 7.85255C7.08459 7.90713 7.07396 7.9617 7.06332 8.01628C7.05806 8.04389 7.0528 8.07151 7.04737 8.09997C7.00671 8.30726 7.00671 8.30726 6.96322 8.35075C6.95938 8.42177 6.95832 8.49295 6.95831 8.56408C6.95815 8.63397 6.95815 8.63397 6.958 8.70526C6.95808 8.75763 6.95817 8.80999 6.95826 8.86236C6.95822 8.91747 6.95815 8.97258 6.95808 9.02769C6.95791 9.17984 6.958 9.332 6.95812 9.48415C6.9582 9.64796 6.95807 9.81178 6.95796 9.97559C6.95779 10.2968 6.95782 10.618 6.95794 10.9392C6.95803 11.2001 6.95804 11.461 6.95799 11.7219C6.95799 11.7775 6.95799 11.7775 6.95798 11.8342C6.95796 11.9095 6.95795 11.9848 6.95794 12.0601C6.95783 12.7668 6.95796 13.4735 6.95817 14.1803C6.95834 14.7874 6.95831 15.3945 6.95813 16.0016C6.95792 16.7057 6.95784 17.4098 6.95796 18.1139C6.95797 18.1889 6.95798 18.2639 6.95799 18.3389C6.958 18.3759 6.95801 18.4128 6.95801 18.4508C6.95805 18.7116 6.95799 18.9723 6.9579 19.2331C6.95779 19.5506 6.95782 19.8682 6.95803 20.1858C6.95813 20.3479 6.95817 20.5101 6.95804 20.6723C6.95792 20.8205 6.95799 20.9688 6.9582 21.117C6.95824 21.1708 6.95822 21.2247 6.95812 21.2786C6.958 21.3513 6.95815 21.424 6.95831 21.4968C6.95831 21.5373 6.95832 21.5779 6.95833 21.6197C6.95304 21.7086 6.95304 21.7086 7.00228 21.7492C7.01685 21.818 7.02958 21.8873 7.04135 21.9567C7.06316 22.0844 7.08617 22.2099 7.11947 22.3351C7.14525 22.3351 7.17103 22.3351 7.1976 22.3351C7.31478 22.5064 7.31478 22.5064 7.31478 22.6086C7.35346 22.6215 7.39213 22.6343 7.43197 22.6476C7.43197 22.6734 7.43197 22.6992 7.43197 22.7257C7.4779 22.7439 7.47789 22.7439 7.52475 22.7624C7.62728 22.8039 7.62728 22.8039 7.70541 22.8429C7.70541 22.8687 7.70541 22.8945 7.70541 22.9211C7.99545 22.9791 7.99545 22.9791 8.29135 23.0382C8.29135 23.064 8.29135 23.0898 8.29135 23.1164C8.32628 23.1163 8.32628 23.1163 8.36192 23.1162C9.74204 23.1136 11.1222 23.1116 12.5023 23.1104C12.668 23.1102 12.8337 23.1101 12.9994 23.1099C13.0324 23.1099 13.0654 23.1099 13.0994 23.1098C13.6336 23.1093 14.1677 23.1084 14.7019 23.1073C15.25 23.1062 15.7981 23.1056 16.3462 23.1053C16.6845 23.1052 17.0227 23.1047 17.3609 23.1037C17.5928 23.1031 17.8247 23.1029 18.0566 23.1031C18.1905 23.1031 18.3243 23.103 18.4581 23.1024C18.6032 23.1018 18.7483 23.102 18.8935 23.1023C18.9357 23.1019 18.9779 23.1016 19.0214 23.1012C19.3419 23.1032 19.5765 23.1585 19.8148 23.3898C19.8465 23.4777 19.8465 23.4777 19.8538 23.5461C19.8796 23.5461 19.9054 23.5461 19.932 23.5461C20.0652 23.9403 20.0652 24.2065 19.932 24.6007C19.9062 24.6007 19.8804 24.6007 19.8538 24.6007C19.8406 24.6443 19.8406 24.6443 19.827 24.6886C19.744 24.8625 19.5988 24.9574 19.4242 25.0304C19.3301 25.0402 19.3301 25.0402 19.2232 25.0403C19.1619 25.0406 19.1619 25.0406 19.0994 25.0409C19.0321 25.0406 19.0321 25.0406 18.9635 25.0404C18.9159 25.0405 18.8682 25.0406 18.8191 25.0407C18.6867 25.041 18.5544 25.0409 18.422 25.0406C18.2793 25.0405 18.1366 25.0407 17.9938 25.041C17.7142 25.0413 17.4345 25.0412 17.1549 25.041C16.9276 25.0408 16.7003 25.0408 16.4731 25.0409C16.4407 25.0409 16.4084 25.0409 16.3751 25.0409C16.3094 25.041 16.2438 25.041 16.1781 25.041C15.562 25.0412 14.9459 25.041 14.3298 25.0406C13.8011 25.0402 13.2724 25.0403 12.7437 25.0406C12.1299 25.041 11.5162 25.0412 10.9024 25.041C10.8369 25.0409 10.7715 25.0409 10.706 25.0409C10.6738 25.0409 10.6416 25.0409 10.6084 25.0409C10.3815 25.0408 10.1545 25.0409 9.92751 25.0411C9.65085 25.0413 9.37419 25.0412 9.09753 25.0408C8.95636 25.0406 8.8152 25.0405 8.67403 25.0408C8.52102 25.0411 8.36802 25.0407 8.21501 25.0404C8.17036 25.0405 8.1257 25.0407 8.07969 25.0409C7.87396 25.0399 7.70239 25.0345 7.5101 24.9523C7.44909 24.9359 7.38805 24.9197 7.32699 24.9035C6.69531 24.7147 6.05941 24.2343 5.67416 23.7023C5.67416 23.6765 5.67416 23.6507 5.67416 23.6242C5.63549 23.6113 5.59682 23.5984 5.55697 23.5851C5.47915 23.479 5.42225 23.36 5.36166 23.2433C5.34411 23.2099 5.32657 23.1765 5.30849 23.1421C5.18798 22.9048 5.11025 22.6869 5.06488 22.4239C5.05818 22.3367 5.05818 22.3367 5.0101 22.2961C5.00621 22.2191 5.00512 22.142 5.00507 22.065C5.00495 22.0144 5.00482 21.9639 5.00469 21.9118C5.00475 21.8549 5.00481 21.7981 5.00487 21.7413C5.0048 21.6815 5.00471 21.6217 5.00461 21.5619C5.00437 21.3967 5.00437 21.2316 5.00442 21.0664C5.00443 20.8886 5.00421 20.7109 5.00403 20.5331C5.0037 20.1844 5.00359 19.8357 5.00357 19.487C5.00355 19.2037 5.00347 18.9203 5.00335 18.637C5.003 17.8343 5.00282 17.0316 5.00285 16.2288C5.00286 16.1855 5.00286 16.1422 5.00286 16.0976C5.00286 16.0542 5.00286 16.0108 5.00286 15.9661C5.00288 15.2633 5.00251 14.5605 5.00195 13.8577C5.00139 13.1367 5.00112 12.4157 5.00116 11.6947C5.00117 11.2896 5.00106 10.8846 5.00064 10.4795C5.00029 10.1346 5.0002 9.78967 5.00047 9.44475C5.0006 9.26869 5.0006 9.09264 5.00026 8.91659C4.99995 8.75546 5.00001 8.59433 5.00035 8.4332C5.00041 8.37487 5.00034 8.31653 5.00012 8.2582C4.99984 8.17896 5.0001 8.09972 5.00038 8.02048C5.00037 7.97645 5.00036 7.93242 5.00035 7.88705C5.01074 7.75674 5.04262 7.65251 5.08822 7.53044C5.10995 7.4541 5.13113 7.3776 5.1517 7.30094C5.16187 7.26318 5.17204 7.22541 5.18252 7.1865C5.19007 7.1582 5.19763 7.1299 5.20541 7.10075C5.23119 7.10075 5.25697 7.10075 5.28353 7.10075C5.29282 7.06812 5.29282 7.06812 5.3023 7.03483C5.36867 6.81775 5.44999 6.61358 5.59603 6.43669C5.62182 6.43669 5.6476 6.43669 5.67416 6.43669C5.68196 6.40985 5.68977 6.38301 5.69781 6.35536C5.7717 6.20074 5.87743 6.09915 5.99887 5.98014C6.0211 5.95746 6.04333 5.93477 6.06623 5.9114C6.18778 5.79069 6.28686 5.70445 6.45541 5.65544C6.45541 5.62965 6.45541 5.60387 6.45541 5.57731C6.64438 5.43651 6.84067 5.31649 7.08041 5.30387C7.08041 5.27809 7.08041 5.25231 7.08041 5.22575C7.12225 5.21492 7.1641 5.2041 7.20721 5.19294C7.26179 5.17866 7.31636 5.16436 7.37094 5.15006C7.39856 5.14294 7.42618 5.13581 7.45463 5.12847C7.84739 5.02512 7.84739 5.02512 7.89225 5.02497Z" fill="#131313" />
        <path d="M20.2441 10.1086C20.2441 10.1343 20.2441 10.1601 20.2441 10.1867C20.2675 10.198 20.2909 10.2092 20.3149 10.2209C20.4004 10.2648 20.4004 10.2648 20.5176 10.3429C20.5176 10.3687 20.5176 10.3945 20.5176 10.4211C20.5399 10.4306 20.5623 10.4401 20.5853 10.4499C20.6896 10.508 20.7574 10.5766 20.8398 10.6628C21.0282 10.8555 21.2229 11.0372 21.438 11.1999C21.5244 11.273 21.5901 11.3454 21.6626 11.4318C21.7788 11.5682 21.9015 11.6702 22.047 11.7739C22.1464 11.8475 22.2294 11.933 22.3145 12.0226C22.4154 12.1261 22.5158 12.223 22.627 12.3156C22.9244 12.5635 22.9244 12.5635 22.9785 12.7257C23.0297 12.7535 23.082 12.7793 23.1348 12.8039C23.2001 12.8574 23.2001 12.8574 23.2645 12.9188C23.2884 12.9414 23.3124 12.964 23.337 12.9874C23.3621 13.0114 23.3872 13.0354 23.4131 13.0602C23.4655 13.1099 23.518 13.1595 23.5706 13.2091C23.6089 13.2455 23.6089 13.2455 23.6481 13.2825C23.7442 13.3728 23.842 13.4608 23.9404 13.5485C24.0666 13.6613 24.1886 13.7762 24.3066 13.8976C24.4108 14.0045 24.515 14.1048 24.6313 14.1979C24.666 14.2277 24.7006 14.2575 24.7363 14.2882C24.7363 14.314 24.7363 14.3398 24.7363 14.3664C24.775 14.3793 24.8137 14.3921 24.8535 14.4054C25.0013 14.6123 25.0378 14.7741 25.0342 15.0255C25.0339 15.0566 25.0336 15.0877 25.0333 15.1197C25.0235 15.3777 24.963 15.5496 24.7754 15.7336C24.7083 15.7957 24.6403 15.8544 24.5686 15.9112C24.5004 15.9693 24.448 16.0298 24.3921 16.0998C24.2682 16.2503 24.1208 16.3628 23.9674 16.4821C23.8637 16.5644 23.7728 16.6532 23.6816 16.7492C23.2547 17.1863 23.2547 17.1863 23.0566 17.3351C23.0309 17.3351 23.0051 17.3351 22.9785 17.3351C22.9695 17.3573 22.9605 17.3795 22.9512 17.4024C22.8875 17.514 22.8095 17.5807 22.7124 17.6647C22.5427 17.8137 22.3819 17.967 22.2266 18.131C22.1365 18.217 22.0476 18.2887 21.9482 18.3629C21.8276 18.4547 21.7278 18.5467 21.6309 18.6632C21.5095 18.8092 21.3745 18.9178 21.223 19.0313C21.1216 19.109 21.0353 19.1957 20.9473 19.2882C20.5203 19.7254 20.5203 19.7254 20.3223 19.8742C20.2965 19.8742 20.2707 19.8742 20.2441 19.8742C20.2441 19.9 20.2441 19.9257 20.2441 19.9523C19.8629 20.1187 19.5398 20.1019 19.1504 19.9523C18.9367 19.8178 18.8102 19.639 18.7207 19.4054C18.6777 19.1889 18.6703 18.9958 18.7207 18.7804C18.7465 18.7804 18.7723 18.7804 18.7988 18.7804C18.8 18.7321 18.8 18.7321 18.8013 18.6828C18.8925 18.3423 19.2522 18.0899 19.5239 17.8844C19.6103 17.8113 19.676 17.7389 19.7485 17.6525C19.8647 17.516 19.9874 17.4141 20.1329 17.3104C20.2324 17.2368 20.3154 17.1513 20.4004 17.0617C20.537 16.9215 20.6798 16.7963 20.8301 16.6711C20.896 16.6068 20.9611 16.5416 21.0254 16.4757C21.079 16.4211 21.1327 16.3666 21.1865 16.3122C21.2124 16.2858 21.2383 16.2595 21.265 16.2324C21.3379 16.1632 21.3379 16.1632 21.4551 16.0851C21.4138 16.085 21.3725 16.0849 21.3299 16.0848C20.3241 16.0825 19.3183 16.0796 18.3125 16.0759C17.8261 16.0742 17.3397 16.0726 16.8533 16.0716C16.4293 16.0707 16.0053 16.0694 15.5813 16.0676C15.3568 16.0667 15.1324 16.0659 14.9079 16.0657C14.6965 16.0654 14.4851 16.0647 14.2737 16.0635C14.1962 16.0631 14.1188 16.063 14.0414 16.063C13.0782 16.0636 13.0782 16.0636 12.699 15.6991C12.598 15.5831 12.556 15.4897 12.5098 15.3429C12.4945 15.3018 12.4792 15.2607 12.4634 15.2184C12.4316 15.1086 12.4316 15.1086 12.4316 14.9523C12.4574 14.9523 12.4832 14.9523 12.5098 14.9523C12.5108 14.9296 12.5118 14.907 12.5128 14.8836C12.5285 14.6681 12.5677 14.5401 12.7051 14.3664C12.7222 14.3406 12.7393 14.3148 12.7569 14.2883C12.9068 14.109 13.1482 14.0336 13.3749 14.0037C13.6142 13.9851 13.8538 13.9879 14.0937 13.989C14.1742 13.9887 14.2547 13.9883 14.3352 13.9878C14.5525 13.9867 14.7698 13.9868 14.9871 13.9871C15.2147 13.9872 15.4422 13.9863 15.6698 13.9854C16.1002 13.9839 16.5305 13.9835 16.9609 13.9833C17.4511 13.9832 17.9413 13.9819 18.4315 13.9805C19.4394 13.9777 20.4472 13.9763 21.4551 13.9757C21.3941 13.9203 21.3331 13.865 21.272 13.8097C21.238 13.7789 21.204 13.7481 21.169 13.7163C21.1007 13.6561 21.031 13.5974 20.9599 13.5406C20.8568 13.458 20.7672 13.366 20.6738 13.2726C20.6432 13.2493 20.6126 13.2259 20.5811 13.2018C20.4916 13.1273 20.4257 13.0562 20.3516 12.9674C20.2525 12.851 20.152 12.7583 20.0293 12.6671C19.8806 12.5566 19.769 12.437 19.651 12.295C19.5496 12.1848 19.4322 12.1013 19.3123 12.0122C19.2081 11.928 19.1268 11.8341 19.0445 11.7289C18.9894 11.6604 18.9894 11.6604 18.877 11.5929C18.8214 11.479 18.7988 11.4081 18.7988 11.2804C18.773 11.2804 18.7473 11.2804 18.7207 11.2804C18.6611 10.8278 18.6611 10.8278 18.7598 10.6164C18.7694 10.5915 18.779 10.5667 18.7889 10.5411C18.8835 10.3179 19.0158 10.1851 19.2285 10.0695C19.5488 9.94007 19.9325 9.9698 20.2441 10.1086Z" fill="#131313" />
      </svg>