<svg width="20" height="20" viewBox="0 0 30 29" fill="none" xmlns="http://www.w3.org/2000/svg">
        <path d="M28.8131 15.7915C29.0834 15.444 29.2147 14.9959 29.095 14.539L25.5458 1.08632C25.3399 0.308753 24.5404 -0.157224 23.7641 0.0487296L1.0852 6.02838C0.311517 6.23308 -0.155773 7.03511 0.0476146 7.81137L3.59682 21.2627C3.8002 22.039 4.60349 22.505 5.3798 22.3016L13.3934 20.1878V24.6922C13.3934 27.2115 17.5683 28.5298 21.6955 28.5298C25.8201 28.5298 30 27.2115 30 24.6923V17.8616C30 17.0415 29.5507 16.3515 28.8131 15.7915ZM26.2448 11.1546L26.6156 12.5552L22.1073 13.746L21.7392 12.3428L26.2448 11.1546ZM23.629 2.29256L24.3331 4.95994L17.2901 6.81883L16.5859 4.15146L23.629 2.29256ZM20.4686 12.6775L20.829 14.0472C19.162 14.1218 17.5399 14.4128 16.2371 14.9096L15.9616 13.8695L20.4686 12.6775ZM4.7734 18.316L4.40523 16.9179L8.91217 15.7258L9.2829 17.1316L4.7734 18.316ZM10.1828 15.3925L14.6872 14.2017L15.0283 15.4851C14.9189 15.5521 14.8159 15.6216 14.7155 15.6924L10.551 16.7918L10.1828 15.3925ZM28.4964 24.5814C28.4964 26.0503 25.4532 27.2398 21.6955 27.2398C17.9416 27.2398 14.8958 26.049 14.8958 24.5814V22.9272C14.8958 22.8719 14.9279 22.8217 14.9369 22.7689C15.1519 24.1618 18.0793 25.2663 21.6955 25.2663C25.3129 25.2663 28.2415 24.1618 28.4552 22.7689C28.4643 22.8217 28.4964 22.8719 28.4964 22.9272V24.5814ZM28.4964 21.327C28.4964 22.7946 25.4532 23.9841 21.6955 23.9841C17.9416 23.9841 14.8958 22.7946 14.8958 21.327V19.6728C14.8958 19.6188 14.9279 19.5673 14.9369 19.5145C15.1519 20.9061 18.0793 22.0132 21.6955 22.0132C25.3129 22.0132 28.2415 20.9061 28.4552 19.5145C28.4643 19.5673 28.4964 19.6188 28.4964 19.6728V21.327ZM21.6954 20.5173C17.9416 20.5173 14.8957 19.3278 14.8957 17.8615C14.8957 16.3953 17.9415 15.2058 21.6954 15.2058C25.4531 15.2058 28.4964 16.3953 28.4964 17.8615C28.4964 19.3278 25.4531 20.5173 21.6954 20.5173Z" fill="black" />
      </svg>