<svg width="30" height="44" viewBox="0 0 30 44" fill="none" xmlns="http://www.w3.org/2000/svg">
<path d="M0 9C9.9 9 19.8 9 30 9C30 20.55 30 32.1 30 44C20.1 44 10.2 44 0 44C0 32.45 0 20.9 0 9Z" fill="#FDFEFE"/>
<path d="M6.434 12.0805C6.93838 12.0832 7.44277 12.0858 7.96244 12.0885C8.77913 12.091 8.77913 12.091 9.61232 12.0935C10.1853 12.0977 10.7582 12.102 11.3485 12.1063C12.211 12.1097 12.211 12.1097 13.0909 12.1132C14.5167 12.1192 15.9425 12.1283 17.3683 12.1379C17.3683 14.8083 17.3683 17.4786 17.3683 20.2299C20.3209 20.2299 23.2735 20.2299 26.3157 20.2299C26.3398 22.8044 26.3608 25.3786 26.3735 27.9531C26.3788 28.8293 26.386 29.7055 26.3951 30.5817C26.4078 31.8395 26.4138 33.0973 26.4184 34.3552C26.4239 34.7483 26.4293 35.1413 26.4349 35.5463C26.4351 36.5105 26.38 37.4745 26.3157 38.4368C24.9412 39.7576 23.9794 39.5685 22.1079 39.5758C21.6776 39.5722 21.2472 39.5686 20.8037 39.5648C20.3625 39.5646 19.9214 39.5644 19.4668 39.5641C18.5337 39.5626 17.6007 39.5586 16.6676 39.5524C15.2341 39.5431 13.8008 39.542 12.3673 39.5421C11.4623 39.5396 10.5574 39.5367 9.65241 39.5332C9.00523 39.5324 9.00523 39.5324 8.34497 39.5315C5.3241 39.507 5.3241 39.507 4.7367 38.9425C4.6848 38.1226 4.66934 37.3005 4.6686 36.479C4.66694 35.9541 4.66528 35.4293 4.66357 34.8885C4.66464 34.3175 4.6657 33.7464 4.6668 33.158C4.66605 32.2853 4.66605 32.2853 4.66528 31.395C4.66492 30.162 4.66589 28.929 4.66809 27.6961C4.6709 25.8013 4.66812 23.9066 4.66475 22.0119C4.66509 20.8173 4.66577 19.6227 4.6668 18.4282C4.66574 17.8571 4.66467 17.286 4.66357 16.6977C4.66523 16.1728 4.66689 15.648 4.6686 15.1072C4.66902 14.6427 4.66944 14.1781 4.66987 13.6995C4.76315 12.226 4.89786 12.1558 6.434 12.0805Z" fill="#008A91"/>
<path d="M13.6841 22.2529C14.3788 22.4198 15.0735 22.5867 15.7893 22.7586C15.809 23.1061 15.8287 23.4536 15.8489 23.8116C15.9008 24.4952 15.9008 24.4952 15.9538 25.1925C15.9996 25.8702 15.9996 25.8702 16.0463 26.5616C16.3569 28.0081 16.6495 28.485 17.8946 29.3333C18.9688 29.6217 18.9688 29.6217 20.0985 29.681C21.0918 29.7593 21.0918 29.7593 22.1051 29.8391C22.4012 30.819 22.4012 30.819 22.6314 31.8621C22.4577 32.029 22.2841 32.1959 22.1051 32.3678C21.1929 32.2946 20.2828 32.1952 19.3748 32.0833C17.0099 31.8658 15.2997 31.7464 13.1577 32.8736C12.161 33.8339 11.37 34.811 10.5262 35.908C9.83142 35.7411 9.13669 35.5743 8.4209 35.4023C8.51958 34.5172 8.51958 34.5172 8.94721 33.3793C9.35971 33.0664 9.77221 32.7534 10.1972 32.431C12.284 30.8077 13.0182 29.3399 13.3695 26.7769C13.5043 25.269 13.6102 23.7647 13.6841 22.2529Z" fill="#E1F3F5"/>
<path d="M18.9473 12.1379C21.2692 12.6957 21.9057 13.2584 23.5525 14.8563C23.9732 15.2566 24.3938 15.6569 24.8272 16.0693C25.7894 17.1954 25.7894 17.1954 25.7894 18.7126C23.5315 18.7126 21.2736 18.7126 18.9473 18.7126C18.9473 16.543 18.9473 14.3733 18.9473 12.1379Z" fill="#008A91"/>
<path d="M13.1577 28.3218C13.5051 28.3218 13.8525 28.3218 14.2104 28.3218C14.0367 29.1563 13.863 29.9908 13.6841 30.8506C14.5525 30.8506 15.4209 30.8506 16.3156 30.8506C16.3156 31.1844 16.3156 31.5182 16.3156 31.8621C15.6155 32.0185 15.6155 32.0185 14.9012 32.1782C12.6721 33.0673 11.9446 34.064 10.5262 35.908C9.83142 35.7411 9.13669 35.5743 8.4209 35.4023C8.51958 34.5172 8.51958 34.5172 8.94721 33.3793C9.35971 33.0664 9.77221 32.7534 10.1972 32.431C11.7706 31.2071 12.3632 30.0898 13.1577 28.3218Z" fill="#E8F5F8"/>
<path d="M14.2103 28.8276C14.9051 29.1614 15.5998 29.4952 16.3156 29.8391C15.7946 30.3398 15.2735 30.8405 14.7367 31.3563C14.2156 31.1894 13.6946 31.0225 13.1577 30.8506C13.5051 30.183 13.8525 29.5154 14.2103 28.8276Z" fill="#008A91"/>
</svg>
