<svg width="28" height="28" viewBox="0 0 28 28" fill="none" xmlns="http://www.w3.org/2000/svg">
<path d="M7.08594 5.36328C8.03516 5.36328 8.80859 4.58984 8.80859 3.62891V1.89453C8.80859 0.945313 8.03516 0.171875 7.08594 0.171875C6.13672 0.171875 5.36328 0.945313 5.36328 1.89453V3.61719C5.36328 4.57812 6.13672 5.36328 7.08594 5.36328ZM20.9141 5.36328C21.875 5.36328 22.6484 4.58984 22.6484 3.62891V1.89453C22.6484 0.945313 21.875 0.171875 20.9141 0.171875C19.9531 0.171875 19.1914 0.945313 19.1914 1.89453V3.61719C19.1797 4.57812 19.9531 5.36328 20.9141 5.36328ZM24.3711 1.89453V3.61719C24.3711 5.52734 22.8242 7.07422 20.9141 7.07422C19.0039 7.07422 17.457 5.52734 17.457 3.61719V1.89453H10.543V3.61719C10.543 5.53906 8.99609 7.08594 7.08594 7.08594C5.17578 7.08594 3.62891 5.53906 3.62891 3.62891V1.89453C1.71875 1.89453 0.171875 3.45312 0.171875 5.36328V24.3711C0.171875 26.2812 1.71875 27.8281 3.62891 27.8281H24.3711C26.2812 27.8281 27.8281 26.2812 27.8281 24.3711V5.36328C27.8281 3.45312 26.2812 1.89453 24.3711 1.89453ZM24.3711 22.6484C24.3711 23.6094 23.5977 24.3711 22.6484 24.3711H5.36328C4.41406 24.3711 3.62891 23.5977 3.62891 22.6484V12.2773C3.62891 11.3281 4.40234 10.5547 5.36328 10.5547H22.6484C23.6094 10.5547 24.3711 11.3281 24.3711 12.2773V22.6484ZM18.3008 13.543C18.957 14.1992 18.957 15.2656 18.3008 15.9336L12.0898 22.1445C11.4336 22.8008 10.3672 22.8008 9.69922 22.1445C9.04297 21.4883 9.04297 20.4219 9.69922 19.7539L15.9102 13.543C16.5664 12.8867 17.6328 12.8867 18.3008 13.543ZM9.69922 13.543C10.3555 12.8867 11.4219 12.8867 12.0898 13.543L18.3008 19.7539C18.957 20.4102 18.957 21.4766 18.3008 22.1445C17.6445 22.8008 16.5781 22.8008 15.9102 22.1445L9.69922 15.9336C9.04297 15.2656 9.04297 14.1992 9.69922 13.543Z" fill="#565656"/>
</svg>
