<svg width="30" height="30" viewBox="0 0 30 30" fill="none" xmlns="http://www.w3.org/2000/svg">
<path d="M15 30C18.9782 30 22.7936 28.4196 25.6066 25.6066C28.4196 22.7936 30 18.9782 30 15C30 11.0218 28.4196 7.20644 25.6066 4.3934C22.7936 1.58035 18.9782 0 15 0C11.0218 0 7.20644 1.58035 4.3934 4.3934C1.58035 7.20644 0 11.0218 0 15C0 18.9782 1.58035 22.7936 4.3934 25.6066C7.20644 28.4196 11.0218 30 15 30ZM10.2539 10.2539C10.8047 9.70312 11.6953 9.70312 12.2402 10.2539L14.9941 13.0078L17.748 10.2539C18.2988 9.70312 19.1895 9.70312 19.7344 10.2539C20.2793 10.8047 20.2852 11.6953 19.7344 12.2402L16.9805 14.9941L19.7344 17.748C20.2852 18.2988 20.2852 19.1895 19.7344 19.7344C19.1836 20.2793 18.293 20.2852 17.748 19.7344L14.9941 16.9805L12.2402 19.7344C11.6895 20.2852 10.7988 20.2852 10.2539 19.7344C9.70898 19.1836 9.70312 18.293 10.2539 17.748L13.0078 14.9941L10.2539 12.2402C9.70312 11.6895 9.70312 10.7988 10.2539 10.2539Z" fill="#DC2626"/>
</svg>
