<svg width="40" height="40" viewBox="0 0 40 40" fill="none" xmlns="http://www.w3.org/2000/svg">
<path d="M15.3038 23.3079C15.109 23.0989 14.9284 22.8767 14.7633 22.6425C14.3628 22.0837 13.9916 21.4982 13.6269 20.9094L11.836 17.9653C11.1523 16.9341 10.7908 16.0159 10.7908 15.2774C10.7908 14.5389 11.1978 13.5742 12.0151 13.3646C11.901 11.6007 11.8771 9.83185 11.9435 8.06535C11.98 7.65494 12.0519 7.24863 12.1584 6.85114C12.6576 5.18144 13.7508 3.76324 15.2224 2.87585C15.742 2.54016 16.2982 2.26774 16.8798 2.06416C17.925 1.66496 17.4203 0.0415811 18.56 0.00166186C21.2756 -0.0715235 25.7235 2.28704 27.4362 4.19984C28.5396 5.44221 29.1664 7.05013 29.201 8.72735L29.0936 13.5476C29.3297 13.6078 29.5453 13.7325 29.7174 13.9083C29.8895 14.0841 30.0115 14.3044 30.0704 14.5456C30.2137 15.1344 30.0704 15.9428 29.5657 17.0871C29.5657 17.1237 29.5299 17.1237 29.5299 17.1603L27.472 20.6266C27.0031 21.4117 26.5212 22.2068 25.9807 22.9552C25.3295 23.8301 24.8117 23.6738 25.3588 24.5121C26.0677 25.465 26.9945 26.2257 28.0581 26.7276C27.9274 26.7426 27.7979 26.7671 27.6706 26.8008C27.3581 26.878 27.0642 27.0192 26.8067 27.2159C26.5493 27.4126 26.3336 27.6607 26.1728 27.9451L25.4337 29.2525C25.2756 29.5369 25.1727 29.8498 25.1308 30.174C25.0921 30.4899 25.1119 30.8104 25.1895 31.1187V31.1786C25.2718 31.4882 25.4123 31.7786 25.603 32.0335L25.6225 32.0635C25.5704 32.0967 25.5183 32.1333 25.4662 32.1733C25.2003 32.3748 24.9785 32.6309 24.815 32.9251C24.6494 33.2161 24.5442 33.5388 24.5057 33.8732C24.4706 34.1917 24.4927 34.5141 24.5708 34.8246L24.9452 36.2783C24.9748 36.3929 25.0151 36.5043 25.0657 36.611C25.1488 36.8167 25.2583 37.0102 25.3913 37.1865C25.4239 37.2297 25.4597 37.2696 25.4955 37.3095C25.5314 37.3495 25.616 37.436 25.6779 37.4958H0C0 26.518 11.5593 29.9943 15.4927 24.4722C15.9453 23.7802 15.8183 23.8468 15.3136 23.2912L15.3038 23.3079ZM39.6402 31.1853C39.6197 31.1018 39.5829 31.0233 39.5319 30.9547C39.481 30.8861 39.417 30.8288 39.3439 30.7861C39.2719 30.7427 39.192 30.7149 39.1091 30.7046C39.0261 30.6943 38.942 30.7017 38.862 30.7262L37.9275 30.979C37.8254 30.7794 37.7101 30.5871 37.5823 30.4035C37.4532 30.2193 37.314 30.0428 37.1655 29.8746L37.6995 28.9431C37.7428 28.8702 37.7711 28.7891 37.7829 28.7047C37.7947 28.6203 37.7896 28.5343 37.768 28.452C37.7464 28.3696 37.7087 28.2926 37.6572 28.2255C37.6057 28.1584 37.5415 28.1026 37.4683 28.0616L36.3287 27.3963C36.2579 27.3532 36.1793 27.3251 36.0976 27.3137C36.0159 27.3023 35.9329 27.3077 35.8533 27.3297C35.7724 27.3506 35.6965 27.3882 35.6304 27.4403C35.5643 27.4924 35.5094 27.5578 35.4691 27.6324L34.9872 28.4807C34.7739 28.4147 34.5563 28.3647 34.3359 28.331C34.1205 28.2953 33.9029 28.2742 33.6847 28.2678L33.4014 27.2199C33.3838 27.1383 33.3494 27.0614 33.3006 26.9943C33.2518 26.9273 33.1896 26.8715 33.1181 26.8307C33.0458 26.7869 32.9654 26.7586 32.882 26.7478C32.7985 26.7369 32.7138 26.7436 32.633 26.7675L31.3729 27.1002C31.2916 27.1212 31.2153 27.1588 31.1487 27.2109C31.0821 27.2629 31.0265 27.3283 30.9854 27.4029C30.9426 27.4782 30.9158 27.5618 30.9069 27.6484C30.8979 27.7349 30.9069 27.8225 30.9333 27.9052L31.184 28.86C30.9833 28.9622 30.7906 29.08 30.6077 29.2126C30.4254 29.3432 30.2514 29.4854 30.0867 29.6384L29.1782 29.0995C29.1069 29.0562 29.0277 29.0279 28.9455 29.0165C28.8633 29.0051 28.7796 29.0107 28.6996 29.0329C28.6182 29.0538 28.542 29.0918 28.4758 29.1445C28.4097 29.1972 28.355 29.2635 28.3153 29.339L27.6641 30.5033C27.6226 30.5753 27.5957 30.6552 27.5851 30.7381C27.5745 30.8209 27.5803 30.9051 27.6023 30.9857C27.6208 31.0691 27.6565 31.1476 27.707 31.2159C27.7575 31.2841 27.8217 31.3406 27.8953 31.3815L28.7256 31.8739C28.6625 32.0921 28.6136 32.3144 28.5791 32.5392C28.5432 32.7593 28.5214 32.9815 28.514 33.2045L27.4948 33.4806C27.4139 33.4982 27.3376 33.5334 27.2713 33.584C27.205 33.6345 27.1501 33.6991 27.1106 33.7734C27.0683 33.8469 27.041 33.9284 27.0304 34.0131C27.0197 34.0977 27.026 34.1836 27.0487 34.2657L27.3743 35.5631C27.3966 35.6445 27.4346 35.7206 27.486 35.7869C27.5375 35.8531 27.6013 35.9082 27.6739 35.949C27.7442 35.9933 27.8226 36.0226 27.9043 36.0352C27.986 36.0478 28.0693 36.0434 28.1493 36.0221L29.0903 35.7593C29.1924 35.959 29.3077 36.1513 29.4355 36.3348C29.5657 36.5178 29.7057 36.6941 29.8522 36.8638L29.328 37.7919C29.2852 37.8646 29.2571 37.9454 29.2454 38.0293C29.2337 38.1133 29.2385 38.1989 29.2596 38.2809C29.2806 38.3638 29.318 38.4414 29.3695 38.5089C29.4211 38.5765 29.4856 38.6325 29.5592 38.6734L30.6988 39.3388C30.845 39.4192 31.0158 39.4396 31.1762 39.3956C31.3365 39.3517 31.4745 39.2469 31.5617 39.1026L32.0534 38.2576C32.2665 38.3247 32.4842 38.3759 32.7046 38.4106C32.9202 38.4457 33.1377 38.4679 33.3558 38.4772L33.6261 39.5184C33.6444 39.6015 33.6797 39.6797 33.7297 39.7479C33.7796 39.8161 33.8431 39.8728 33.9159 39.9143C33.987 39.9584 34.0665 39.9863 34.1492 39.9961C34.2318 40.0059 34.3155 39.9972 34.3945 39.9708L35.6677 39.6382C35.8276 39.5893 35.9631 39.4796 36.0461 39.3316C36.1291 39.1837 36.1533 39.0088 36.1138 38.8431L35.8566 37.885C36.0524 37.7815 36.2406 37.6637 36.4199 37.5324C36.5995 37.3997 36.7723 37.2576 36.9376 37.1066L37.8461 37.6422C37.9177 37.6855 37.997 37.7137 38.0794 37.7252C38.1619 37.7368 38.2457 37.7314 38.3261 37.7094C38.4064 37.6874 38.4817 37.6492 38.5474 37.5971C38.6132 37.545 38.6681 37.4801 38.7089 37.406L39.3602 36.2417C39.4389 36.0923 39.4588 35.9179 39.4158 35.754C39.3729 35.5902 39.2702 35.4493 39.129 35.3601L38.2987 34.8711C38.3589 34.6524 38.4067 34.4302 38.4419 34.2058C38.4789 33.9859 38.5007 33.7636 38.507 33.5405L39.5295 33.2544C39.6102 33.2362 39.6862 33.2007 39.7524 33.1503C39.8186 33.0998 39.8736 33.0355 39.9137 32.9617C39.9567 32.8884 39.9844 32.8068 39.9951 32.7221C40.0057 32.6374 39.9991 32.5513 39.9756 32.4693L39.6499 31.1819L39.6402 31.1853ZM34.8016 31.0888C35.1 31.2652 35.3612 31.5004 35.57 31.7807C35.7734 32.0505 35.9226 32.3586 36.0092 32.6874C36.0959 33.0162 36.1181 33.3592 36.0747 33.6968C36.0108 34.2173 35.7977 34.7069 35.4623 35.104C35.1268 35.5012 34.684 35.7882 34.1894 35.929C33.871 36.0151 33.5393 36.0377 33.2126 35.9955C32.8703 35.9497 32.5402 35.8353 32.2413 35.6589C31.9424 35.4825 31.6805 35.2476 31.4705 34.9676C31.0621 34.423 30.8818 33.7351 30.9691 33.0548C31.0109 32.7053 31.1202 32.3677 31.2907 32.0616C31.4612 31.7555 31.6894 31.487 31.9622 31.2718C32.2263 31.064 32.5279 30.9115 32.8497 30.823C33.1715 30.7345 33.5073 30.7118 33.8377 30.7561C34.1816 30.8003 34.5136 30.9133 34.8146 31.0888H34.8016Z" fill="#008A91"/>
</svg>
