<svg width="20" height="20" viewBox="0 0 20 20" fill="none" xmlns="http://www.w3.org/2000/svg">
<g clip-path="url(#clip0_673_20533)">
<path d="M0.769035 19.8681C0.594946 19.8681 0.427225 19.7991 0.303189 19.6751C0.168397 19.5403 0.0985863 19.3533 0.111978 19.1629L0.308239 16.3869C0.319435 16.2287 0.38727 16.0798 0.49967 15.9679L7.51369 8.95384C6.53832 6.57412 7.07463 3.82822 8.91584 1.98701C11.4176 -0.514983 15.4893 -0.515422 17.9915 1.98701C20.4935 4.48923 20.4935 8.56066 17.9915 11.0627C16.1503 12.9039 13.4044 13.4402 11.0247 12.465L9.46357 14.0259C9.36368 14.126 9.23416 14.191 9.09432 14.2118L7.56814 14.4375L7.34246 15.9604C7.29987 16.2475 7.07441 16.473 6.78726 16.5156L5.2646 16.7413L5.03892 18.2672C5.01828 18.4073 4.95308 18.5368 4.85319 18.6367L4.01063 19.4793C3.89845 19.5914 3.74961 19.6593 3.59133 19.6705L0.815356 19.8663C0.799769 19.8674 0.784402 19.8681 0.769035 19.8681ZM1.60501 16.7252L1.47966 18.4986L3.25303 18.3735L3.76761 17.8587L4.03303 16.0645C4.07539 15.7771 4.30085 15.5519 4.58822 15.509L6.11111 15.2834L6.33679 13.7605C6.37938 13.4733 6.60483 13.2479 6.89198 13.2053L8.68643 12.9401L10.4159 11.2108C10.6163 11.0102 10.9219 10.9606 11.1759 11.0872C13.1416 12.0692 15.5064 11.6846 17.0604 10.1305C19.0487 8.14201 19.0487 4.90634 17.0604 2.91783C15.0717 0.929313 11.8363 0.929532 9.84753 2.91783C8.29369 4.47167 7.90929 6.83646 8.89125 8.80236C9.01792 9.05592 8.96809 9.36195 8.76766 9.56238L1.60501 16.7252Z" fill="#565656"/>
<path d="M14.6943 7.42541C14.1224 7.42541 13.5848 7.20259 13.1802 6.79821C12.7756 6.39384 12.5527 5.85598 12.5527 5.28411C12.5527 4.71223 12.7756 4.17438 13.1802 3.76978C13.5845 3.3654 14.1224 3.14258 14.6943 3.14258C15.2664 3.14258 15.804 3.3654 16.2086 3.76978C17.0432 4.60466 17.0432 5.96334 16.2086 6.79821C15.8042 7.20281 15.2664 7.42541 14.6943 7.42541ZM14.6943 4.45999C14.4743 4.45999 14.2673 4.54582 14.1116 4.70125C13.956 4.85712 13.8701 5.06392 13.8701 5.28389C13.8701 5.50386 13.956 5.71087 14.1116 5.86652C14.4229 6.17782 14.9652 6.17782 15.2769 5.86652C15.5981 5.54513 15.5981 5.02242 15.2769 4.70125C15.1215 4.54582 14.9145 4.45999 14.6943 4.45999Z" fill="#565656"/>
</g>
<defs>
<clipPath id="clip0_673_20533">
<rect width="20" height="20" fill="white"/>
</clipPath>
</defs>
</svg>
