<svg width="21" height="25" viewBox="0 0 21 25" fill="none" xmlns="http://www.w3.org/2000/svg">
<path d="M14.4938 21.2412L14.4938 13.2412L6.16048 13.2412L6.16048 21.2412M6.16048 3.24121L6.16048 8.24121L12.8271 8.24121M16.1605 21.2412L4.49382 21.2412C4.05179 21.2412 3.62786 21.0305 3.3153 20.6554C3.00274 20.2804 2.82715 19.7716 2.82715 19.2412L2.82715 5.24121C2.82715 4.71078 3.00274 4.20207 3.3153 3.827C3.62786 3.45192 4.05179 3.24121 4.49382 3.24121L13.6605 3.24121L17.8271 8.24121L17.8271 19.2412C17.8271 19.7716 17.6516 20.2804 17.339 20.6554C17.0264 21.0305 16.6025 21.2412 16.1605 21.2412Z" stroke="white" stroke-width="1.5" stroke-linecap="round" stroke-linejoin="round"/>
</svg>
