<svg width="30" height="30" viewBox="0 0 30 30" fill="none" xmlns="http://www.w3.org/2000/svg">
<g clip-path="url(#clip0_334_18615)">
<path d="M27.1866 7.43342L19.9325 0.179355C19.8176 0.0645116 19.6619 0 19.4995 0H5.60831C3.96758 0 2.63281 1.33488 2.63281 2.97562V27.0244C2.63281 28.6651 3.96763 30 5.60837 30H24.3904C26.0311 30 27.3659 28.6652 27.3659 27.0244V7.86637C27.3659 7.70401 27.3014 7.54827 27.1866 7.43342ZM20.1119 2.09056L25.2756 7.25418H21.863C21.3952 7.25418 20.9554 7.07202 20.6247 6.74131C20.294 6.41067 20.1119 5.97093 20.1119 5.50317V2.09056ZM26.1414 27.0244C26.1414 27.9899 25.3559 28.7754 24.3904 28.7754H5.60831C4.64275 28.7754 3.85724 27.9899 3.85724 27.0244V2.97562C3.8573 2.01005 4.64281 1.22449 5.60831 1.22449H18.8874V5.50306C18.8873 6.29788 19.1968 7.04512 19.7588 7.60709C20.3208 8.16912 21.0681 8.47862 21.863 8.47862H26.1413L26.1414 27.0244Z" fill="#008A91"/>
<path d="M16.1188 20.5938H15.8447C15.5066 20.5938 15.2324 20.8679 15.2324 21.206C15.2324 21.5441 15.5066 21.8182 15.8447 21.8182H16.1188C16.4569 21.8182 16.731 21.5441 16.731 21.206C16.731 20.8679 16.4569 20.5938 16.1188 20.5938Z" fill="#008A91"/>
<path d="M13.8637 20.5938H7.91693C7.57885 20.5938 7.30469 20.8679 7.30469 21.206C7.30469 21.5441 7.57885 21.8182 7.91693 21.8182H13.8637C14.2018 21.8182 14.476 21.5441 14.476 21.206C14.476 20.8679 14.2019 20.5938 13.8637 20.5938Z" fill="#008A91"/>
<path d="M22.0827 17.7969H7.91693C7.57885 17.7969 7.30469 18.071 7.30469 18.4091C7.30469 18.7473 7.57885 19.0214 7.91693 19.0214H22.0827C22.4208 19.0214 22.695 18.7473 22.695 18.4091C22.695 18.071 22.4208 17.7969 22.0827 17.7969Z" fill="#008A91"/>
<path d="M22.0827 15H7.91693C7.57885 15 7.30469 15.2741 7.30469 15.6122C7.30469 15.9504 7.57885 16.2245 7.91693 16.2245H22.0827C22.4208 16.2245 22.695 15.9504 22.695 15.6122C22.695 15.2741 22.4208 15 22.0827 15Z" fill="#008A91"/>
<path d="M22.0827 12.2031H7.91693C7.57885 12.2031 7.30469 12.4772 7.30469 12.8154C7.30469 13.1535 7.57885 13.4276 7.91693 13.4276H22.0827C22.4208 13.4276 22.695 13.1535 22.695 12.8154C22.695 12.4772 22.4208 12.2031 22.0827 12.2031Z" fill="#008A91"/>
</g>
<defs>
<clipPath id="clip0_334_18615">
<rect width="30" height="30" fill="white"/>
</clipPath>
</defs>
</svg>
