<svg width="50" height="50" viewBox="0 0 50 50" fill="none" xmlns="http://www.w3.org/2000/svg">
<g clip-path="url(#clip0_502_17573)">
<path opacity="0.01" d="M0 0H50V50H0V0Z" fill="#202425"/>
<path d="M46.6668 24.9997C46.6668 36.9663 36.9668 46.6663 25.0002 46.6663C13.0335 46.6663 3.3335 36.9663 3.3335 24.9997C3.3335 13.033 13.0335 3.33301 25.0002 3.33301C36.9668 3.33301 46.6668 13.033 46.6668 24.9997Z" fill="white"/>
<path d="M24.9998 5.00033C13.9548 5.00033 4.99984 13.9553 4.99984 25.0003C4.99984 36.0453 13.9548 45.0003 24.9998 45.0003C36.0448 45.0003 44.9998 36.0453 44.9998 25.0003C44.9998 13.9553 36.0448 5.00033 24.9998 5.00033ZM1.6665 25.0003C1.6665 12.1137 12.1132 1.66699 24.9998 1.66699C37.8865 1.66699 48.3332 12.1137 48.3332 25.0003C48.3332 37.887 37.8865 48.3337 24.9998 48.3337C12.1132 48.3337 1.6665 37.887 1.6665 25.0003Z" fill="#166534"/>
<path d="M38.4331 16.5665C38.9013 17.0353 39.1643 17.6707 39.1643 18.3332C39.1643 18.9957 38.9013 19.6311 38.4331 20.0998L23.4331 35.0998C22.9644 35.568 22.329 35.831 21.6665 35.831C21.004 35.831 20.3686 35.568 19.8998 35.0998L11.5665 26.7665C11.1249 26.2926 10.8845 25.6658 10.8959 25.0181C10.9073 24.3704 11.1697 23.7525 11.6277 23.2944C12.0858 22.8364 12.7037 22.574 13.3514 22.5626C13.9991 22.5512 14.6259 22.7916 15.0998 23.2332L21.6665 29.7965L34.8998 16.5632C35.3686 16.095 36.004 15.832 36.6665 15.832C37.329 15.832 37.9644 16.095 38.4331 16.5632V16.5665Z" fill="#166534"/>
</g>
<defs>
<clipPath id="clip0_502_17573">
<rect width="50" height="50" fill="white"/>
</clipPath>
</defs>
</svg>
