<svg width="13" height="21" viewBox="0 0 13 21" fill="none" xmlns="http://www.w3.org/2000/svg">
<path d="M9.85337 0.413861C9.62866 0.577145 9.43467 0.76348 9.23881 0.959903C9.20314 0.995371 9.16747 1.03084 9.13071 1.06738C9.03238 1.16517 8.93428 1.26319 8.83623 1.36126C8.73018 1.46725 8.6239 1.57301 8.51766 1.67881C8.28575 1.90983 8.05412 2.14114 7.82256 2.37251C7.67784 2.51711 7.53305 2.66164 7.38825 2.80616C6.98694 3.20671 6.58569 3.60732 6.1847 4.00819C6.14626 4.04662 6.14626 4.04662 6.10705 4.08582C6.05511 4.13774 6.00317 4.18967 5.95123 4.2416C5.92545 4.26737 5.89966 4.29315 5.8731 4.3197C5.84729 4.34551 5.82148 4.37131 5.79488 4.3979C5.3765 4.81615 4.95766 5.23393 4.53861 5.65152C4.10786 6.08078 3.67747 6.51041 3.24745 6.94042C3.00622 7.18163 2.76483 7.42269 2.52304 7.66335C2.3172 7.86822 2.11171 8.07343 1.90665 8.27908C1.80212 8.38389 1.69744 8.48854 1.59232 8.59277C1.47813 8.706 1.36472 8.81998 1.25136 8.93405C1.21836 8.96653 1.18537 8.99901 1.15137 9.03248C0.781539 9.40759 0.609825 9.76044 0.608763 10.2831C0.6192 10.8526 0.984301 11.2133 1.36776 11.5956C1.40323 11.6313 1.4387 11.667 1.47524 11.7037C1.57303 11.802 1.67105 11.9001 1.76912 11.9982C1.87511 12.1042 1.98087 12.2105 2.08667 12.3168C2.31769 12.5487 2.549 12.7803 2.78037 13.0119C2.92497 13.1566 3.0695 13.3014 3.21401 13.4462C3.61456 13.8475 4.01517 14.2487 4.41605 14.6497C4.44167 14.6754 4.46728 14.701 4.49368 14.7274C4.5456 14.7793 4.59753 14.8313 4.64945 14.8832C4.67523 14.909 4.701 14.9348 4.72756 14.9613C4.75336 14.9871 4.77917 15.0129 4.80576 15.0395C5.224 15.4579 5.64179 15.8768 6.05937 16.2958C6.48864 16.7266 6.91827 17.157 7.34828 17.587C7.58949 17.8282 7.83055 18.0696 8.07121 18.3114C8.27608 18.5172 8.48129 18.7227 8.68694 18.9278C8.79175 19.0323 8.8964 19.137 9.00062 19.2421C9.11386 19.3563 9.22784 19.4697 9.34191 19.5831C9.39063 19.6326 9.39063 19.6326 9.44034 19.6831C9.81774 20.0552 10.1686 20.2237 10.6937 20.2229C11.1027 20.2162 11.3744 20.0814 11.6638 19.7967C11.9738 19.4563 12.0508 19.1075 12.0401 18.6575C11.9983 17.9071 11.1774 17.3266 10.6831 16.8333C10.611 16.7612 10.539 16.6892 10.467 16.6172C10.3128 16.4629 10.1585 16.3088 10.0042 16.1547C9.78104 15.9319 9.55802 15.709 9.33504 15.486C8.97313 15.1242 8.61113 14.7625 8.24908 14.4008C7.89767 14.0497 7.54631 13.6986 7.195 13.3475C7.17329 13.3258 7.15159 13.3041 7.12922 13.2818C7.02031 13.1729 6.91141 13.064 6.8025 12.9552C5.90103 12.0541 4.99941 11.1532 4.0977 10.2523C4.15083 10.1336 4.21048 10.0518 4.30253 9.96022C4.3288 9.93389 4.35507 9.90756 4.38214 9.88043C4.41109 9.85182 4.44003 9.8232 4.46986 9.79372C4.50055 9.76308 4.53123 9.73243 4.56285 9.70086C4.66606 9.59789 4.76955 9.49519 4.87304 9.39249C4.94697 9.31885 5.02087 9.24518 5.09476 9.1715C5.2541 9.01265 5.41357 8.85394 5.57313 8.69531C5.80415 8.46561 6.03489 8.23563 6.26554 8.00555C6.6402 7.63182 7.01498 7.25821 7.38988 6.88473C7.41232 6.86238 7.43476 6.84002 7.45788 6.81699C7.77603 6.50006 8.0943 6.18325 8.41261 5.86648C8.435 5.8442 8.45739 5.82191 8.48047 5.79895C8.50283 5.7767 8.5252 5.75444 8.54824 5.73151C8.9217 5.35985 9.29485 4.9879 9.66776 4.61569C9.89763 4.38628 10.1277 4.15712 10.3582 3.9283C10.5163 3.77129 10.6741 3.614 10.8316 3.45649C10.9225 3.36574 11.0134 3.27516 11.1047 3.18483C11.2038 3.08664 11.3025 2.98797 11.401 2.88917C11.4296 2.86108 11.4582 2.83299 11.4877 2.80405C11.7894 2.49941 12.0339 2.14814 12.0403 1.70704C12.04 1.68058 12.0398 1.65412 12.0396 1.62686C12.0394 1.59924 12.0392 1.57162 12.0389 1.54316C12.0295 1.13661 11.8938 0.86455 11.6108 0.576901C11.1396 0.147621 10.3926 0.0441297 9.85337 0.413861Z" fill="#008A91"/>
</svg>
