<svg width="15" height="15" viewBox="0 0 15 15" fill="none" xmlns="http://www.w3.org/2000/svg">
<path d="M9.55661 7.49993L14.574 2.48254C15.142 1.9146 15.142 0.993931 14.574 0.425987C14.0062 -0.141957 13.0855 -0.141841 12.5175 0.425987L7.50007 5.44349L2.48252 0.425871C1.91458 -0.141957 0.99392 -0.141957 0.425982 0.425871C-0.141839 0.993815 -0.141839 1.91448 0.425982 2.48243L5.44342 7.49993L0.425866 12.5175C-0.141955 13.0855 -0.141955 14.0062 0.425866 14.5742C0.709835 14.8581 1.08198 15 1.45413 15C1.82628 15 2.19843 14.858 2.4824 14.5742L7.49996 9.55648L12.5175 14.5742C12.8015 14.858 13.1736 15 13.5458 15C13.9179 15 14.2901 14.858 14.574 14.5742C15.142 14.0062 15.142 13.0855 14.574 12.5175L9.55661 7.49993Z" fill="#D92D20"/>
</svg>
