<svg width="20" height="20" viewBox="0 0 20 20" fill="none" xmlns="http://www.w3.org/2000/svg">
<path d="M10.0001 0C4.486 0 0 4.48597 0 10C0 15.514 4.486 20 10.0001 20C15.5141 20 20 15.514 20 10C20 4.48597 15.5141 0 10.0001 0ZM10.0001 18.3607C5.38993 18.3607 1.63933 14.6102 1.63933 10C1.63933 5.3899 5.38993 1.63934 10.0001 1.63934C14.6101 1.63934 18.3607 5.3899 18.3607 10C18.3607 14.6102 14.6101 18.3607 10.0001 18.3607Z" fill="#565656"/>
<path d="M11.1583 9.99894L13.9864 7.17081C14.3066 6.85068 14.3066 6.33173 13.9864 6.0116C13.6664 5.69147 13.1474 5.69153 12.8272 6.0116L9.99905 8.8398L7.1708 6.01153C6.85067 5.69147 6.33173 5.69147 6.0116 6.01153C5.69153 6.33166 5.69153 6.85062 6.0116 7.17075L8.83978 9.99894L6.01153 12.8272C5.69147 13.1473 5.69147 13.6663 6.01153 13.9865C6.1716 14.1465 6.38137 14.2265 6.59113 14.2265C6.8009 14.2265 7.01067 14.1464 7.17074 13.9865L9.99898 11.1582L12.8272 13.9865C12.9873 14.1464 13.1971 14.2265 13.4068 14.2265C13.6166 14.2265 13.8264 14.1464 13.9864 13.9865C14.3066 13.6663 14.3066 13.1473 13.9864 12.8272L11.1583 9.99894Z" fill="#565656"/>
</svg>
