<svg width="100" height="100" viewBox="0 0 100 100" fill="none" xmlns="http://www.w3.org/2000/svg">
<path d="M50.0003 0C22.43 0 0 22.4298 0 50C0 77.5702 22.43 100 50.0003 100C77.5703 100 100 77.5702 100 50C100 22.4298 77.5703 0 50.0003 0ZM50.0003 91.8033C26.9497 91.8033 8.19667 73.0508 8.19667 50C8.19667 26.9495 26.9497 8.19672 50.0003 8.19672C73.0507 8.19672 91.8033 26.9495 91.8033 50C91.8033 73.0508 73.0507 91.8033 50.0003 91.8033Z" fill="#D92D20" fill-opacity="0.8"/>
<path d="M55.7961 49.9998L69.937 35.8591C71.5377 34.2585 71.5377 31.6637 69.937 30.0631C68.3367 28.4624 65.7416 28.4627 64.141 30.0631L50.0001 44.204L35.8589 30.0627C34.2583 28.4624 31.6635 28.4624 30.0629 30.0627C28.4626 31.6634 28.4626 34.2581 30.0629 35.8588L44.2038 49.9998L30.0625 64.1411C28.4622 65.7417 28.4622 68.3365 30.0625 69.9375C30.8629 70.7375 31.9117 71.1375 32.9606 71.1375C34.0094 71.1375 35.0582 70.7372 35.8586 69.9375L49.9998 55.7958L64.141 69.9375C64.9413 70.7372 65.9902 71.1375 67.039 71.1375C68.0879 71.1375 69.1367 70.7372 69.937 69.9375C71.5377 68.3365 71.5377 65.7417 69.937 64.1411L55.7961 49.9998Z" fill="#D92D20" fill-opacity="0.8"/>
</svg>
