<svg width="138" height="170" viewBox="0 0 138 170" fill="none" xmlns="http://www.w3.org/2000/svg">
    <path d="M124.2 74.4062H13.8C6.21 74.4062 0 80.7792 0 88.5683V155.838C0 163.627 6.21 170 13.8 170H124.2C131.79 170 138 163.627 138 155.838V88.5683C138 80.7792 131.79 74.4062 124.2 74.4062ZM86.25 150.527C81.075 154.068 75.21 155.838 69 155.838C66.93 155.838 64.86 155.484 62.79 155.13C54.51 153.36 47.61 148.757 43.125 141.676L54.51 133.887C56.925 137.781 61.065 140.614 65.55 141.322C70.035 142.384 74.52 141.322 78.66 138.489C86.595 133.179 88.665 121.849 83.49 114.06C81.075 110.165 76.935 107.333 72.45 106.625C67.965 105.563 63.48 106.625 59.34 109.457C58.305 110.165 57.615 110.873 56.925 111.582L69 123.973H37.95V92.1088L46.92 101.314C48.3 99.8979 50.025 98.4817 51.405 97.4196C58.305 92.8169 66.585 91.0466 74.865 92.4628C83.145 94.2331 90.045 98.8358 94.53 105.917C104.19 120.787 100.395 140.614 86.25 150.527Z" fill="#008A91" />
    <path d="M17.2498 60.2442H31.0498C33.1198 60.2442 34.4998 59.1821 34.4998 57.0578V56.7037C34.4998 36.5228 51.4048 19.8824 71.4148 21.2986C89.6998 22.7148 103.5 39.0012 103.5 58.1199V57.0578C103.5 59.1821 104.88 60.2442 106.95 60.2442H120.75C122.82 60.2442 124.2 59.1821 124.2 57.0578V56.7037C124.2 24.4851 97.9798 -1.36066 66.2398 0.0555484C36.9148 1.47175 14.4898 26.9634 13.7998 57.0578C14.1448 58.828 15.5248 60.2442 17.2498 60.2442Z" fill="#008A91" />
</svg>