<svg width="28" height="15" viewBox="0 0 28 15" fill="none" xmlns="http://www.w3.org/2000/svg">
<path d="M18.7239 2.05294C22.5367 3.7874 26.3868 7.4557 26.3868 7.4557C26.3868 7.4557 21.4782 13.6393 13.5199 13.719C10.9558 13.7447 7.37426 12.4471 5.54748 11.5585M18.1944 1.84893C17.7871 1.81794 14.2451 1.13247 13.8184 1.13674C5.86015 1.21646 1.37507 7.70624 1.37507 7.70624C1.37507 7.70624 3.4392 9.78401 5.08864 11.1502" stroke="#565656" stroke-width="2" stroke-linecap="round" stroke-linejoin="round"/>
<path d="M17.4974 7.46542C17.4966 9.0472 16.0069 10.5302 13.9081 10.5313C11.8094 10.5323 10.3212 9.0508 10.3221 7.46902C10.3229 5.88725 11.8126 4.40421 13.9114 4.40315C16.0101 4.4021 17.4983 5.88365 17.4974 7.46542Z" fill="white" stroke="#565656" stroke-width="2"/>
</svg>
