<svg width="17" height="17" viewBox="0 0 17 17" fill="none" xmlns="http://www.w3.org/2000/svg">
<path d="M8.54247 0.0341002C4.11959 0.00875547 0.525679 3.56638 0.515126 7.97977C0.50459 12.4026 4.07425 16.0085 8.48768 16.0338C12.9106 16.0591 16.5045 12.5015 16.515 8.08813C16.535 3.6653 12.9559 0.0594312 8.54247 0.0341002ZM8.43314 2.18867C8.82061 2.18923 9.1422 2.33146 9.40733 2.60591C9.6819 2.87092 9.81483 3.20189 9.81556 3.58936C9.8163 3.97683 9.6846 4.29796 9.41105 4.57163C9.14694 4.83586 8.81642 4.96769 8.4384 4.96713C8.04147 4.96656 7.71991 4.83378 7.44534 4.56876C7.18023 4.30376 7.03784 3.97279 7.03711 3.58531C7.03636 3.18839 7.17751 2.86728 7.45107 2.60306C7.71517 2.32938 8.04567 2.1881 8.43314 2.18867ZM6.18124 5.76714L9.8575 5.7725L9.87045 12.6242L10.9762 12.6258L10.9778 13.5047L6.19586 13.4977L6.1942 12.6188L7.29046 12.6204L7.27916 6.64764L6.1829 6.64605L6.18124 5.76714Z" fill="#008A91"/>
</svg>
