<svg width="12" height="21" viewBox="0 0 12 21" fill="none" xmlns="http://www.w3.org/2000/svg">
<path d="M2.47085 0.896283C2.69556 1.05957 2.88955 1.2459 3.08541 1.44232C3.12108 1.47779 3.15675 1.51326 3.19351 1.54981C3.29184 1.64759 3.38993 1.74561 3.48799 1.84368C3.59404 1.94967 3.70031 2.05544 3.80656 2.16123C4.03847 2.39225 4.27009 2.62357 4.50166 2.85494C4.64638 2.99953 4.79117 3.14406 4.93597 3.28858C5.33728 3.68913 5.73853 4.08974 6.13952 4.49061C6.17796 4.52904 6.17796 4.52904 6.21717 4.56824C6.26911 4.62017 6.32105 4.67209 6.37299 4.72402C6.39877 4.74979 6.42455 4.77557 6.45112 4.80212C6.47693 4.82793 6.50274 4.85373 6.52934 4.88032C6.94772 5.29857 7.36656 5.71635 7.78561 6.13394C8.21636 6.5632 8.64675 6.99284 9.07677 7.42284C9.318 7.66406 9.55939 7.90511 9.80118 8.14577C10.007 8.35065 10.2125 8.55586 10.4176 8.7615C10.5221 8.86631 10.6268 8.97096 10.7319 9.07519C10.8461 9.18842 10.9595 9.30241 11.0729 9.41647C11.1059 9.44895 11.1389 9.48144 11.1729 9.5149C11.5427 9.89001 11.7144 10.2429 11.7155 10.7655C11.705 11.3351 11.3399 11.6957 10.9565 12.078C10.921 12.1137 10.8855 12.1494 10.849 12.1861C10.7512 12.2845 10.6532 12.3826 10.5551 12.4806C10.4491 12.5867 10.3433 12.6929 10.2376 12.7992C10.0065 13.0311 9.77522 13.2627 9.54385 13.4943C9.39925 13.639 9.25472 13.7838 9.1102 13.9286C8.70966 14.3299 8.30904 14.7312 7.90817 15.1321C7.88255 15.1578 7.85694 15.1834 7.83054 15.2098C7.77862 15.2617 7.72669 15.3137 7.67476 15.3656C7.64899 15.3914 7.62322 15.4172 7.59666 15.4437C7.57086 15.4696 7.54505 15.4954 7.51846 15.522C7.10022 15.9403 6.68243 16.3592 6.26485 16.7782C5.83558 17.209 5.40595 17.6394 4.97594 18.0694C4.73473 18.3106 4.49367 18.552 4.25301 18.7938C4.04814 18.9996 3.84293 19.2051 3.63728 19.4102C3.53247 19.5147 3.42782 19.6194 3.32359 19.7245C3.21036 19.8387 3.09638 19.9521 2.98231 20.0655C2.93359 20.115 2.93359 20.115 2.88388 20.1655C2.50647 20.5376 2.15564 20.7062 1.63052 20.7053C1.22152 20.6986 0.949798 20.5638 0.660445 20.2791C0.350374 19.9388 0.273394 19.5899 0.284163 19.1399C0.325906 18.3896 1.1468 17.809 1.64116 17.3157C1.71319 17.2437 1.78522 17.1716 1.85725 17.0996C2.01145 16.9454 2.16573 16.7912 2.32006 16.6371C2.54318 16.4143 2.76619 16.1914 2.98918 15.9684C3.35109 15.6066 3.71309 15.2449 4.07514 14.8832C4.42655 14.5321 4.77791 14.1811 5.12922 13.8299C5.15093 13.8082 5.17263 13.7865 5.195 13.7642C5.3039 13.6553 5.41281 13.5465 5.52172 13.4376C6.42319 12.5365 7.32481 11.6356 8.22651 10.7348C8.17339 10.616 8.11374 10.5342 8.02169 10.4426C7.99542 10.4163 7.96915 10.39 7.94208 10.3628C7.91313 10.3342 7.88418 10.3056 7.85436 10.2761C7.82367 10.2455 7.79298 10.2149 7.76137 10.1833C7.65815 10.0803 7.55467 9.97762 7.45118 9.87492C7.37725 9.80127 7.30334 9.72761 7.22946 9.65392C7.07012 9.49507 6.91065 9.33636 6.75109 9.17773C6.52007 8.94804 6.28933 8.71805 6.05868 8.48797C5.68402 8.11424 5.30924 7.74063 4.93434 7.36715C4.9119 7.3448 4.88945 7.32244 4.86633 7.29941C4.54819 6.98248 4.22992 6.66567 3.91161 6.3489C3.88922 6.32662 3.86682 6.30434 3.84375 6.28138C3.82139 6.25912 3.79902 6.23686 3.77598 6.21393C3.40252 5.84227 3.02937 5.47032 2.65646 5.09811C2.42659 4.8687 2.19647 4.63954 1.96602 4.41072C1.80794 4.25371 1.65015 4.09643 1.49258 3.93892C1.40177 3.84816 1.31079 3.75758 1.21955 3.66726C1.1204 3.56906 1.02175 3.47039 0.923199 3.37159C0.894601 3.3435 0.866003 3.31541 0.836538 3.28647C0.534868 2.98183 0.290338 2.63056 0.283953 2.18946C0.284174 2.163 0.284394 2.13654 0.284621 2.10928C0.284841 2.08166 0.285061 2.05404 0.285288 2.02559C0.294715 1.61903 0.430393 1.34697 0.713393 1.05932C1.18463 0.630042 1.93163 0.526552 2.47085 0.896283Z" fill="white"/>
</svg>
