<svg width="30" height="30" viewBox="0 0 30 30" fill="none" xmlns="http://www.w3.org/2000/svg">
<path d="M27.0882 6.57617H24.6094V2.79688C24.6094 1.76131 23.7699 0.921875 22.7344 0.921875H7.26562C6.23006 0.921875 5.39062 1.76131 5.39062 2.79688V6.57617H2.91183C1.30645 6.57617 0 7.88263 0 9.488V21.8023C0 23.4077 1.30645 24.7141 2.91183 24.7141H4.02741C4.28648 24.7141 4.49616 24.5045 4.49616 24.2454C4.49616 23.9863 4.28648 23.7766 4.02741 23.7766H2.91183C1.82325 23.7766 0.9375 22.8909 0.9375 21.8023V9.488C0.9375 8.39942 1.82325 7.51367 2.91183 7.51367H27.0882C28.1767 7.51367 29.0625 8.39942 29.0625 9.488V21.8023C29.0625 22.8909 28.1767 23.7766 27.0882 23.7766H26.25C25.9909 23.7766 25.7812 23.9863 25.7812 24.2454C25.7812 24.5045 25.9909 24.7141 26.25 24.7141H27.0882C28.6935 24.7141 30 23.4077 30 21.8023V9.488C30 7.88263 28.6935 6.57617 27.0882 6.57617ZM6.32812 2.79688C6.32812 2.27994 6.74869 1.85938 7.26562 1.85938H22.7344C23.2513 1.85938 23.6719 2.27994 23.6719 2.79688V6.54688H6.32812V2.79688Z" fill="#008A91"/>
<path d="M20.625 21.1074H9.37502C9.11636 21.1074 8.90674 21.317 8.90674 21.5757C8.90674 21.8344 9.11636 22.044 9.37502 22.044H20.625C20.8836 22.044 21.0933 21.8344 21.0933 21.5757C21.0933 21.317 20.8836 21.1074 20.625 21.1074Z" fill="#008A91"/>
<path d="M20.625 24.3887H9.37502C9.11636 24.3887 8.90674 24.5983 8.90674 24.857C8.90674 25.1156 9.11636 25.3252 9.37502 25.3252H20.625C20.8836 25.3252 21.0933 25.1156 21.0933 24.857C21.0933 24.5983 20.8836 24.3887 20.625 24.3887Z" fill="#008A91"/>
<path d="M3.73096 11.1738C4.24872 11.1738 4.66846 10.7541 4.66846 10.2363C4.66846 9.71856 4.24872 9.29883 3.73096 9.29883C3.21319 9.29883 2.79346 9.71856 2.79346 10.2363C2.79346 10.7541 3.21319 11.1738 3.73096 11.1738Z" fill="#008A91"/>
<path d="M6.69629 11.1738C7.21406 11.1738 7.63379 10.7541 7.63379 10.2363C7.63379 9.71856 7.21406 9.29883 6.69629 9.29883C6.17852 9.29883 5.75879 9.71856 5.75879 10.2363C5.75879 10.7541 6.17852 11.1738 6.69629 11.1738Z" fill="#008A91"/>
<path d="M9.66211 11.1738C10.1799 11.1738 10.5996 10.7541 10.5996 10.2363C10.5996 9.71856 10.1799 9.29883 9.66211 9.29883C9.14434 9.29883 8.72461 9.71856 8.72461 10.2363C8.72461 10.7541 9.14434 11.1738 9.66211 11.1738Z" fill="#008A91"/>
<path d="M5.15625 29.0762H24.8438V16.8887H5.15625V29.0762ZM6.28298 18.0154H23.717V27.9494H6.28298V18.0154Z" fill="#008A91"/>
</svg>
