<svg width="100" height="100" viewBox="0 0 100 100" fill="none" xmlns="http://www.w3.org/2000/svg">
<g clip-path="url(#clip0_186_12266)">
<path opacity="0.01" d="M0 0H100V100H0V0Z" fill="#202425"/>
<path d="M93.3334 50C93.3334 73.9333 73.9333 93.3334 50 93.3334C26.0667 93.3334 6.66669 73.9333 6.66669 50C6.66669 26.0667 26.0667 6.66669 50 6.66669C73.9333 6.66669 93.3334 26.0667 93.3334 50Z" fill="white"/>
<path d="M50 9.99998C27.91 9.99998 9.99998 27.91 9.99998 50C9.99998 72.09 27.91 90 50 90C72.09 90 90 72.09 90 50C90 27.91 72.09 9.99998 50 9.99998ZM3.33331 50C3.33331 24.2266 24.2266 3.33331 50 3.33331C75.7733 3.33331 96.6666 24.2266 96.6666 50C96.6666 75.7733 75.7733 96.6666 50 96.6666C24.2266 96.6666 3.33331 75.7733 3.33331 50Z" fill="#A5DD86"/>
<path d="M76.8667 33.1334C77.803 34.0709 78.3289 35.3417 78.3289 36.6667C78.3289 37.9917 77.803 39.2625 76.8667 40.2L46.8667 70.2C45.9292 71.1364 44.6583 71.6623 43.3333 71.6623C42.0083 71.6623 40.7375 71.1364 39.8 70.2L23.1333 53.5334C22.2501 52.5855 21.7693 51.3319 21.7922 50.0365C21.815 48.7412 22.3398 47.5053 23.2558 46.5892C24.1719 45.6731 25.4078 45.1484 26.7032 45.1255C27.9985 45.1027 29.2522 45.5835 30.2 46.4667L43.3333 59.5934L69.8 33.1267C70.7375 32.1904 72.0083 31.6644 73.3333 31.6644C74.6583 31.6644 75.9292 32.1904 76.8667 33.1267V33.1334Z" fill="#A5DD86"/>
</g>
<defs>
<clipPath id="clip0_186_12266">
<rect width="100" height="100" fill="white"/>
</clipPath>
</defs>
</svg>
