<svg width="29" height="21" viewBox="0 0 29 21" fill="none" xmlns="http://www.w3.org/2000/svg">
<path d="M26.5146 1.01105L1.67583 19.0223" stroke="#B3B3B3" stroke-width="2" stroke-linecap="round" stroke-linejoin="round"/>
<path d="M20.0745 6.05299C23.8873 7.78744 27.7374 11.4558 27.7374 11.4558C27.7374 11.4558 22.8287 17.6393 14.8705 17.719C12.3064 17.7447 8.72484 16.4471 6.89807 15.5586M19.545 5.84897C19.1377 5.81798 15.5957 5.13251 15.169 5.13679C7.21073 5.2165 2.72566 11.7063 2.72566 11.7063C2.72566 11.7063 4.78979 13.7841 6.43922 15.1502" stroke="#B3B3B3" stroke-width="2" stroke-linecap="round" stroke-linejoin="round"/>
<path d="M18.848 11.4655C18.8472 13.0473 17.3575 14.5303 15.2587 14.5314C13.1599 14.5324 11.6718 13.0509 11.6727 11.4691C11.6735 9.88731 13.1632 8.40427 15.2619 8.40321C17.3607 8.40216 18.8488 9.88371 18.848 11.4655Z" fill="white" stroke="#B3B3B3" stroke-width="2"/>
</svg>
