<svg width="90" height="90" viewBox="0 0 90 90" fill="none" xmlns="http://www.w3.org/2000/svg">
<path d="M76.4469 76.4858C59.0577 93.8532 30.8821 93.8359 13.5145 76.4469C-3.85331 59.058 -3.83582 30.8818 13.5529 13.5144C30.9421 -3.8532 59.1181 -3.83591 76.4855 13.553C93.8533 30.9422 93.8358 59.118 76.4469 76.4858ZM39.9735 14.6889C39.0035 14.6889 38.2169 15.4749 38.2169 16.4455V53.7641C38.2169 54.735 39.0036 55.5207 39.9735 55.5207H50.0263C50.9963 55.5207 51.783 54.7347 51.783 53.7641V16.4455C51.783 15.4749 50.9963 14.6889 50.0263 14.6889H39.9735ZM52.7879 67.5236C52.7879 63.2287 49.2945 59.7358 44.9999 59.7358C40.7055 59.7358 37.2119 63.2287 37.2119 67.5236C37.2119 71.8182 40.7051 75.3115 44.9999 75.3115C49.2948 75.3115 52.7879 71.8179 52.7879 67.5236Z" fill="#008A91" stroke="#008A91"/>
</svg>
