<svg width="30" height="26" viewBox="0 0 30 26" fill="none" xmlns="http://www.w3.org/2000/svg">
<path d="M8.32807 1.50648C8.43737 1.50608 8.43737 1.50608 8.54889 1.50568C8.74856 1.50511 8.9482 1.50518 9.14788 1.50554C9.3642 1.50577 9.58051 1.50516 9.79683 1.50466C10.2195 1.50383 10.6421 1.50378 11.0648 1.50404C11.4083 1.50423 11.7518 1.50416 12.0954 1.5039C12.1444 1.50387 12.1934 1.50383 12.2439 1.50379C12.3435 1.50372 12.4432 1.50364 12.5428 1.50357C13.4749 1.5029 14.407 1.50316 15.3391 1.50372C16.1915 1.50421 17.0438 1.50357 17.8961 1.50241C18.7725 1.50122 19.6489 1.50075 20.5254 1.50107C21.0169 1.50124 21.5085 1.50113 22 1.50028C22.4181 1.49956 22.8362 1.49953 23.2543 1.50038C23.4675 1.50079 23.6807 1.5009 23.8939 1.50015C24.1252 1.49935 24.3564 1.50007 24.5876 1.50093C24.6884 1.50023 24.6884 1.50023 24.7911 1.49951C25.2361 1.50294 25.5556 1.5552 25.8998 1.80769C25.9259 1.83539 25.9521 1.86308 25.979 1.89162C26.0195 1.93316 26.0195 1.93316 26.0609 1.97554C26.2375 2.18925 26.2669 2.35908 26.2652 2.6163C26.2654 2.65268 26.2657 2.68906 26.2659 2.72655C26.2665 2.84914 26.2663 2.97172 26.266 3.09432C26.2663 3.18283 26.2666 3.27133 26.267 3.35984C26.2678 3.6036 26.2679 3.84736 26.2679 4.09112C26.268 4.35381 26.2687 4.6165 26.2694 4.87918C26.2707 5.45382 26.2712 6.02845 26.2715 6.60309C26.2717 6.96177 26.2721 7.32044 26.2725 7.67912C26.2736 8.67184 26.2746 9.66456 26.2748 10.6573C26.2748 10.7208 26.2748 10.7844 26.2748 10.8499C26.2748 10.9787 26.2749 11.1076 26.2749 11.2364C26.2749 11.3004 26.2749 11.3643 26.2749 11.4302C26.2749 11.5263 26.2749 11.5263 26.2749 11.6243C26.2752 12.6622 26.2767 13.7001 26.2789 14.738C26.2812 15.8031 26.2823 16.8683 26.2823 17.9334C26.2823 18.5316 26.2828 19.1298 26.2845 19.7281C26.286 20.2374 26.2864 20.7468 26.2855 21.2561C26.2851 21.516 26.2852 21.776 26.2865 22.0359C26.2877 22.2739 26.2875 22.5118 26.2863 22.7497C26.2861 22.8358 26.2864 22.9219 26.2872 23.008C26.2948 23.8419 26.2948 23.8419 25.957 24.1328C25.7287 24.3255 25.4926 24.4597 25.1634 24.487C25.1101 24.487 25.0568 24.4871 25.0019 24.4872C24.9401 24.4875 24.8783 24.4878 24.8146 24.4881C24.7471 24.488 24.6795 24.4878 24.6099 24.4877C24.5379 24.4879 24.4659 24.4881 24.3916 24.4884C24.1918 24.4889 23.9919 24.4889 23.7921 24.4888C23.5765 24.4888 23.3609 24.4893 23.1453 24.4898C22.7227 24.4906 22.3002 24.4909 21.8776 24.4909C21.5338 24.491 21.19 24.4912 20.8463 24.4915C19.8706 24.4924 18.8949 24.4928 17.9192 24.4927C17.8666 24.4927 17.814 24.4927 17.7598 24.4927C17.6808 24.4927 17.6808 24.4927 17.6002 24.4927C16.7482 24.4927 15.8962 24.4936 15.0442 24.495C14.1684 24.4964 13.2926 24.4971 12.4168 24.497C11.9255 24.4969 11.4342 24.4972 10.9429 24.4983C10.5242 24.4992 10.1055 24.4994 9.68684 24.4987C9.47358 24.4984 9.26034 24.4984 9.04708 24.4992C7.56479 24.5048 6.30571 24.4108 5.15623 23.5469C5.11612 23.518 5.07601 23.4891 5.03469 23.4593C4.31764 22.9088 3.7987 22.0617 3.73898 21.2487C3.73455 21.07 3.7338 20.8916 3.73431 20.7129C3.73409 20.6437 3.73382 20.5746 3.7335 20.5054C3.73279 20.3163 3.7328 20.1272 3.73294 19.9381C3.73296 19.7338 3.73232 19.5295 3.73176 19.3252C3.73079 18.9252 3.73047 18.5253 3.7304 18.1253C3.73034 17.8 3.7301 17.4747 3.72973 17.1494C3.7287 16.2262 3.72816 15.303 3.72825 14.3798C3.72825 14.3301 3.72826 14.2804 3.72826 14.2291C3.72827 14.1793 3.72827 14.1296 3.72828 14.0782C3.72832 13.2717 3.7272 12.4652 3.72555 11.6587C3.72386 10.8296 3.72306 10.0006 3.72316 9.17153C3.7232 8.70645 3.72288 8.24138 3.72161 7.7763C3.72055 7.38024 3.72029 6.98419 3.72109 6.58813C3.72147 6.38629 3.72148 6.18447 3.72046 5.98264C3.71953 5.79739 3.71971 5.61216 3.72073 5.42691C3.72099 5.32917 3.72011 5.23143 3.71918 5.1337C3.7275 4.21167 4.12067 3.38339 4.86326 2.69728C4.89793 2.66386 4.9326 2.63044 4.96832 2.596C5.84122 1.80654 7.06994 1.50091 8.32807 1.50648ZM6.69065 4.19569C6.323 4.57695 6.2344 5.00539 6.24132 5.48251C6.24102 5.55977 6.24102 5.55977 6.24072 5.63858C6.24033 5.80967 6.24162 5.98072 6.2429 6.15181C6.24297 6.27504 6.24293 6.39827 6.2428 6.5215C6.24274 6.78604 6.2434 7.05057 6.24473 7.31511C6.24664 7.69758 6.24724 8.08004 6.24754 8.46251C6.24805 9.08317 6.24961 9.70382 6.25183 10.3245C6.25398 10.9271 6.25564 11.5297 6.25663 12.1323C6.2567 12.1695 6.25676 12.2067 6.25682 12.245C6.25713 12.4316 6.25742 12.6183 6.25771 12.8049C6.26014 14.351 6.26428 15.8972 6.26951 17.4434C6.3649 17.4231 6.3649 17.4231 6.46223 17.4024C6.54691 17.3845 6.6316 17.3666 6.71629 17.3488C6.75805 17.3399 6.79982 17.331 6.84286 17.3218C7.30717 17.2242 7.73621 17.1919 8.21479 17.1915C8.28097 17.1913 8.34715 17.191 8.41534 17.1908C8.6379 17.19 8.86045 17.1896 9.08301 17.1892C9.24497 17.1888 9.40693 17.1882 9.56889 17.1877C9.95895 17.1865 10.349 17.1856 10.7391 17.1847C11.1903 17.1837 11.6415 17.1824 12.0928 17.181C13.284 17.1777 14.4753 17.1747 15.6665 17.1718C18.3276 17.1647 20.9887 17.1577 23.7304 17.1504C23.7304 12.687 23.7304 8.22365 23.7304 3.62502C21.1624 3.623 18.5943 3.62099 15.9485 3.61891C15.1376 3.61802 14.3267 3.61713 13.4912 3.61622C12.7644 3.61589 12.7644 3.61589 12.0376 3.61569C11.7138 3.6156 11.3901 3.61525 11.0663 3.61471C10.6927 3.61408 10.319 3.6138 9.94535 3.61394C9.75433 3.614 9.56333 3.61385 9.37231 3.61337C9.16732 3.61289 8.96234 3.613 8.75735 3.61327C8.69837 3.61299 8.63939 3.6127 8.57863 3.61241C7.80406 3.61511 7.24069 3.72176 6.69065 4.19569ZM6.69065 19.8207C6.37901 20.1378 6.22311 20.5229 6.24731 20.9327C6.34279 21.4659 6.65094 21.8323 7.16306 22.1492C7.64383 22.3943 8.2087 22.3894 8.75735 22.3868C8.854 22.3869 8.854 22.3869 8.95261 22.387C9.16681 22.3872 9.381 22.3866 9.5952 22.3861C9.74943 22.3861 9.90366 22.3861 10.0579 22.3861C10.389 22.3862 10.7202 22.3859 11.0514 22.3853C11.5302 22.3845 12.0089 22.3843 12.4877 22.3842C13.2647 22.384 14.0416 22.3833 14.8186 22.3824C15.573 22.3815 16.3274 22.3808 17.0818 22.3804C17.1283 22.3804 17.1749 22.3803 17.2229 22.3803C17.4565 22.3802 17.6901 22.3801 17.9237 22.3799C19.8593 22.3789 21.7949 22.3771 23.7304 22.375C23.7304 21.3438 23.7304 20.3125 23.7304 19.25C21.7484 19.2479 19.7663 19.2461 17.7843 19.245C17.5501 19.2449 17.316 19.2448 17.0818 19.2446C17.0352 19.2446 16.9886 19.2446 16.9405 19.2446C16.1864 19.2441 15.4322 19.2434 14.6781 19.2425C13.9039 19.2416 13.1297 19.241 12.3555 19.2408C11.878 19.2407 11.4005 19.2403 10.9231 19.2395C10.5953 19.239 10.2676 19.2388 9.93989 19.2389C9.75101 19.239 9.56213 19.2388 9.37325 19.2384C9.16794 19.2379 8.96265 19.238 8.75735 19.2383C8.69835 19.238 8.63936 19.2377 8.57858 19.2374C7.80403 19.2401 7.24067 19.3468 6.69065 19.8207Z" fill="black"/>
</svg>
