<svg width="25" height="26" viewBox="0 0 25 26" fill="none" xmlns="http://www.w3.org/2000/svg">
<g clip-path="url(#clip0_885_1385)">
<path d="M0.5 3.625C0.5 1.55664 1.84531 -0.125 3.5 -0.125H21.5C23.1547 -0.125 24.5 1.55664 24.5 3.625V18.625H21.5V3.625H3.5V18.625H0.5V3.625ZM-2.5 21.625C-2.5 21.0039 -2.09687 20.5 -1.6 20.5H26.6C27.0969 20.5 27.5 21.0039 27.5 21.625C27.5 24.1094 25.8875 26.125 23.9 26.125H1.1C-0.8875 26.125 -2.5 24.1094 -2.5 21.625ZM10.6719 10.2461L9.21875 12.0625L10.6719 13.8789C11.1125 14.4297 11.1125 15.3203 10.6719 15.8652C10.2312 16.4102 9.51875 16.416 9.08281 15.8652L6.83281 13.0527C6.39219 12.502 6.39219 11.6113 6.83281 11.0664L9.08281 8.25391C9.52344 7.70312 10.2359 7.70312 10.6719 8.25391C11.1078 8.80469 11.1125 9.69531 10.6719 10.2402V10.2461ZM15.9219 8.25391L18.1719 11.0664C18.6125 11.6172 18.6125 12.5078 18.1719 13.0527L15.9219 15.8652C15.4813 16.416 14.7688 16.416 14.3328 15.8652C13.8969 15.3145 13.8922 14.4238 14.3328 13.8789L15.7859 12.0625L14.3328 10.2461C13.8922 9.69531 13.8922 8.80469 14.3328 8.25977C14.7734 7.71484 15.4859 7.70898 15.9219 8.25977V8.25391Z" fill="black"/>
</g>
<defs>
<clipPath id="clip0_885_1385">
<rect width="30" height="30" fill="white" transform="translate(-2.5 -2)"/>
</clipPath>
</defs>
</svg>
