<svg width="30" height="28" viewBox="0 0 30 28" fill="none" xmlns="http://www.w3.org/2000/svg">
<g clip-path="url(#clip0_885_1376)">
<path d="M8.16281 1.22599C8.3234 1.22488 8.48399 1.22377 8.64945 1.22263C9.08753 1.21998 9.5256 1.21853 9.96369 1.21785C10.2385 1.21737 10.5134 1.21653 10.7882 1.21559C11.7503 1.21233 12.7123 1.21058 13.6744 1.21011C14.5657 1.20963 15.4569 1.20565 16.3482 1.20006C17.1176 1.1954 17.8869 1.19337 18.6563 1.19328C19.1139 1.19317 19.5715 1.19205 20.0291 1.18821C24.7952 1.15454 24.7952 1.15454 26.6667 2.73351C26.7594 2.81 26.852 2.88648 26.9475 2.96528C27.7094 3.65574 28.1391 4.45843 28.5334 5.40018C28.58 5.51011 28.6266 5.62004 28.6747 5.7333C28.8483 6.37997 28.8383 6.99413 28.8367 7.66092C28.8374 7.80672 28.838 7.95253 28.8387 8.10274C28.8406 8.58419 28.8405 9.06561 28.8402 9.54706C28.8407 9.88287 28.8413 10.2187 28.8419 10.5545C28.8429 11.2586 28.8429 11.9627 28.8421 12.6668C28.8413 13.477 28.843 14.2872 28.8458 15.0975C28.8485 15.8804 28.8489 16.6634 28.8484 17.4464C28.8485 17.7777 28.8492 18.1091 28.8505 18.4405C28.8522 18.9057 28.8512 19.3708 28.8497 19.8359C28.8507 19.971 28.8517 20.1062 28.8528 20.2454C28.839 22.1521 28.2583 23.633 26.9751 25.0418C25.5242 26.4087 23.5874 26.7958 21.6623 26.7853C21.5021 26.786 21.3419 26.7867 21.1769 26.7874C20.7418 26.7888 20.3069 26.7885 19.8719 26.7872C19.4137 26.7862 18.9555 26.7872 18.4974 26.7878C17.7282 26.7885 16.959 26.7876 16.1899 26.7857C15.3045 26.7835 14.4193 26.7842 13.534 26.7864C12.7698 26.7882 12.0057 26.7885 11.2415 26.7874C10.7869 26.7868 10.3323 26.7867 9.87766 26.788C9.37009 26.7891 8.86259 26.7875 8.35503 26.7853C8.20724 26.7861 8.05946 26.7869 7.90719 26.7877C6.01754 26.7725 4.3334 26.2764 2.95005 24.9502C1.8544 23.7802 1.18739 22.3952 1.18133 20.7689C1.18057 20.6458 1.1798 20.5226 1.17902 20.3958C1.17887 20.2623 1.17872 20.1288 1.17857 19.9913C1.17791 19.8494 1.17724 19.7075 1.17656 19.5614C1.17462 19.0922 1.17371 18.623 1.17297 18.1538C1.1722 17.8268 1.17143 17.4998 1.17067 17.1727C1.16927 16.4867 1.16849 15.8006 1.16802 15.1145C1.16729 14.2384 1.16409 13.3622 1.16029 12.4861C1.1578 11.8102 1.15711 11.1342 1.15691 10.4583C1.15651 10.1355 1.15544 9.81268 1.15369 9.48987C1.15139 9.03651 1.15167 8.58321 1.15253 8.12984C1.1513 7.99824 1.15007 7.86665 1.1488 7.73107C1.15966 5.89319 1.69538 4.40412 2.93339 3.04185C4.40045 1.64181 6.20041 1.22715 8.16281 1.22599ZM3.28611 4.69512C2.58047 5.67631 2.45505 6.69244 2.46438 7.87127C2.46344 8.01888 2.46251 8.16649 2.46154 8.31857C2.45921 8.80275 2.46075 9.28683 2.46255 9.77102C2.46219 10.1097 2.46168 10.4484 2.46101 10.787C2.46022 11.4954 2.46131 12.2037 2.46386 12.912C2.46676 13.7277 2.46582 14.5433 2.46288 15.3591C2.46016 16.1479 2.46046 16.9367 2.46202 17.7255C2.46237 18.0593 2.46194 18.3931 2.4607 18.727C2.45933 19.1944 2.46142 19.6617 2.46438 20.1291C2.4633 20.2656 2.46222 20.4021 2.4611 20.5427C2.47801 21.9918 2.95542 23.0017 3.95214 24.0408C5.19916 25.2011 6.53791 25.4606 8.20077 25.4541C8.44524 25.4554 8.44524 25.4554 8.69465 25.4568C9.13849 25.4588 9.58225 25.4591 10.0261 25.4583C10.3982 25.4579 10.7702 25.4587 11.1423 25.4595C12.0209 25.4614 12.8994 25.4612 13.778 25.4597C14.6809 25.4581 15.5838 25.46 16.4867 25.4636C17.2651 25.4665 18.0435 25.4674 18.8219 25.4666C19.2854 25.4662 19.7489 25.4665 20.2123 25.4688C20.7299 25.4713 21.2473 25.4694 21.7648 25.4671C21.916 25.4684 22.0672 25.4697 22.223 25.471C23.7894 25.4566 25.0487 24.9772 26.2084 23.9168C26.9493 23.1578 27.4809 22.1133 27.4863 21.0456C27.4873 20.918 27.4883 20.7903 27.4892 20.6588C27.4896 20.519 27.49 20.3791 27.4903 20.235C27.4916 20.0138 27.4916 20.0138 27.493 19.7882C27.4956 19.2989 27.4972 18.8097 27.4985 18.3205C27.499 18.1534 27.4996 17.9862 27.5001 17.814C27.5026 17.0202 27.5046 16.2265 27.5057 15.4327C27.507 14.5188 27.5105 13.6049 27.5159 12.6911C27.5204 11.8978 27.522 11.1045 27.5225 10.3112C27.5232 9.9748 27.5247 9.63836 27.5272 9.30193C27.5304 8.82995 27.5303 8.35808 27.5294 7.88609C27.5311 7.74813 27.5328 7.61017 27.5346 7.46804C27.5242 6.01257 27.049 5.00314 26.048 3.95956C24.8009 2.79924 23.4622 2.53973 21.7993 2.54631C21.6364 2.54539 21.4734 2.54448 21.3055 2.54353C20.8616 2.54152 20.4179 2.5413 19.974 2.54206C19.602 2.54247 19.2299 2.54166 18.8578 2.54085C17.9792 2.53899 17.1007 2.53919 16.2221 2.54071C15.3192 2.54224 14.4163 2.54036 13.5134 2.53679C12.735 2.53382 11.9566 2.53295 11.1782 2.53373C10.7147 2.53418 10.2513 2.53387 9.78776 2.53157C9.27025 2.5291 8.75279 2.53101 8.23527 2.53329C8.08409 2.532 7.93291 2.53071 7.77715 2.52938C5.91583 2.54648 4.46337 3.25557 3.28611 4.69512Z" fill="#080808"/>
<path d="M15.8667 8.6001C17.3334 8.6001 17.3334 8.6001 17.7906 9.03724C17.9236 9.23761 18.0512 9.44172 18.174 9.64854C18.2801 9.81265 18.2801 9.81265 18.3884 9.98008C18.6139 10.3311 18.832 10.6861 19.05 11.0418C19.1952 11.2712 19.3409 11.5002 19.487 11.729C19.6974 12.0584 19.9071 12.3879 20.1127 12.7203C20.8799 13.9554 21.7089 15.1285 22.5334 16.3334C22.5774 13.7814 22.6214 11.2294 22.6667 8.6001C23.1067 8.6001 23.5467 8.6001 24 8.6001C24 11.9881 24 15.3761 24 18.8668C22.5334 18.8668 22.5334 18.8668 22.0331 18.3722C21.8806 18.1459 21.7335 17.9158 21.5912 17.6829C21.5106 17.5604 21.43 17.4379 21.347 17.3117C21.0903 16.9191 20.841 16.5224 20.5917 16.1251C20.4239 15.8655 20.2555 15.6062 20.0868 15.3472C19.7715 14.8622 19.4592 14.3755 19.1497 13.8868C18.5563 12.9612 17.9433 12.0483 17.3334 11.1334C17.2894 13.6854 17.2454 16.2374 17.2 18.8668C16.76 18.8668 16.32 18.8668 15.8667 18.8668C15.8667 15.4788 15.8667 12.0908 15.8667 8.6001Z" fill="#040404"/>
<path d="M6.26672 8.6001C8.73072 8.6001 11.1947 8.6001 13.7334 8.6001C13.7334 8.9961 13.7334 9.3921 13.7334 9.8001C11.7094 9.8001 9.68539 9.8001 7.60006 9.8001C7.60006 10.8561 7.60006 11.9121 7.60006 13.0001C9.49206 13.0001 11.3841 13.0001 13.3334 13.0001C13.3334 13.3961 13.3334 13.7921 13.3334 14.2001C11.4414 14.2001 9.54939 14.2001 7.60006 14.2001C7.60006 15.3441 7.60006 16.4881 7.60006 17.6668C9.71206 17.6668 11.8241 17.6668 14.0001 17.6668C14.0001 18.0628 14.0001 18.4588 14.0001 18.8668C11.4481 18.8668 8.89606 18.8668 6.26672 18.8668C6.26672 15.4788 6.26672 12.0908 6.26672 8.6001Z" fill="#020202"/>
</g>
<defs>
<clipPath id="clip0_885_1376">
<rect width="30" height="30" fill="white" transform="translate(0 -1)"/>
</clipPath>
</defs>
</svg>
