<svg width="25" height="30" viewBox="0 0 25 30" fill="none" xmlns="http://www.w3.org/2000/svg">
<g clip-path="url(#clip0_885_1367)">
<path d="M9.88095 16.875C11.6095 16.875 13.3381 16.875 15.119 16.875C14.948 17.3239 14.8118 17.6377 14.5671 18.0278C14.4788 18.1754 14.4788 18.1754 14.3887 18.3259C14.2665 18.5288 14.1419 18.73 14.0148 18.9294C13.3668 20.0337 13.5916 20.9756 13.8635 22.186C13.9338 22.4707 14.0051 22.755 14.0774 23.0391C14.463 24.6017 14.805 26.1699 15.119 27.75C15.3722 27.288 15.4814 26.7943 15.6008 26.2812C15.6239 26.1842 15.647 26.0872 15.6707 25.9873C15.7467 25.6673 15.8219 25.3471 15.897 25.0269C15.9497 24.8043 16.0025 24.5817 16.0553 24.3591C16.1941 23.7735 16.3323 23.1877 16.4703 22.6019C16.6914 21.6637 16.9136 20.7259 17.1356 19.7879C17.2132 19.4601 17.2905 19.1322 17.3677 18.8043C17.4151 18.6037 17.4624 18.4032 17.5098 18.2026C17.542 18.0655 17.542 18.0655 17.5748 17.9257C17.6589 17.5705 17.7468 17.2224 17.8571 16.875C20.1157 17.1351 21.9605 18.0542 23.4524 19.875C25.6505 22.8623 25 26.2802 25 30C16.75 30 8.5 30 0 30C0 21.6341 0 21.6341 2.27679 19.0391C3.60595 17.6918 5.3143 16.9902 7.14286 17C7.7229 19.0997 8.21497 21.2235 8.71713 23.3448C8.83506 23.8427 8.95333 24.3405 9.07157 24.8384C9.302 25.8088 9.53207 26.7794 9.7619 27.75C9.80119 27.75 9.84048 27.75 9.88095 27.75C9.89885 27.6635 9.91675 27.5769 9.93519 27.4878C10.0208 27.0751 10.107 26.6625 10.1935 26.25C10.2252 26.0981 10.257 25.9462 10.2898 25.7898C10.5301 24.654 10.7915 23.5256 11.0813 22.4026C11.1662 22.0613 11.2412 21.7203 11.3095 21.375C11.3337 21.2534 11.3578 21.1319 11.3827 21.0066C11.5381 19.9266 11.2274 19.3093 10.6622 18.4219C10.5157 18.1809 10.3695 17.9397 10.2237 17.6982C10.1253 17.5417 10.1253 17.5417 10.0249 17.382C9.88095 17.125 9.88095 17.125 9.88095 16.875Z" fill="black"/>
<path d="M16.7449 1.40452C18.3178 2.73151 19.3029 4.40735 19.6428 6.49992C19.8193 8.50523 19.355 10.4822 18.2017 12.102C17.2238 13.2923 16.1799 14.1131 14.7619 14.6249C14.6539 14.6649 14.5458 14.7048 14.4345 14.746C12.7199 15.3112 10.8576 15.0241 9.2485 14.2343C8.47984 13.802 7.86747 13.2797 7.26189 12.6249C7.16176 12.5236 7.16176 12.5236 7.0596 12.4203C5.82908 11.074 5.29382 9.08907 5.30687 7.26795C5.37966 5.16345 6.22289 3.47106 7.61903 1.99992C7.68348 1.92934 7.74794 1.85876 7.81434 1.78605C10.1494 -0.554307 14.2193 -0.574101 16.7449 1.40452Z" fill="black"/>
<path d="M24.8809 27.5C24.9202 27.5 24.9595 27.5 24.9999 27.5C24.9999 28.325 24.9999 29.15 24.9999 30C24.2535 30 23.5071 30 22.738 30C22.8952 29.9175 23.0523 29.835 23.2142 29.75C24.171 29.1955 24.171 29.1955 24.7237 28.2383C24.7835 27.9941 24.833 27.7471 24.8809 27.5Z" fill="#F3F3F3"/>
<path d="M0 27.5C0.0392857 27.5 0.0785714 27.5 0.119048 27.5C0.137923 27.5725 0.156799 27.645 0.176246 27.7197C0.412283 28.5495 0.686334 29.0818 1.36905 29.6016C1.66955 29.7514 1.93353 29.8257 2.2619 29.875C2.2619 29.9162 2.2619 29.9575 2.2619 30C1.51548 30 0.769048 30 0 30C0 29.175 0 28.35 0 27.5Z" fill="#F4F4F4"/>
</g>
<defs>
<clipPath id="clip0_885_1367">
<rect width="25" height="30" fill="white"/>
</clipPath>
</defs>
</svg>
