<svg width="30" height="26" viewBox="0 0 30 26" fill="none" xmlns="http://www.w3.org/2000/svg">
<path d="M15.7218 3.75915C16.0574 3.96788 16.2003 4.22233 16.289 4.5528C16.3137 4.78334 16.3127 5.01272 16.3113 5.24407C16.3115 5.31382 16.3118 5.38357 16.3122 5.45332C16.3129 5.64411 16.3125 5.83489 16.312 6.02567C16.3116 6.23177 16.3122 6.43787 16.3127 6.64397C16.3135 7.04737 16.3133 7.45076 16.3128 7.85416C16.3124 8.18207 16.3123 8.50997 16.3125 8.83787C16.3126 8.88458 16.3126 8.93128 16.3126 8.9794C16.3127 9.07428 16.3127 9.16916 16.3128 9.26403C16.3133 10.1533 16.3127 11.0426 16.3118 11.9319C16.311 12.6947 16.3111 13.4574 16.3119 14.2202C16.3129 15.1064 16.3132 15.9925 16.3127 16.8787C16.3126 16.9732 16.3126 17.0677 16.3125 17.1622C16.3125 17.2088 16.3125 17.2553 16.3124 17.3032C16.3123 17.6306 16.3126 17.9581 16.313 18.2855C16.3135 18.6846 16.3133 19.0838 16.3124 19.4829C16.3119 19.6865 16.3117 19.8901 16.3123 20.0936C16.3129 20.2801 16.3126 20.4666 16.3116 20.6531C16.3113 20.7522 16.3119 20.8514 16.3125 20.9505C16.3089 21.4145 16.2536 21.8118 15.8583 22.1582C15.5451 22.3864 15.2228 22.4017 14.8205 22.392C14.4746 22.3579 14.2634 22.2465 14.0148 22.0485C13.6907 21.6395 13.6856 21.2358 13.6886 20.7561C13.6884 20.6863 13.6881 20.6165 13.6877 20.5468C13.687 20.356 13.6874 20.1652 13.6879 19.9744C13.6883 19.7683 13.6877 19.5623 13.6872 19.3562C13.6864 18.9528 13.6866 18.5494 13.6871 18.146C13.6875 17.8181 13.6876 17.4902 13.6874 17.1622C13.6873 17.1155 13.6873 17.0688 13.6873 17.0207C13.6872 16.9258 13.6872 16.831 13.6871 16.7361C13.6866 15.8468 13.6872 14.9575 13.6881 14.0682C13.6889 13.3054 13.6888 12.5427 13.688 11.7799C13.687 10.8938 13.6867 10.0076 13.6872 9.12146C13.6873 9.02693 13.6873 8.9324 13.6874 8.83787C13.6874 8.79137 13.6874 8.74486 13.6874 8.69694C13.6876 8.3695 13.6873 8.04207 13.6869 7.71462C13.6864 7.31548 13.6866 6.91635 13.6875 6.51721C13.688 6.31363 13.6881 6.11006 13.6876 5.90649C13.687 5.71999 13.6873 5.5335 13.6883 5.34701C13.6886 5.24789 13.688 5.14877 13.6874 5.04965C13.691 4.5856 13.7462 4.1883 14.1416 3.84193C14.5675 3.53165 15.2437 3.52191 15.7218 3.75915Z" fill="black"/>
<path d="M23.2219 10.0091C23.5595 10.2192 23.6902 10.4739 23.7891 10.8028C23.8114 10.9546 23.8129 11.104 23.8114 11.2568C23.8118 11.3221 23.8118 11.3221 23.8122 11.3887C23.8129 11.5334 23.8124 11.6781 23.8118 11.8228C23.8121 11.9271 23.8124 12.0313 23.8128 12.1355C23.8136 12.4178 23.8133 12.7 23.8127 12.9823C23.8122 13.2781 23.8127 13.5739 23.8129 13.8697C23.8133 14.3663 23.8128 14.863 23.812 15.3596C23.811 15.9334 23.8114 16.5071 23.8123 17.0808C23.8131 17.5739 23.8132 18.067 23.8128 18.5601C23.8125 18.8544 23.8125 19.1487 23.813 19.443C23.8135 19.7197 23.8132 19.9964 23.8122 20.2731C23.8119 20.3745 23.812 20.4758 23.8124 20.5772C23.8129 20.7159 23.8123 20.8546 23.8114 20.9933C23.812 21.0531 23.812 21.0531 23.8126 21.114C23.8078 21.5111 23.6911 21.8667 23.3583 22.1582C23.0452 22.3864 22.7228 22.4017 22.3206 22.392C21.9746 22.3579 21.7635 22.2465 21.5149 22.0485C21.2515 21.7161 21.1848 21.3857 21.1886 20.9933C21.1884 20.9498 21.1881 20.9063 21.1878 20.8614C21.1871 20.7167 21.1877 20.572 21.1882 20.4273C21.188 20.3231 21.1877 20.2188 21.1873 20.1146C21.1865 19.8323 21.1868 19.5501 21.1873 19.2678C21.1878 18.972 21.1874 18.6762 21.1871 18.3805C21.1868 17.8838 21.1872 17.3871 21.188 16.8905C21.189 16.3168 21.1887 15.743 21.1877 15.1693C21.1869 14.6762 21.1868 14.1831 21.1873 13.69C21.1875 13.3957 21.1876 13.1014 21.187 12.8072C21.1865 12.5304 21.1868 12.2538 21.1879 11.9771C21.1881 11.8757 21.188 11.7743 21.1876 11.6729C21.1872 11.5342 21.1878 11.3955 21.1886 11.2568C21.1882 11.217 21.1879 11.1771 21.1874 11.1361C21.1923 10.739 21.3089 10.3834 21.6417 10.0919C22.0675 9.78165 22.7438 9.77191 23.2219 10.0091Z" fill="black"/>
<path d="M8.36059 14.2576C8.64704 14.4898 8.77712 14.7515 8.79676 15.0836C8.79693 15.1307 8.7971 15.1778 8.79728 15.2263C8.79762 15.2807 8.79795 15.335 8.7983 15.391C8.79836 15.4501 8.79843 15.5093 8.7985 15.5702C8.79893 15.6643 8.79893 15.6643 8.79938 15.7602C8.80015 15.9318 8.80052 16.1034 8.80079 16.275C8.80096 16.3824 8.8012 16.4897 8.80146 16.5971C8.80226 16.9335 8.80283 17.2699 8.80305 17.6063C8.80332 17.9938 8.80434 18.3813 8.80604 18.7687C8.80731 19.0688 8.8079 19.3689 8.80798 19.669C8.80804 19.8479 8.80838 20.0269 8.80943 20.2058C8.81058 20.4057 8.81032 20.6055 8.80994 20.8053C8.81075 20.8935 8.81075 20.8935 8.81158 20.9834C8.80889 21.4348 8.74197 21.8223 8.3583 22.1584C8.04515 22.3866 7.7228 22.4019 7.32055 22.3922C6.97461 22.3581 6.76349 22.2467 6.51489 22.0487C6.2033 21.6555 6.18538 21.27 6.18819 20.8084C6.18788 20.7457 6.18757 20.6831 6.18725 20.6185C6.18646 20.4477 6.18676 20.2769 6.18732 20.1061C6.18777 19.9266 6.18735 19.7471 6.18707 19.5677C6.18676 19.2664 6.18717 18.9652 6.18801 18.6639C6.18897 18.3165 6.18866 17.9691 6.18769 17.6217C6.18689 17.3225 6.18678 17.0232 6.18724 16.724C6.18752 16.5457 6.18756 16.3674 6.18697 16.1891C6.18637 15.9902 6.18721 15.7913 6.18819 15.5924C6.18783 15.534 6.18747 15.4755 6.18711 15.4153C6.19101 14.9856 6.24067 14.5868 6.62109 14.2698C7.18233 13.919 7.78339 13.9444 8.36059 14.2576Z" fill="black"/>
</svg>
