<svg width="15" height="15" viewBox="0 0 15 15" fill="none" xmlns="http://www.w3.org/2000/svg">
<g clip-path="url(#clip0_2138_869)">
<path d="M14.375 2.50047V6.25047M14.375 6.25047H10.625M14.375 6.25047L11.475 3.52547C10.8033 2.85342 9.97227 2.36248 9.05949 2.09846C8.14672 1.83444 7.18194 1.80594 6.25518 2.01564C5.32842 2.22533 4.46988 2.66637 3.75967 3.29761C3.04946 3.92885 2.51073 4.72972 2.19375 5.62547M0.625 12.5005V8.75047M0.625 8.75047H4.375M0.625 8.75047L3.525 11.4755C4.19672 12.1475 5.02773 12.6385 5.94051 12.9025C6.85328 13.1665 7.81806 13.195 8.74482 12.9853C9.67158 12.7756 10.5301 12.3346 11.2403 11.7033C11.9505 11.0721 12.4893 10.2712 12.8062 9.37547" stroke="#565656" stroke-width="2" stroke-linecap="round" stroke-linejoin="round"/>
</g>
<defs>
<clipPath id="clip0_2138_869">
<rect width="15" height="15" fill="white"/>
</clipPath>
</defs>
</svg>
