<svg width="16" height="16" viewBox="0 0 16 16" fill="none" xmlns="http://www.w3.org/2000/svg">
<path d="M13.7787 10.1973V13.8522H2.22132V10.1973H0V14.9266C0 15.5196 0.496569 16.0005 1.11231 16.0005H14.8877C15.5029 16.0005 16 15.5201 16 14.9266V10.1973H13.7787Z" fill="white"/>
<path d="M7.79678 9.83441L4.61654 6.11702C4.61654 6.11702 4.13266 5.6751 4.65737 5.6751C5.18207 5.6751 6.44943 5.6751 6.44943 5.6751C6.44943 5.6751 6.44943 5.37781 6.44943 4.91934C6.44943 3.61225 6.44943 1.23344 6.44943 0.26366C6.44943 0.26366 6.37825 0 6.78875 0C7.20256 0 9.01503 0 9.31132 0C9.60705 0 9.60043 0.222029 9.60043 0.222029C9.60043 1.16245 9.60043 3.62346 9.60043 4.88785C9.60043 5.29775 9.60043 5.56355 9.60043 5.56355C9.60043 5.56355 10.6167 5.56355 11.2546 5.56355C11.8913 5.56355 11.4118 6.02629 11.4118 6.02629C11.4118 6.02629 8.70606 9.50083 8.32867 9.86537C8.05721 10.1296 7.79678 9.83441 7.79678 9.83441Z" fill="white"/>
</svg>
