<svg width="37" height="37" viewBox="0 0 37 37" fill="none" xmlns="http://www.w3.org/2000/svg">
<path d="M8.10675 14.8193C8.36955 14.9633 8.56846 15.1691 8.78031 15.3744C8.8221 15.4146 8.86391 15.4547 8.90573 15.4949C9.02029 15.605 9.13457 15.7153 9.24881 15.8257C9.37217 15.9448 9.49578 16.0637 9.61936 16.1826C9.83334 16.3885 10.0472 16.5946 10.2609 16.8008C10.5698 17.0989 10.8791 17.3968 11.1883 17.6946C11.6901 18.1778 12.1917 18.6612 12.6932 19.1448C13.1803 19.6144 13.6675 20.084 14.1548 20.5535C14.1849 20.5824 14.2149 20.6114 14.2459 20.6412C14.3966 20.7864 14.5473 20.9316 14.6981 21.0768C15.9483 22.2811 17.1982 23.4858 18.4478 24.6906C18.5929 24.6299 18.6878 24.5532 18.7992 24.4457C18.8345 24.4118 18.8699 24.3779 18.9063 24.343C18.9449 24.3055 18.9835 24.268 19.0233 24.2294C19.0649 24.1894 19.1065 24.1493 19.1481 24.1093C19.2625 23.9992 19.3767 23.8888 19.4908 23.7784C19.6139 23.6594 19.7372 23.5406 19.8605 23.4219C20.0741 23.216 20.2876 23.0099 20.501 22.8038C20.8096 22.5056 21.1186 22.2077 21.4276 21.9099C21.9291 21.4265 22.4305 20.943 22.9317 20.4593C22.9618 20.4304 22.9918 20.4014 23.0227 20.3716C23.2357 20.166 23.4487 19.9605 23.6617 19.755C23.905 19.5202 24.1483 19.2854 24.3916 19.0506C24.4216 19.0217 24.4515 18.9928 24.4824 18.963C24.9818 18.4812 25.4813 17.9995 25.9809 17.5179C26.2892 17.2208 26.5974 16.9235 26.9053 16.626C27.1163 16.4222 27.3274 16.2186 27.5386 16.0151C27.6605 15.8976 27.7824 15.7801 27.904 15.6623C28.0154 15.5546 28.1269 15.4471 28.2386 15.3397C28.2982 15.2823 28.3576 15.2246 28.417 15.167C28.4524 15.133 28.4877 15.0991 28.5241 15.0642C28.5546 15.0348 28.5851 15.0054 28.6165 14.9751C28.7804 14.8368 28.913 14.8006 29.1337 14.8058C29.2785 14.828 29.3706 14.8971 29.4812 14.9859C29.5734 15.1191 29.585 15.1713 29.5921 15.3269C29.5948 15.3645 29.5976 15.402 29.6004 15.4406C29.5136 15.7822 29.0935 16.0733 28.8426 16.3146C28.8004 16.3554 28.7582 16.3961 28.716 16.4369C28.6008 16.548 28.4856 16.6591 28.3703 16.7701C28.2456 16.8902 28.1211 17.0103 27.9966 17.1305C27.7248 17.3927 27.4528 17.6548 27.1808 17.9168C27.0109 18.0805 26.841 18.2441 26.6712 18.4078C26.2006 18.8613 25.73 19.3147 25.2593 19.768C25.2142 19.8115 25.2142 19.8115 25.1682 19.8558C25.138 19.8848 25.1079 19.9138 25.0768 19.9437C25.0157 20.0026 24.9547 20.0614 24.8936 20.1202C24.8481 20.164 24.8481 20.164 24.8018 20.2086C24.3101 20.682 23.8188 21.1557 23.3275 21.6296C22.8229 22.1164 22.318 22.6029 21.8129 23.0892C21.5294 23.3621 21.246 23.6352 20.9629 23.9085C20.722 24.141 20.4809 24.3733 20.2395 24.6053C20.1164 24.7237 19.9933 24.8422 19.8706 24.9609C19.7582 25.0696 19.6455 25.178 19.5326 25.2862C19.4725 25.344 19.4127 25.402 19.353 25.4601C19.0746 25.7259 18.8694 25.8743 18.4702 25.9008C17.9478 25.8898 17.5799 25.4023 17.24 25.0743C17.1976 25.0336 17.1553 24.9928 17.1129 24.9521C16.9972 24.8409 16.8817 24.7297 16.7662 24.6183C16.6413 24.498 16.5163 24.3778 16.3913 24.2576C16.1468 24.0225 15.9025 23.7873 15.6582 23.552C15.4598 23.3609 15.2613 23.1698 15.0628 22.9787C15.0345 22.9515 15.0062 22.9243 14.9771 22.8962C14.9196 22.8409 14.8622 22.7856 14.8047 22.7304C14.2666 22.2125 13.7286 21.6944 13.1906 21.1764C12.7288 20.7316 12.2668 20.2869 11.8047 19.8423C11.268 19.3259 10.7314 18.8094 10.1949 18.2928C10.1377 18.2378 10.0806 18.1828 10.0235 18.1277C9.99534 18.1007 9.96722 18.0736 9.93825 18.0457C9.73981 17.8546 9.54132 17.6636 9.34281 17.4726C9.1012 17.2402 8.85967 17.0076 8.61824 16.775C8.49499 16.6562 8.3717 16.5375 8.24833 16.4189C8.13554 16.3105 8.02286 16.2019 7.91025 16.0933C7.84989 16.0351 7.78943 15.9771 7.72896 15.919C7.69352 15.8848 7.65807 15.8505 7.62156 15.8153C7.57533 15.7708 7.57533 15.7708 7.52818 15.7254C7.38176 15.5736 7.40023 15.4223 7.40212 15.2234C7.41877 15.0715 7.4681 15.0016 7.58753 14.9026C7.73703 14.7947 7.92734 14.783 8.10675 14.8193Z" fill="#565656"/>
<path d="M11.7742 12.9865C11.8437 13.0339 11.8437 13.0339 11.9133 13.0935C11.9516 13.1263 11.9516 13.1263 11.9908 13.1598C12.1111 13.2664 12.2291 13.375 12.3458 13.4851C12.3721 13.5099 12.3984 13.5346 12.4256 13.5601C12.513 13.6422 12.6004 13.7245 12.6877 13.8068C12.7507 13.866 12.8137 13.9252 12.8767 13.9844C13.0119 14.1115 13.147 14.2386 13.2821 14.3658C13.4774 14.5497 13.6728 14.7335 13.8683 14.9173C14.1855 15.2155 14.5025 15.5138 14.8196 15.8121C15.1274 16.1018 15.4352 16.3914 15.7431 16.681C15.7622 16.6988 15.7812 16.7167 15.8007 16.7351C15.8961 16.8248 15.9914 16.9145 16.0868 17.0042C16.8768 17.7472 17.6667 18.4903 18.4565 19.2335C18.564 19.1878 18.64 19.1386 18.723 19.0602C18.746 19.0387 18.7689 19.0172 18.7926 18.9951C18.8174 18.9714 18.8423 18.9477 18.8679 18.9234C18.8946 18.8983 18.9213 18.8732 18.9488 18.8473C19.0384 18.763 19.1277 18.6784 19.2171 18.5937C19.2812 18.5333 19.3453 18.4729 19.4094 18.4125C19.5476 18.2823 19.6857 18.1519 19.8237 18.0215C20.0233 17.8328 20.2232 17.6444 20.4232 17.456C20.7478 17.1502 21.0723 16.8443 21.3967 16.5383C21.4161 16.52 21.4355 16.5016 21.4555 16.4828C21.6721 16.2784 21.8887 16.074 22.1052 15.8696C22.1838 15.7955 22.2623 15.7213 22.3408 15.6472C22.3699 15.6197 22.3699 15.6197 22.3996 15.5918C22.7226 15.2868 23.0459 14.9821 23.3693 14.6775C23.5688 14.4896 23.7682 14.3015 23.9672 14.1132C24.1197 13.969 24.2725 13.8251 24.4254 13.6812C24.4882 13.6221 24.5508 13.563 24.6133 13.5037C24.6985 13.4229 24.7841 13.3425 24.8697 13.2621C24.9069 13.2266 24.9069 13.2266 24.9448 13.1904C25.1605 12.9892 25.1605 12.9892 25.3225 12.952C25.5622 12.9556 25.6677 13.0004 25.8365 13.1591C25.8795 13.2398 25.8856 13.2976 25.8916 13.3877C25.8942 13.4159 25.8969 13.4441 25.8996 13.4732C25.8321 13.729 25.5196 13.9452 25.3254 14.1273C25.2972 14.1539 25.269 14.1805 25.24 14.2078C25.1462 14.2962 25.0524 14.3844 24.9585 14.4726C24.891 14.5362 24.8235 14.5997 24.756 14.6633C24.5922 14.8176 24.4282 14.9718 24.2642 15.126C24.131 15.2512 23.9978 15.3765 23.8646 15.5018C23.4869 15.8572 23.109 16.2126 22.731 16.5678C22.7107 16.5869 22.6904 16.606 22.6694 16.6257C22.6491 16.6449 22.6287 16.664 22.6077 16.6837C22.277 16.9946 21.9466 17.3056 21.6161 17.6166C21.2767 17.9362 20.9371 18.2557 20.5973 18.575C20.4067 18.7542 20.2161 18.9335 20.0256 19.1129C19.8468 19.2814 19.6677 19.4496 19.4886 19.6178C19.4227 19.6797 19.3569 19.7416 19.2912 19.8036C19.2018 19.8879 19.1121 19.972 19.0224 20.0561C18.9962 20.0809 18.97 20.1057 18.943 20.1313C18.919 20.1537 18.895 20.1761 18.8703 20.1991C18.8393 20.2283 18.8393 20.2283 18.8077 20.258C18.6929 20.3487 18.5689 20.3439 18.4247 20.3492C18.193 20.3157 18.0317 20.1207 17.8747 19.9721C17.846 19.9451 17.8172 19.9182 17.7876 19.8904C17.6911 19.8 17.595 19.7093 17.4988 19.6186C17.4297 19.5537 17.3607 19.4888 17.2916 19.424C17.1235 19.2661 16.9555 19.1081 16.7877 18.95C16.5923 18.7659 16.3967 18.5821 16.201 18.3982C15.8521 18.0702 15.5034 17.7421 15.1548 17.4139C14.8163 17.0952 14.4776 16.7767 14.1389 16.4582C14.1076 16.4288 14.1076 16.4288 14.0756 16.3988C14.0548 16.3792 14.0339 16.3596 14.0124 16.3394C13.627 15.9771 13.2416 15.6146 12.8563 15.2521C12.7199 15.1238 12.5834 14.9955 12.447 14.8672C12.2809 14.711 12.1148 14.5548 11.9488 14.3985C11.8641 14.3187 11.7793 14.2389 11.6945 14.1592C11.6027 14.0729 11.511 13.9865 11.4194 13.9001C11.3923 13.8748 11.3653 13.8494 11.3374 13.8232C11.313 13.8002 11.2886 13.7772 11.2635 13.7534C11.2423 13.7335 11.2211 13.7135 11.1993 13.693C11.0893 13.5798 11.0989 13.4628 11.1005 13.316C11.1216 13.1708 11.1811 13.1178 11.2969 13.021C11.4487 12.9323 11.6074 12.9319 11.7742 12.9865Z" fill="#565656"/>
</svg>
