<svg width="37" height="37" viewBox="0 0 37 37" fill="none" xmlns="http://www.w3.org/2000/svg">
<path d="M8.10675 22.1807C8.36955 22.0367 8.56846 21.8309 8.78031 21.6256C8.8221 21.5854 8.86391 21.5453 8.90573 21.5051C9.02029 21.395 9.13457 21.2847 9.24881 21.1743C9.37217 21.0552 9.49578 20.9363 9.61936 20.8174C9.83334 20.6115 10.0472 20.4054 10.2609 20.1992C10.5698 19.9011 10.8791 19.6032 11.1883 19.3054C11.6901 18.8222 12.1917 18.3388 12.6932 17.8552C13.1803 17.3856 13.6675 16.916 14.1548 16.4465C14.1849 16.4176 14.2149 16.3886 14.2459 16.3588C14.3966 16.2136 14.5473 16.0684 14.6981 15.9232C15.9483 14.7189 17.1982 13.5142 18.4478 12.3094C18.5929 12.3701 18.6878 12.4468 18.7992 12.5543C18.8345 12.5882 18.8699 12.6221 18.9063 12.657C18.9449 12.6945 18.9835 12.732 19.0233 12.7706C19.0649 12.8106 19.1065 12.8507 19.1481 12.8907C19.2625 13.0008 19.3767 13.1112 19.4908 13.2216C19.6139 13.3406 19.7372 13.4594 19.8605 13.5781C20.0741 13.784 20.2876 13.9901 20.501 14.1962C20.8096 14.4944 21.1186 14.7923 21.4276 15.0901C21.9291 15.5735 22.4305 16.057 22.9317 16.5407C22.9618 16.5696 22.9918 16.5986 23.0227 16.6284C23.2357 16.834 23.4487 17.0395 23.6617 17.245C23.905 17.4798 24.1483 17.7146 24.3916 17.9494C24.4216 17.9783 24.4515 18.0072 24.4824 18.037C24.9818 18.5188 25.4813 19.0005 25.9809 19.4821C26.2892 19.7792 26.5974 20.0765 26.9053 20.374C27.1163 20.5778 27.3274 20.7814 27.5386 20.9849C27.6605 21.1024 27.7824 21.2199 27.904 21.3377C28.0154 21.4454 28.1269 21.5529 28.2386 21.6603C28.2982 21.7177 28.3576 21.7754 28.417 21.833C28.4524 21.867 28.4877 21.9009 28.5241 21.9358C28.5546 21.9652 28.5851 21.9946 28.6165 22.0249C28.7804 22.1632 28.913 22.1994 29.1337 22.1942C29.2785 22.172 29.3706 22.1029 29.4812 22.0141C29.5734 21.8809 29.585 21.8287 29.5921 21.6731C29.5948 21.6355 29.5976 21.598 29.6004 21.5594C29.5136 21.2178 29.0935 20.9267 28.8426 20.6854C28.8004 20.6446 28.7582 20.6039 28.716 20.5631C28.6008 20.452 28.4856 20.3409 28.3703 20.2299C28.2456 20.1098 28.1211 19.9897 27.9966 19.8695C27.7248 19.6073 27.4528 19.3452 27.1808 19.0832C27.0109 18.9195 26.841 18.7559 26.6712 18.5922C26.2006 18.1387 25.73 17.6853 25.2593 17.232C25.2142 17.1885 25.2142 17.1885 25.1682 17.1442C25.138 17.1152 25.1079 17.0862 25.0768 17.0563C25.0157 16.9974 24.9547 16.9386 24.8936 16.8798C24.8481 16.836 24.8481 16.836 24.8018 16.7914C24.3101 16.318 23.8188 15.8443 23.3275 15.3704C22.8229 14.8836 22.318 14.3971 21.8129 13.9108C21.5294 13.6379 21.246 13.3648 20.9629 13.0915C20.722 12.859 20.4809 12.6267 20.2395 12.3947C20.1164 12.2763 19.9933 12.1578 19.8706 12.0391C19.7582 11.9304 19.6455 11.822 19.5326 11.7138C19.4725 11.656 19.4127 11.598 19.353 11.5399C19.0746 11.2741 18.8694 11.1257 18.4702 11.0992C17.9478 11.1102 17.5799 11.5977 17.24 11.9257C17.1976 11.9664 17.1553 12.0072 17.1129 12.0479C16.9972 12.1591 16.8817 12.2703 16.7662 12.3817C16.6413 12.502 16.5163 12.6222 16.3913 12.7424C16.1468 12.9775 15.9025 13.2127 15.6582 13.448C15.4598 13.6391 15.2613 13.8302 15.0628 14.0213C15.0345 14.0485 15.0062 14.0757 14.9771 14.1038C14.9196 14.1591 14.8622 14.2144 14.8047 14.2696C14.2666 14.7875 13.7286 15.3056 13.1906 15.8236C12.7288 16.2684 12.2668 16.7131 11.8047 17.1577C11.268 17.6741 10.7314 18.1906 10.1949 18.7072C10.1377 18.7622 10.0806 18.8172 10.0235 18.8723C9.99534 18.8993 9.96722 18.9264 9.93825 18.9543C9.73981 19.1454 9.54132 19.3364 9.34281 19.5274C9.1012 19.7598 8.85967 19.9924 8.61824 20.225C8.49499 20.3438 8.3717 20.4625 8.24833 20.5811C8.13554 20.6895 8.02286 20.7981 7.91025 20.9067C7.84989 20.9649 7.78943 21.0229 7.72896 21.081C7.69352 21.1152 7.65807 21.1495 7.62156 21.1847C7.57533 21.2292 7.57533 21.2292 7.52818 21.2746C7.38176 21.4264 7.40023 21.5777 7.40212 21.7766C7.41877 21.9285 7.4681 21.9984 7.58753 22.0974C7.73703 22.2053 7.92734 22.217 8.10675 22.1807Z" fill="#565656"/>
<path d="M25.2258 24.0135C25.1563 23.9661 25.1563 23.9661 25.0867 23.9065C25.0484 23.8737 25.0484 23.8737 25.0092 23.8402C24.8889 23.7336 24.7709 23.625 24.6542 23.5149C24.6279 23.4901 24.6016 23.4654 24.5744 23.4399C24.487 23.3578 24.3996 23.2755 24.3123 23.1932C24.2493 23.134 24.1863 23.0748 24.1233 23.0156C23.9881 22.8885 23.853 22.7614 23.7179 22.6342C23.5226 22.4503 23.3272 22.2665 23.1317 22.0827C22.8145 21.7845 22.4975 21.4862 22.1804 21.1879C21.8726 20.8982 21.5648 20.6086 21.2569 20.319C21.2378 20.3012 21.2188 20.2833 21.1993 20.2649C21.1039 20.1752 21.0086 20.0855 20.9132 19.9958C20.1232 19.2528 19.3333 18.5097 18.5435 17.7665C18.436 17.8122 18.36 17.8614 18.277 17.9398C18.254 17.9613 18.2311 17.9828 18.2074 18.0049C18.1826 18.0286 18.1577 18.0523 18.1321 18.0766C18.1054 18.1017 18.0787 18.1268 18.0512 18.1527C17.9616 18.237 17.8723 18.3216 17.7829 18.4063C17.7188 18.4667 17.6547 18.5271 17.5906 18.5875C17.4524 18.7178 17.3143 18.8481 17.1763 18.9785C16.9767 19.1672 16.7768 19.3556 16.5768 19.544C16.2522 19.8498 15.9277 20.1557 15.6033 20.4617C15.5839 20.48 15.5645 20.4984 15.5445 20.5172C15.3279 20.7216 15.1113 20.926 14.8948 21.1304C14.8162 21.2045 14.7377 21.2787 14.6592 21.3528C14.6301 21.3803 14.6301 21.3803 14.6004 21.4082C14.2774 21.7132 13.9541 22.0179 13.6307 22.3225C13.4312 22.5104 13.2318 22.6985 13.0328 22.8868C12.8803 23.031 12.7275 23.1749 12.5746 23.3188C12.5119 23.3779 12.4492 23.437 12.3867 23.4963C12.3015 23.5771 12.2159 23.6575 12.1303 23.7379C12.0931 23.7734 12.0931 23.7734 12.0552 23.8096C11.8395 24.0108 11.8395 24.0108 11.6775 24.048C11.4378 24.0444 11.3323 23.9996 11.1635 23.8409C11.1205 23.7602 11.1144 23.7024 11.1084 23.6123C11.1058 23.5841 11.1031 23.5559 11.1004 23.5268C11.1679 23.271 11.4804 23.0548 11.6746 22.8727C11.7028 22.8461 11.731 22.8195 11.76 22.7922C11.8538 22.7038 11.9476 22.6156 12.0415 22.5274C12.109 22.4638 12.1765 22.4003 12.244 22.3367C12.4078 22.1824 12.5718 22.0282 12.7358 21.874C12.869 21.7488 13.0022 21.6235 13.1354 21.4982C13.5131 21.1428 13.891 20.7874 14.269 20.4322C14.2893 20.4131 14.3096 20.394 14.3306 20.3743C14.3509 20.3551 14.3713 20.336 14.3923 20.3163C14.723 20.0054 15.0534 19.6944 15.3839 19.3834C15.7233 19.0638 16.0629 18.7443 16.4027 18.425C16.5933 18.2458 16.7839 18.0665 16.9744 17.8871C17.1532 17.7186 17.3323 17.5503 17.5114 17.3822C17.5773 17.3203 17.6431 17.2584 17.7088 17.1964C17.7982 17.1121 17.8879 17.028 17.9776 16.9439C18.0038 16.9191 18.03 16.8943 18.057 16.8687C18.081 16.8463 18.105 16.8239 18.1297 16.8009C18.1607 16.7717 18.1607 16.7717 18.1923 16.742C18.3071 16.6513 18.4311 16.6561 18.5753 16.6508C18.807 16.6843 18.9683 16.8793 19.1253 17.0279C19.154 17.0549 19.1828 17.0818 19.2124 17.1096C19.3089 17.2 19.405 17.2907 19.5012 17.3814C19.5703 17.4463 19.6393 17.5112 19.7084 17.576C19.8765 17.7339 20.0445 17.8919 20.2123 18.05C20.4077 18.2341 20.6033 18.4179 20.799 18.6018C21.1479 18.9298 21.4966 19.2579 21.8452 19.5861C22.1837 19.9048 22.5224 20.2233 22.8611 20.5418C22.8924 20.5712 22.8924 20.5712 22.9244 20.6012C22.9452 20.6208 22.9661 20.6404 22.9876 20.6606C23.373 21.0229 23.7584 21.3854 24.1437 21.7479C24.2801 21.8762 24.4166 22.0045 24.553 22.1328C24.7191 22.289 24.8852 22.4452 25.0512 22.6015C25.1359 22.6813 25.2207 22.7611 25.3055 22.8408C25.3973 22.9271 25.489 23.0135 25.5806 23.0999C25.6077 23.1252 25.6347 23.1506 25.6626 23.1768C25.687 23.1998 25.7114 23.2228 25.7365 23.2466C25.7577 23.2665 25.7789 23.2865 25.8007 23.307C25.9107 23.4202 25.9011 23.5372 25.8995 23.684C25.8784 23.8292 25.8189 23.8822 25.7031 23.979C25.5513 24.0677 25.3926 24.0681 25.2258 24.0135Z" fill="#565656"/>
</svg>
