<svg width="50" height="50" viewBox="0 0 50 50" fill="none" xmlns="http://www.w3.org/2000/svg">
<g clip-path="url(#clip0_204_2781)">
<path d="M45.3121 12.389L33.2219 0.298925C33.0304 0.107519 32.7709 0 32.5003 0H9.34833C6.61377 0 4.38916 2.2248 4.38916 4.95937V45.0407C4.38916 47.7752 6.61386 50 9.34843 50H40.6518C43.3863 50 45.6111 47.7753 45.6111 45.0407V13.1106C45.611 12.84 45.5034 12.5804 45.3121 12.389ZM33.521 3.48427L42.1272 12.0903H36.4395C35.6598 12.0903 34.9268 11.7867 34.3756 11.2355C33.8246 10.6845 33.5209 9.95154 33.521 9.17195V3.48427ZM43.5701 45.0406C43.5701 46.6499 42.261 47.9591 40.6518 47.9591H9.34833C7.73906 47.9591 6.42988 46.6499 6.42988 45.0406V4.95937C6.42998 3.35009 7.73915 2.04082 9.34833 2.04082H31.4802V9.17176C31.48 10.4965 31.9958 11.7419 32.9325 12.6785C33.8692 13.6152 35.1146 14.131 36.4394 14.131H43.57L43.5701 45.0406Z" fill="#008A91"/>
<path d="M26.8645 34.3253H26.4076C25.8441 34.3253 25.3872 34.7822 25.3872 35.3457C25.3872 35.9093 25.8441 36.3661 26.4076 36.3661H26.8645C27.4279 36.3661 27.8849 35.9093 27.8849 35.3457C27.8849 34.7822 27.4279 34.3253 26.8645 34.3253Z" fill="#008A91"/>
<path d="M23.1065 34.3253H13.1952C12.6317 34.3253 12.1748 34.7822 12.1748 35.3457C12.1748 35.9093 12.6317 36.3661 13.1952 36.3661H23.1065C23.67 36.3661 24.1269 35.9093 24.1269 35.3457C24.1269 34.7822 23.6701 34.3253 23.1065 34.3253Z" fill="#008A91"/>
<path d="M36.8048 29.6627H13.1952C12.6317 29.6627 12.1748 30.1196 12.1748 30.6831C12.1748 31.2467 12.6317 31.7035 13.1952 31.7035H36.8048C37.3683 31.7035 37.8252 31.2467 37.8252 30.6831C37.8252 30.1196 37.3683 29.6627 36.8048 29.6627Z" fill="#008A91"/>
<path d="M36.8048 24.9999H13.1952C12.6317 24.9999 12.1748 25.4568 12.1748 26.0203C12.1748 26.5839 12.6317 27.0408 13.1952 27.0408H36.8048C37.3683 27.0408 37.8252 26.5839 37.8252 26.0203C37.8252 25.4568 37.3683 24.9999 36.8048 24.9999Z" fill="#008A91"/>
<path d="M36.8048 20.3373H13.1952C12.6317 20.3373 12.1748 20.7942 12.1748 21.3577C12.1748 21.9213 12.6317 22.3782 13.1952 22.3782H36.8048C37.3683 22.3782 37.8252 21.9213 37.8252 21.3577C37.8252 20.7942 37.3683 20.3373 36.8048 20.3373Z" fill="#008A91"/>
</g>
<defs>
<clipPath id="clip0_204_2781">
<rect width="50" height="50" fill="white"/>
</clipPath>
</defs>
</svg>
