<svg width="21" height="17" viewBox="0 0 21 17" fill="none" xmlns="http://www.w3.org/2000/svg">
<g clip-path="url(#clip0_204_2831)">
<g clip-path="url(#clip1_204_2831)">
<path d="M18.1701 9.03893C19.9357 7.27331 19.9357 4.41393 18.1701 2.64831C16.6076 1.08581 14.1451 0.882681 12.3482 2.16706L12.2982 2.20143C11.8482 2.52331 11.7451 3.14831 12.067 3.59518C12.3889 4.04206 13.0139 4.14831 13.4607 3.82643L13.5107 3.79206C14.5139 3.07643 15.8857 3.18893 16.7545 4.06081C17.7389 5.04518 17.7389 6.63893 16.7545 7.62331L13.2482 11.1358C12.2639 12.1202 10.6701 12.1202 9.68574 11.1358C8.81387 10.2639 8.70137 8.89206 9.41699 7.89206L9.45137 7.84206C9.77324 7.39206 9.66699 6.76706 9.22012 6.44831C8.77324 6.12956 8.14512 6.23268 7.82637 6.67956L7.79199 6.72956C6.50449 8.52331 6.70762 10.9858 8.27012 12.5483C10.0357 14.3139 12.8951 14.3139 14.6607 12.5483L18.1701 9.03893ZM1.93262 8.30768C0.166992 10.0733 0.166992 12.9327 1.93262 14.6983C3.49512 16.2608 5.95762 16.4639 7.75449 15.1796L7.80449 15.1452C8.25449 14.8233 8.35762 14.1983 8.03574 13.7514C7.71387 13.3046 7.08887 13.1983 6.64199 13.5202L6.59199 13.5546C5.58887 14.2702 4.21699 14.1577 3.34824 13.2858C2.36387 12.2983 2.36387 10.7046 3.34824 9.72018L6.85449 6.21081C7.83887 5.22643 9.43262 5.22643 10.417 6.21081C11.2889 7.08268 11.4014 8.45456 10.6857 9.45768L10.6514 9.50768C10.3295 9.95768 10.4357 10.5827 10.8826 10.9014C11.3295 11.2202 11.9576 11.1171 12.2764 10.6702L12.3107 10.6202C13.5982 8.82331 13.3951 6.36081 11.8326 4.79831C10.067 3.03268 7.20762 3.03268 5.44199 4.79831L1.93262 8.30768Z" fill="#008A91"/>
</g>
</g>
<defs>
<clipPath id="clip0_204_2831">
<rect width="20" height="16" fill="white" transform="translate(0.0512695 0.67334)"/>
</clipPath>
<clipPath id="clip1_204_2831">
<path d="M0.0512695 0.67334H20.0513V16.6733H0.0512695V0.67334Z" fill="white"/>
</clipPath>
</defs>
</svg>
