<svg width="50" height="51" viewBox="0 0 50 51" fill="none" xmlns="http://www.w3.org/2000/svg">
<g clip-path="url(#clip0_204_2808)">
<path d="M4.8916 31.7806C4.94531 21.9482 4.99805 12.1187 5.05176 2.32494C5.05371 1.67182 5.49805 1.12874 6.08691 1.00138V0.999342C12.4971 -0.396566 20.9063 1.0778 25.0684 6.84891C29.4531 1.23471 37.54 -0.00632358 44.04 0.984058C44.6885 1.08289 45.1562 1.66469 45.1553 2.33004H45.1562V31.9009C45.1562 32.6538 44.5723 33.2632 43.8506 33.2632C43.7471 33.2632 43.6455 33.2499 43.5488 33.2265C43.1934 33.1684 42.8408 33.1215 42.4893 33.0848C42.2949 32.1026 41.9316 31.1153 41.3682 30.3012C41.7578 30.3134 42.54 30.7434 42.9365 30.776V3.12887C37.1787 2.56031 29.6465 4.16102 26.3262 9.6825V15.7929C25.5215 15.5565 24.5498 15.5097 23.7148 15.6462V9.64174C20.6035 3.92362 12.8496 2.25158 7.10938 3.06467V30.8626C8.48828 30.8106 10.2461 30.4275 11.5918 30.5437L11.5439 30.6486C11.1934 31.4556 11.0381 32.3268 11.0283 33.2092C9.46387 33.093 7.87891 33.1164 6.29883 33.2581C5.49414 33.3274 4.93457 32.6559 4.8916 31.7806ZM22.7002 37.1585C22.7002 37.5966 22.3584 37.9522 21.9385 37.9522C21.5176 37.9522 21.1768 37.5966 21.1768 37.1585V35.6892C21.1357 35.6668 21.0967 35.6403 21.0596 35.6087C20.6113 35.2358 20.0938 34.7976 19.6406 34.4104L17.6797 32.7394C16.5615 31.7817 15.2246 31.6726 15.3486 33.6514C15.376 34.0885 15.5225 34.5684 15.7158 35.0279C16.0068 35.7147 16.332 36.27 16.6162 36.6653L22.4512 45.8722C22.5186 45.9792 22.5586 46.0974 22.5723 46.2156C22.6875 47.21 22.8896 47.9548 23.1885 48.4215C23.4043 48.7598 23.6855 48.932 24.0352 48.9228C26.9111 48.8627 30.2686 48.8016 33.1211 48.9218C33.6826 48.9136 34.1973 48.7404 34.6631 48.4062C35.624 47.7154 36.374 46.185 36.9424 45.1049C37.7617 43.545 38.4346 41.9636 38.5234 40.1622C38.498 39.0119 38.4502 37.8584 38.4648 36.7081C38.4795 35.4202 38.4971 34.0385 37.9189 33.1929C37.3965 32.4287 36.7305 32.5601 35.9434 32.5601C35.9414 32.5601 35.875 33.9336 35.8662 34.0722C35.8398 34.5164 35.8135 34.818 35.8135 35.2225C35.8135 35.6607 35.4727 36.0173 35.0518 36.0173C34.6318 36.0173 34.29 35.6607 34.29 35.2225C34.29 34.8129 34.3193 34.3371 34.3486 33.846C34.4209 32.6518 34.501 31.4587 34.0801 30.7067C33.6641 29.9639 32.9805 30.1178 32.2764 30.1178C32.2197 30.1178 32.166 30.1106 32.1123 30.0994C32.1211 30.7087 32.084 31.2121 32.0469 31.8204C32.0205 32.2646 31.9932 32.6936 31.9932 33.0991C31.9932 33.5372 31.6523 33.8939 31.2314 33.8939C30.8115 33.8939 30.4707 33.5372 30.4707 33.0991C30.4707 32.6895 30.499 32.2127 30.5293 31.7205C30.6094 30.398 30.6982 29.0469 30.1055 28.3602C29.6826 27.8701 29.0283 27.9933 28.457 27.9933C28.3877 27.9933 28.3213 27.9842 28.2568 27.9658V30.9156C28.2568 31.3537 27.916 31.7103 27.4951 31.7103C27.0752 31.7103 26.7334 31.3537 26.7334 30.9156V23.2758C26.7334 19.5486 22.7002 19.462 22.7002 23.3084V37.1585ZM21.1768 33.6656V23.181C21.1768 17.2255 28.2568 17.3254 28.2568 23.1484V26.305C28.3213 26.2867 28.3877 26.2775 28.457 26.2775C29.4551 26.2775 30.2979 26.1889 31.1318 26.949C31.5625 27.3402 31.8145 27.8701 31.9551 28.4743C32.0527 28.4274 32.1611 28.4009 32.2764 28.4009C33.415 28.4009 34.4707 28.3286 35.2695 29.427C35.5596 29.8254 35.7314 30.3144 35.8271 30.8524C35.8652 30.8453 35.9033 30.8432 35.9434 30.8432C37.1182 30.8432 38.0947 30.7791 38.998 31.8183C40.0254 33.0003 40.002 35.0096 39.9824 36.7264C39.9775 37.8941 40.0312 39.0557 40.041 40.2213C39.9424 42.3192 39.2178 44.0636 38.334 45.756C37.6074 47.1468 36.7842 48.8046 35.5254 49.7094C34.8027 50.229 34.0029 50.496 33.127 50.5052L24.0537 50.5092C23.1484 50.5245 22.4443 50.1119 21.9268 49.3029C21.5107 48.6528 21.2334 47.7409 21.085 46.5915L15.375 37.5782C15.0391 37.1034 14.5938 36.3861 14.2627 35.6036C13.5977 34.0284 13.3389 31.4087 15.208 30.617C16.3486 30.132 17.6963 30.6843 18.585 31.4526L21.1768 33.6656ZM42.708 37.244C44.3223 37.4916 46.2861 37.8258 47.7793 38.2273C47.7793 27.9118 47.7783 17.1858 47.7783 6.87234C48.791 6.87234 50 6.66143 50 8.23463V39.6018C50 40.5423 49.1113 41.1893 48.2734 40.8917C46.4893 40.3589 44.6387 39.9156 42.7598 39.6008C42.7432 38.6797 42.707 38.1662 42.708 37.244ZM13.043 39.0689C9.19824 39.1076 5.32812 39.8158 1.72656 40.8917C0.888672 41.1893 0 40.5423 0 39.6018V8.23463C0 6.66143 1.20801 6.87234 2.2207 6.87234V38.2273C5.0459 37.4682 8.51562 36.9506 11.6182 36.8039C11.9727 37.7331 12.4893 38.2548 13.043 39.0689Z" fill="#008A91"/>
</g>
<defs>
<clipPath id="clip0_204_2808">
<rect width="50" height="50" fill="white" transform="translate(0 0.509277)"/>
</clipPath>
</defs>
</svg>
