<svg width="50" height="51" viewBox="0 0 50 51" fill="none" xmlns="http://www.w3.org/2000/svg">
<g clip-path="url(#clip0_204_2815)">
<path d="M49.4644 42.1408L27.7562 4.54368C27.1917 3.55709 26.1323 2.94434 24.9943 2.94434C23.8588 2.94434 22.8005 3.55607 22.2313 4.54013L0.426087 42.3114C-0.142029 43.2945 -0.142029 44.5152 0.426087 45.4982C0.994202 46.4841 2.05257 47.0965 3.18728 47.0965H46.813C48.5703 47.0965 49.9997 45.6651 49.9997 43.906C50 43.2499 49.8057 42.6181 49.4644 42.1408ZM46.813 45.2476H3.18829C2.71098 45.2476 2.26435 44.9917 2.02543 44.5768C1.78576 44.1619 1.785 43.6473 2.02543 43.2326L23.8307 5.46231C24.0693 5.04941 24.5149 4.79147 24.9943 4.79147C25.4716 4.79147 25.921 5.04915 26.1589 5.46231L47.9107 43.1347C48.0694 43.3617 48.1557 43.6275 48.1557 43.9072C48.1557 44.646 47.552 45.2476 46.813 45.2476Z" fill="#008A91"/>
<path d="M25.9975 34.2438L26.5002 17.0779H22.7524L23.2526 34.2438H25.9975Z" fill="#008A91"/>
<path d="M24.6259 36.7039C23.3208 36.7039 22.374 37.6943 22.374 39.0575C22.374 40.4245 23.3208 41.4147 24.6259 41.4147C25.9521 41.4147 26.8796 40.4471 26.8796 39.0575C26.8796 37.6714 25.9529 36.7039 24.6259 36.7039Z" fill="#008A91"/>
</g>
<defs>
<clipPath id="clip0_204_2815">
<rect width="50" height="50" fill="white" transform="translate(0 0.0205078)"/>
</clipPath>
</defs>
</svg>
