<svg width="23" height="20" viewBox="0 0 23 20" fill="none" xmlns="http://www.w3.org/2000/svg">
<g clip-path="url(#clip0_808_915)">
<path d="M2.66667 4.33333C1.74583 4.33333 1 5.07917 1 6V14.3333C1 15.25 1.75 16 2.66667 16H14.3333C15.2542 16 16 15.2542 16 14.3333H2.66667V4.33333ZM16 12.6667H6C5.07917 12.6667 4.33333 11.9208 4.33333 11V2.66667C4.33333 1.74583 5.07917 1 6 1H8.5C9.42083 1 10.1667 1.74583 10.1667 2.66667H16C16.9208 2.66667 17.6667 3.4125 17.6667 4.33333V11C17.6667 11.9208 16.9208 12.6667 16 12.6667Z" fill="white"/>
<path d="M21.2257 9.90561C21.2818 9.95442 21.3373 10.0038 21.3924 10.0537C21.4398 10.0946 21.4398 10.0946 21.4882 10.1364C22.3377 10.8786 22.8427 11.8923 22.9859 13.0066C23.0111 13.517 23.0152 14.0344 22.8884 14.5318C22.8808 14.5639 22.8808 14.5639 22.873 14.5968C22.7398 15.155 22.4851 15.6951 22.1404 16.1542C22.1217 16.1801 22.1029 16.206 22.0836 16.2326C21.3632 17.1817 20.3085 17.767 19.1388 17.9564C18.595 18.0245 17.9529 18.024 17.4249 17.8741C17.3984 17.8666 17.3719 17.8591 17.3446 17.8514C16.7938 17.6903 16.2968 17.4652 15.8314 17.1277C15.8053 17.109 15.7792 17.0902 15.7522 17.0708C15.3082 16.734 14.9566 16.3311 14.6606 15.8622C14.647 15.8414 14.6333 15.8207 14.6193 15.7993C14.5183 15.6438 14.4392 15.4855 14.368 15.3146C14.3568 15.288 14.3457 15.2614 14.3343 15.234C14.2605 15.0527 14.1974 14.8702 14.1444 14.6818C14.1382 14.6599 14.132 14.638 14.1256 14.6154C14.0281 14.2474 13.9984 13.8812 14.0001 13.5015C14.0002 13.4587 14.0004 13.4159 14.0006 13.3718C14.0125 12.3774 14.3776 11.3485 15.0509 10.6053C15.0742 10.5782 15.0976 10.551 15.1216 10.523C16.6141 8.81169 19.4157 8.45344 21.2257 9.90561ZM18.2704 10.8C18.2109 10.9172 18.1971 11.014 18.1963 11.1444C18.196 11.1806 18.1956 11.2169 18.1952 11.2543C18.1952 11.2937 18.1951 11.3332 18.195 11.3739C18.1947 11.4157 18.1944 11.4575 18.194 11.5006C18.1931 11.6149 18.1927 11.7293 18.1922 11.8437C18.1917 11.9633 18.1909 12.0829 18.19 12.2025C18.1885 12.4289 18.1873 12.6553 18.1862 12.8817C18.185 13.1395 18.1834 13.3973 18.1817 13.6551C18.1784 14.1853 18.1755 14.7155 18.1729 15.2457C18.1157 15.1891 18.0587 15.1325 18.0016 15.0758C17.9856 15.0599 17.9695 15.0441 17.953 15.0277C17.8433 14.9186 17.7403 14.8059 17.6398 14.6884C17.5692 14.6083 17.493 14.5345 17.4168 14.4598C17.3369 14.3786 17.2635 14.2924 17.1891 14.2062C17.1342 14.1446 17.0773 14.0865 17.0184 14.0288C16.9386 13.9506 16.8638 13.87 16.7907 13.7854C16.5826 13.5198 16.5826 13.5198 16.2928 13.3838C16.1842 13.3881 16.1842 13.3881 16.0956 13.4629C16.0086 13.583 16.0116 13.6396 16.0265 13.7854C16.076 13.8762 16.076 13.8762 16.1505 13.9558C16.1771 13.9863 16.2037 14.0168 16.2312 14.0482C16.3488 14.1741 16.47 14.2956 16.5933 14.416C16.6845 14.5069 16.7686 14.6018 16.8522 14.6996C16.922 14.7786 16.997 14.8515 17.0723 14.9252C17.1301 14.9839 17.1841 15.0443 17.2378 15.1066C17.3786 15.2682 17.5258 15.4233 17.6736 15.5785C17.7868 15.6977 17.8989 15.8175 18.0084 15.9402C18.0286 15.9626 18.0488 15.9849 18.0696 16.008C18.1077 16.0504 18.1455 16.0931 18.1829 16.1361C18.2655 16.2273 18.318 16.2779 18.4358 16.3195C18.6482 16.3127 18.7767 16.1448 18.9168 16.0021C18.9359 15.9831 18.9549 15.964 18.9746 15.9444C19.0941 15.8239 19.2072 15.6991 19.3183 15.571C19.4167 15.4591 19.5195 15.3516 19.6221 15.2436C19.6681 15.195 19.7141 15.1464 19.7602 15.0977C19.783 15.0736 19.8059 15.0494 19.8295 15.0245C19.948 14.8991 20.0658 14.773 20.1836 14.6469C20.2811 14.5424 20.3788 14.4381 20.4768 14.334C20.4973 14.3121 20.5179 14.2902 20.5391 14.2677C20.5783 14.226 20.6176 14.1843 20.6569 14.1427C20.8939 13.9058 20.8939 13.9058 20.9696 13.5907C20.926 13.493 20.926 13.493 20.8396 13.4285C20.7204 13.3939 20.6476 13.3826 20.5306 13.4264C20.4595 13.485 20.4056 13.5412 20.346 13.6107C20.2249 13.7503 20.099 13.8847 19.9717 14.0186C19.8143 14.1848 19.6573 14.3513 19.5022 14.5196C19.3558 14.6784 19.2086 14.8365 19.0611 14.9942C19.0412 15.0155 19.0212 15.0368 19.0007 15.0588C18.8602 15.2088 18.8602 15.2088 18.8233 15.2457C18.8232 15.2238 18.8231 15.2019 18.823 15.1793C18.8211 14.6463 18.8187 14.1133 18.8156 13.5803C18.8142 13.3225 18.8129 13.0648 18.812 12.807C18.8113 12.5823 18.8102 12.3576 18.8087 12.133C18.8079 12.014 18.8073 11.8951 18.8071 11.7761C18.8069 11.6433 18.8059 11.5104 18.8048 11.3776C18.8049 11.3382 18.8049 11.2989 18.805 11.2583C18.8046 10.9982 18.8046 10.9982 18.6932 10.7676C18.5225 10.6872 18.4242 10.6894 18.2704 10.8Z" fill="#565656"/>
</g>
<defs>
<clipPath id="clip0_808_915">
<rect width="23" height="20" fill="white"/>
</clipPath>
</defs>
</svg>
