<svg width="23" height="20" viewBox="0 0 23 20" fill="none" xmlns="http://www.w3.org/2000/svg">
<g clip-path="url(#clip0_808_923)">
<path d="M2.66667 4.33333C1.74583 4.33333 1 5.07917 1 6V14.3333C1 15.25 1.75 16 2.66667 16H14.3333C15.2542 16 16 15.2542 16 14.3333H2.66667V4.33333ZM16 12.6667H6C5.07917 12.6667 4.33333 11.9208 4.33333 11V2.66667C4.33333 1.74583 5.07917 1 6 1H8.5C9.42083 1 10.1667 1.74583 10.1667 2.66667H16C16.9208 2.66667 17.6667 3.4125 17.6667 4.33333V11C17.6667 11.9208 16.9208 12.6667 16 12.6667Z" fill="#008A91"/>
<path d="M21.2257 10.9056C21.2818 10.9544 21.3373 11.0038 21.3924 11.0537C21.4398 11.0946 21.4398 11.0946 21.4882 11.1364C22.3377 11.8786 22.8427 12.8923 22.9859 14.0066C23.0111 14.517 23.0152 15.0344 22.8884 15.5318C22.8808 15.5639 22.8808 15.5639 22.873 15.5968C22.7398 16.155 22.4851 16.6951 22.1404 17.1542C22.1216 17.1801 22.1029 17.206 22.0836 17.2326C21.3632 18.1817 20.3085 18.767 19.1388 18.9564C18.595 19.0245 17.9529 19.024 17.4249 18.8741C17.3984 18.8666 17.3719 18.8591 17.3446 18.8514C16.7938 18.6903 16.2968 18.4652 15.8314 18.1277C15.8053 18.109 15.7792 18.0902 15.7522 18.0708C15.3082 17.734 14.9566 17.3311 14.6606 16.8622C14.647 16.8414 14.6333 16.8207 14.6193 16.7993C14.5183 16.6438 14.4392 16.4855 14.368 16.3146C14.3568 16.288 14.3457 16.2614 14.3343 16.234C14.2605 16.0527 14.1974 15.8702 14.1444 15.6818C14.1382 15.6599 14.132 15.638 14.1256 15.6154C14.0281 15.2474 13.9984 14.8812 14.0001 14.5015C14.0002 14.4587 14.0004 14.4159 14.0006 14.3718C14.0125 13.3774 14.3776 12.3485 15.0509 11.6053C15.0742 11.5782 15.0976 11.551 15.1216 11.523C16.6141 9.81169 19.4157 9.45344 21.2257 10.9056ZM18.2704 11.8C18.2109 11.9172 18.1971 12.014 18.1963 12.1444C18.196 12.1806 18.1956 12.2169 18.1952 12.2543C18.1952 12.2937 18.1951 12.3332 18.195 12.3739C18.1947 12.4157 18.1944 12.4575 18.194 12.5006C18.1931 12.6149 18.1927 12.7293 18.1922 12.8437C18.1917 12.9633 18.1908 13.0829 18.19 13.2025C18.1885 13.4289 18.1873 13.6553 18.1862 13.8817C18.185 14.1395 18.1834 14.3973 18.1817 14.6551C18.1784 15.1853 18.1755 15.7155 18.1729 16.2457C18.1157 16.1891 18.0587 16.1325 18.0016 16.0758C17.9856 16.0599 17.9695 16.0441 17.953 16.0277C17.8433 15.9186 17.7403 15.8059 17.6398 15.6884C17.5692 15.6083 17.493 15.5345 17.4168 15.4598C17.3369 15.3786 17.2635 15.2924 17.1891 15.2062C17.1342 15.1446 17.0773 15.0865 17.0184 15.0288C16.9386 14.9506 16.8638 14.87 16.7907 14.7854C16.5826 14.5198 16.5826 14.5198 16.2928 14.3838C16.1842 14.3881 16.1842 14.3881 16.0956 14.4629C16.0086 14.583 16.0116 14.6396 16.0265 14.7854C16.076 14.8762 16.076 14.8762 16.1505 14.9558C16.1771 14.9863 16.2037 15.0168 16.2312 15.0482C16.3488 15.1741 16.47 15.2956 16.5933 15.416C16.6845 15.5069 16.7686 15.6018 16.8522 15.6996C16.922 15.7786 16.997 15.8515 17.0723 15.9252C17.1301 15.9839 17.1841 16.0443 17.2378 16.1066C17.3786 16.2682 17.5258 16.4233 17.6736 16.5785C17.7868 16.6977 17.8989 16.8175 18.0084 16.9402C18.0286 16.9626 18.0488 16.9849 18.0696 17.008C18.1077 17.0504 18.1455 17.0931 18.1829 17.1361C18.2655 17.2273 18.318 17.2779 18.4358 17.3195C18.6482 17.3127 18.7767 17.1448 18.9168 17.0021C18.9359 16.9831 18.9549 16.964 18.9746 16.9444C19.0941 16.8239 19.2072 16.6991 19.3183 16.571C19.4167 16.4591 19.5195 16.3516 19.6221 16.2436C19.6681 16.195 19.7141 16.1464 19.7602 16.0977C19.783 16.0736 19.8059 16.0494 19.8295 16.0245C19.948 15.8991 20.0658 15.773 20.1836 15.6469C20.2811 15.5424 20.3788 15.4381 20.4768 15.334C20.4973 15.3121 20.5179 15.2902 20.5391 15.2677C20.5783 15.226 20.6176 15.1843 20.6569 15.1427C20.8939 14.9058 20.8939 14.9058 20.9696 14.5907C20.926 14.493 20.926 14.493 20.8396 14.4285C20.7204 14.3939 20.6476 14.3826 20.5306 14.4264C20.4595 14.485 20.4056 14.5412 20.346 14.6107C20.2249 14.7503 20.099 14.8847 19.9717 15.0186C19.8143 15.1848 19.6573 15.3513 19.5022 15.5196C19.3558 15.6784 19.2086 15.8365 19.0611 15.9942C19.0412 16.0155 19.0212 16.0368 19.0007 16.0588C18.8602 16.2088 18.8602 16.2088 18.8233 16.2457C18.8232 16.2238 18.8231 16.2019 18.823 16.1793C18.8211 15.6463 18.8187 15.1133 18.8156 14.5803C18.8142 14.3225 18.8129 14.0648 18.812 13.807C18.8113 13.5823 18.8102 13.3576 18.8087 13.133C18.8079 13.014 18.8073 12.8951 18.8071 12.7761C18.8069 12.6433 18.8059 12.5104 18.8048 12.3776C18.8049 12.3382 18.8049 12.2989 18.805 12.2583C18.8046 11.9982 18.8046 11.9982 18.6932 11.7676C18.5225 11.6872 18.4242 11.6894 18.2704 11.8Z" fill="#008A91"/>
</g>
<defs>
<clipPath id="clip0_808_923">
<rect width="23" height="20" fill="white"/>
</clipPath>
</defs>
</svg>
