<svg width="31" height="31" viewBox="0 0 31 31" fill="none" xmlns="http://www.w3.org/2000/svg">
<path d="M15.0796 0.0221098C6.78673 -0.0254117 0.0481486 6.64513 0.0283611 14.9202C0.00860711 23.2131 6.70172 29.974 14.9769 30.0215C23.2698 30.0691 30.0084 23.3985 30.0282 15.1234C30.0657 6.83062 23.3548 0.0696054 15.0796 0.0221098ZM14.8746 4.06192C15.6011 4.06298 16.2041 4.32965 16.7012 4.84425C17.2161 5.34116 17.4653 5.96171 17.4667 6.68822C17.4681 7.41474 17.2211 8.01685 16.7082 8.52998C16.213 9.02541 15.5933 9.27258 14.8845 9.27155C14.1403 9.27046 13.5373 9.02151 13.0225 8.52461C12.5254 8.02773 12.2585 7.40715 12.2571 6.68063C12.2557 5.9364 12.5203 5.33431 13.0333 4.83891C13.5284 4.32576 14.1481 4.06086 14.8746 4.06192ZM10.6523 10.7716L17.5453 10.7816L17.5696 23.6285L19.6428 23.6315L19.6459 25.2794L10.6797 25.2664L10.6766 23.6184L12.7321 23.6214L12.7109 12.4225L10.6554 12.4195L10.6523 10.7716Z" fill="#D92D20"/>
</svg>
