<svg width="17" height="17" viewBox="0 0 17 17" fill="none" xmlns="http://www.w3.org/2000/svg">
<path d="M13.8742 10.2988L13.8742 13.9538L2.31681 13.9538L2.31681 10.2988L0.0954952 10.2988L0.0954952 15.0282C0.0954952 15.6211 0.592064 16.102 1.20781 16.102L14.9832 16.102C15.5984 16.102 16.0955 15.6217 16.0955 15.0282L16.0955 10.2988L13.8742 10.2988Z" fill="white"/>
<path d="M7.89218 9.93598L4.71193 6.21858C4.71193 6.21858 4.22805 5.77666 4.75276 5.77666C5.27747 5.77666 6.54482 5.77666 6.54482 5.77666C6.54482 5.77666 6.54482 5.47937 6.54482 5.0209C6.54482 3.71381 6.54482 1.335 6.54482 0.365223C6.54482 0.365223 6.47365 0.101562 6.88414 0.101562C7.29795 0.101562 9.11043 0.101562 9.40671 0.101562C9.70245 0.101562 9.69583 0.323592 9.69583 0.323592C9.69583 1.26401 9.69583 3.72502 9.69583 4.98941C9.69583 5.39931 9.69583 5.66511 9.69583 5.66511C9.69583 5.66511 10.7121 5.66511 11.35 5.66511C11.9867 5.66511 11.5072 6.12785 11.5072 6.12785C11.5072 6.12785 8.80145 9.6024 8.42406 9.96693C8.1526 10.2311 7.89218 9.93598 7.89218 9.93598Z" fill="white"/>
</svg>
