<svg width="20" height="16" viewBox="0 0 20 16" fill="none" xmlns="http://www.w3.org/2000/svg">
<g clip-path="url(#clip0_2632_3274)">
<path d="M4.5 5C5.16304 5 5.79893 4.73661 6.26777 4.26777C6.73661 3.79893 7 3.16304 7 2.5C7 1.83696 6.73661 1.20107 6.26777 0.732233C5.79893 0.263392 5.16304 0 4.5 0C3.83696 0 3.20107 0.263392 2.73223 0.732233C2.26339 1.20107 2 1.83696 2 2.5C2 3.16304 2.26339 3.79893 2.73223 4.26777C3.20107 4.73661 3.83696 5 4.5 5ZM16 5C16.663 5 17.2989 4.73661 17.7678 4.26777C18.2366 3.79893 18.5 3.16304 18.5 2.5C18.5 1.83696 18.2366 1.20107 17.7678 0.732233C17.2989 0.263392 16.663 0 16 0C15.337 0 14.7011 0.263392 14.2322 0.732233C13.7634 1.20107 13.5 1.83696 13.5 2.5C13.5 3.16304 13.7634 3.79893 14.2322 4.26777C14.7011 4.73661 15.337 5 16 5ZM0 9.33438C0 9.7 0.3 10 0.665625 10H7.33437C7.34062 10 7.34687 10 7.35625 10C6.525 9.26562 6.00313 8.19375 6.00313 7C6.00313 6.7625 6.025 6.53125 6.0625 6.30312C5.6375 6.10625 5.16562 6 4.66875 6H3.33437C1.49375 6 0 7.49375 0 9.33438ZM10 10C10.75 10 11.4344 9.725 11.9594 9.27188C12.0375 9.15625 12.1219 9.04375 12.2094 8.9375C12.2938 8.83438 12.3875 8.74688 12.4906 8.67813C12.8125 8.19688 13 7.62187 13 7C13 5.34375 11.6562 4 10 4C8.34375 4 7 5.34375 7 7C7 8.65625 8.34375 10 10 10ZM12.0437 11.8813C11.7219 11.6969 11.4781 11.375 11.3938 11H8.16562C5.86562 11 4 12.8656 4 15.1656C4 15.625 4.37187 16 4.83437 16H14.225C14.1594 15.8375 14.125 15.6594 14.125 15.4875V15.3938C14.0844 15.3719 14.0406 15.3469 14 15.3219L13.9187 15.3687C13.3937 15.6719 12.6531 15.6188 12.2094 15.0656C12.0688 14.8906 11.9406 14.7062 11.8219 14.5156L11.8188 14.5094L11.8156 14.5031L11.7406 14.375L11.7375 14.3687L11.7344 14.3625C11.6281 14.1688 11.5344 13.9687 11.4531 13.7594C11.1969 13.0969 11.5219 12.4281 12.0469 12.125L12.1313 12.0781C12.1313 12.0531 12.1313 12.0313 12.1313 12.0063C12.1313 11.9813 12.1313 11.9594 12.1313 11.9344L12.0469 11.8875L12.0437 11.8813ZM16.6656 6H15.3344C14.8375 6 14.3656 6.10937 13.9406 6.30312C13.9813 6.52812 14 6.7625 14 7C14 7.54375 13.8906 8.05937 13.6969 8.53125C13.775 8.55937 13.85 8.59375 13.9187 8.63437L14 8.68125C14.0406 8.65625 14.0813 8.63125 14.125 8.60938V8.51562C14.125 7.90938 14.5406 7.29375 15.2437 7.18437C15.4906 7.14687 15.7438 7.125 16 7.125C16.2562 7.125 16.5094 7.14375 16.7563 7.18437C17.4594 7.29375 17.875 7.90938 17.875 8.51562V8.60938C17.9156 8.63125 17.9594 8.65625 18 8.68125L18.0812 8.63437C18.6062 8.33125 19.3469 8.38437 19.7906 8.9375C19.8625 9.025 19.9313 9.11875 19.9969 9.20938C19.9313 7.425 18.4656 6 16.6656 6ZM19.5187 11.1219C19.7156 11.0094 19.8156 10.775 19.7313 10.5594C19.6656 10.3875 19.5875 10.2219 19.5 10.0625L19.4281 9.9375C19.3313 9.77813 19.225 9.62812 19.1094 9.48438C18.9656 9.30625 18.7125 9.275 18.5156 9.39062L17.95 9.71875C17.6719 9.48125 17.3531 9.29375 17 9.16875V8.5125C17 8.28437 16.8469 8.08125 16.6219 8.04688C16.4188 8.01562 16.2125 8 16 8C15.7875 8 15.5813 8.01562 15.3781 8.04688C15.1531 8.08125 15 8.28437 15 8.5125V9.16875C14.65 9.29375 14.3281 9.48125 14.05 9.71875L13.4812 9.39062C13.2844 9.27813 13.0312 9.30938 12.8875 9.48438C12.7719 9.62812 12.6656 9.78125 12.5688 9.94063L12.4969 10.0625C12.4094 10.2219 12.3312 10.3875 12.2656 10.5594C12.1844 10.7719 12.2812 11.0062 12.4781 11.1187L13.0469 11.4469C13.0156 11.625 12.9969 11.8094 12.9969 11.9969C12.9969 12.1844 13.0156 12.3687 13.0469 12.5437L12.4781 12.8719C12.2812 12.9844 12.1812 13.2187 12.2656 13.4312C12.3312 13.6031 12.4094 13.7656 12.4969 13.925L12.5719 14.0531C12.6656 14.2125 12.7719 14.3625 12.8875 14.5063C13.0312 14.6844 13.2844 14.7156 13.4812 14.6L14.05 14.2812C14.3281 14.5187 14.65 14.7063 15 14.8313V15.4875C15 15.7156 15.1531 15.9187 15.3781 15.9531C15.5813 15.9844 15.7875 16 16 16C16.2125 16 16.4188 15.9844 16.6219 15.9531C16.8469 15.9187 17 15.7156 17 15.4875V14.8313C17.35 14.7063 17.6719 14.5187 17.95 14.2812L18.5187 14.6094C18.7156 14.7219 18.9687 14.6906 19.1125 14.5156C19.2281 14.3719 19.3344 14.2219 19.4281 14.0625L19.5031 13.9312C19.5906 13.7719 19.6688 13.6094 19.7344 13.4375C19.8156 13.225 19.7188 12.9906 19.5219 12.8781L18.9531 12.55C18.9844 12.3719 19.0031 12.1875 19.0031 12.0031C19.0031 11.8188 18.9844 11.6312 18.9531 11.4531L19.5219 11.125L19.5187 11.1219ZM14.75 12C14.75 11.6685 14.8817 11.3505 15.1161 11.1161C15.3505 10.8817 15.6685 10.75 16 10.75C16.3315 10.75 16.6495 10.8817 16.8839 11.1161C17.1183 11.3505 17.25 11.6685 17.25 12C17.25 12.3315 17.1183 12.6495 16.8839 12.8839C16.6495 13.1183 16.3315 13.25 16 13.25C15.6685 13.25 15.3505 13.1183 15.1161 12.8839C14.8817 12.6495 14.75 12.3315 14.75 12Z" fill="white"/>
</g>
<defs>
<clipPath id="clip0_2632_3274">
<path d="M0 0H19.9969V16H0V0Z" fill="white"/>
</clipPath>
</defs>
</svg>
