<svg width="36" height="36" viewBox="0 0 36 36" fill="none" xmlns="http://www.w3.org/2000/svg">
<g clip-path="url(#clip0_864_447)">
<path d="M18 2.25C18.9984 2.25 19.9195 2.77734 20.4258 3.64219L35.6133 29.5172C36.1266 30.3891 36.1266 31.4648 35.6273 32.3367C35.1281 33.2086 34.193 33.75 33.1875 33.75H2.8125C1.80703 33.75 0.871874 33.2086 0.372655 32.3367C-0.126564 31.4648 -0.119532 30.382 0.386717 29.5172L15.5742 3.64219C16.0805 2.77734 17.0016 2.25 18 2.25ZM18 11.25C17.0648 11.25 16.3125 12.0023 16.3125 12.9375V20.8125C16.3125 21.7477 17.0648 22.5 18 22.5C18.9352 22.5 19.6875 21.7477 19.6875 20.8125V12.9375C19.6875 12.0023 18.9352 11.25 18 11.25ZM20.25 27C20.25 26.4033 20.0129 25.831 19.591 25.409C19.169 24.9871 18.5967 24.75 18 24.75C17.4033 24.75 16.831 24.9871 16.409 25.409C15.9871 25.831 15.75 26.4033 15.75 27C15.75 27.5967 15.9871 28.169 16.409 28.591C16.831 29.0129 17.4033 29.25 18 29.25C18.5967 29.25 19.169 29.0129 19.591 28.591C20.0129 28.169 20.25 27.5967 20.25 27Z" fill="#EAB308"/>
</g>
<defs>
<clipPath id="clip0_864_447">
<path d="M0 0H36V36H0V0Z" fill="white"/>
</clipPath>
</defs>
</svg>
