<svg width="25" height="26" viewBox="0 0 25 26" fill="none" xmlns="http://www.w3.org/2000/svg">
<path d="M0 0.5C8.25 0.5 16.5 0.5 25 0.5C25 8.75 25 17 25 25.5C16.75 25.5 8.5 25.5 0 25.5C0 17.25 0 9 0 0.5Z" fill="white" fill-opacity="0.03"/>
<path d="M12.2837 14.8042C13.3167 14.8768 14.1753 14.742 15.1899 14.5625C16.2107 14.8145 16.6304 14.9608 17.1875 15.8516C17.2593 16.0449 17.3311 16.2383 17.4051 16.4375C16.9313 16.8342 16.4574 17.231 15.9835 17.6277C15.2453 18.6872 15.0987 19.8733 14.8735 21.125C13.4626 21.1431 12.0518 21.1542 10.6409 21.1641C10.2387 21.1693 9.83643 21.1745 9.42202 21.1799C9.03857 21.1819 8.65511 21.184 8.26004 21.186C7.90539 21.1893 7.55075 21.1926 7.18536 21.196C6.32916 21.125 6.32916 21.125 5.69625 20.5C5.45805 18.9792 5.54568 17.7021 6.19071 16.3008C8.07908 14.3404 9.69583 14.4913 12.2837 14.8042Z" fill="#DAA520"/>
<path d="M13.6076 6.75037C14.5925 7.28462 15.3124 7.92987 15.8228 8.93787C15.9486 10.4293 15.9729 11.1519 15.269 12.4926C14.2555 13.6602 13.7644 13.8859 12.2231 14.0551C10.8636 13.9162 10.2285 13.5329 9.17718 12.6879C8.27681 11.3542 8.2742 10.1892 8.54427 8.62537C9.57398 6.5877 11.4895 6.28595 13.6076 6.75037Z" fill="#DAA520"/>
<path d="M20.2532 14.875C20.7957 15.4873 21.3241 16.1121 21.8354 16.75C21.3351 17.9184 20.6022 18.7272 19.7191 19.6406C19.4568 19.9194 19.1945 20.1981 18.9243 20.4854C17.8199 21.2824 17.1603 21.2488 15.8228 21.125C15.6011 18.9826 15.6011 18.9826 16.1686 18.0671C16.6485 17.5416 17.1486 17.0662 17.682 16.5938C17.8578 16.4262 18.0336 16.2586 18.2147 16.0859C19.513 14.875 19.513 14.875 20.2532 14.875Z" fill="#DAA520"/>
<path d="M21.5192 13C22.3934 13.0909 22.9706 13.2221 23.6948 13.7227C24.0508 14.25 24.0508 14.25 24.0311 14.875C23.6589 15.659 23.1968 15.9736 22.4686 16.4375C21.842 15.8187 21.2154 15.2 20.5698 14.5625C21.1632 13.3516 21.1632 13.3516 21.5192 13Z" fill="#DAA520"/>
</svg>
