<svg width="21" height="23" viewBox="0 0 21 23" fill="none" xmlns="http://www.w3.org/2000/svg">
<path d="M20.6181 21.0548L16.1115 16.5406C17.3269 15.059 18.0528 13.1611 18.0528 11.0958C18.0528 6.34892 14.207 2.5 9.46391 2.5C4.72084 2.5 0.875 6.34892 0.875 11.0958C0.875 15.8427 4.72084 19.6916 9.46391 19.6916C11.5357 19.6916 13.4362 18.9569 14.9207 17.7324L19.4272 22.2426C19.9533 22.7242 20.4468 22.414 20.6181 22.2426C20.9606 21.9038 20.9606 21.3936 20.6181 21.0548ZM2.55118 11.0958C2.55118 7.27544 5.64662 4.17753 9.46391 4.17753C13.2812 4.17753 16.3807 7.27544 16.3807 11.0958C16.3807 14.9161 13.2853 18.014 9.46799 18.014C5.65069 18.014 2.55118 14.9161 2.55118 11.0958Z" fill="white"/>
</svg>
