<svg width="24" height="21" viewBox="0 0 24 21" fill="none" xmlns="http://www.w3.org/2000/svg">
<path d="M23.791 19.2482L12.9578 0.552915C12.7596 0.210736 12.3933 0 11.9968 0C11.6004 0 11.2339 0.210736 11.0357 0.552915L0.148646 19.3411C-0.0495485 19.6832 -0.0495485 20.1047 0.148646 20.4469C0.34684 20.7891 0.713313 20.9999 1.1097 20.9999H22.884C22.8861 20.9999 22.8886 21.0002 22.8902 20.9999C23.5036 20.9999 24 20.5049 24 19.894C24 19.6527 23.9223 19.4299 23.791 19.2482ZM3.03197 18.7881L11.9968 3.31749L20.9615 18.7885L3.03197 18.7881ZM11.424 7.05264H12.5757C12.6701 7.05264 12.7608 7.09059 12.8272 7.15814C12.8931 7.226 12.9287 7.31704 12.9263 7.41158L12.6949 14.6505C12.6899 14.8405 12.5339 14.9917 12.3437 14.9917H11.6561C11.4657 14.9917 11.3096 14.8402 11.3051 14.6505L11.0736 7.41158C11.0712 7.31699 11.107 7.226 11.1729 7.15814C11.2389 7.09059 11.3296 7.05264 11.424 7.05264ZM12.9117 15.9526V17.263C12.9117 17.4561 12.7546 17.6126 12.5605 17.6126H11.4396C11.2455 17.6126 11.0886 17.4561 11.0886 17.263V15.9526C11.0886 15.7594 11.2455 15.6027 11.4396 15.6027H12.5605C12.7546 15.6024 12.9117 15.7594 12.9117 15.9526Z" fill="#F57C00"/>
</svg>
