<svg width="14" height="17" viewBox="0 0 14 17" fill="none" xmlns="http://www.w3.org/2000/svg">
<path d="M4.225 1.05313C4.39375 0.7125 4.74062 0.5 5.11875 0.5H8.88125C9.25938 0.5 9.60625 0.7125 9.775 1.05313L10 1.5H13C13.5531 1.5 14 1.94687 14 2.5C14 3.05312 13.5531 3.5 13 3.5H1C0.446875 3.5 0 3.05312 0 2.5C0 1.94687 0.446875 1.5 1 1.5H4L4.225 1.05313ZM1 4.5H13V14.5C13 15.6031 12.1031 16.5 11 16.5H3C1.89688 16.5 1 15.6031 1 14.5V4.5ZM4 6.5C3.725 6.5 3.5 6.725 3.5 7V14C3.5 14.275 3.725 14.5 4 14.5C4.275 14.5 4.5 14.275 4.5 14V7C4.5 6.725 4.275 6.5 4 6.5ZM7 6.5C6.725 6.5 6.5 6.725 6.5 7V14C6.5 14.275 6.725 14.5 7 14.5C7.275 14.5 7.5 14.275 7.5 14V7C7.5 6.725 7.275 6.5 7 6.5ZM10 6.5C9.725 6.5 9.5 6.725 9.5 7V14C9.5 14.275 9.725 14.5 10 14.5C10.275 14.5 10.5 14.275 10.5 14V7C10.5 6.725 10.275 6.5 10 6.5Z" fill="white"/>
</svg>
