<svg width="3" height="15" viewBox="0 0 3 15" fill="none" xmlns="http://www.w3.org/2000/svg">
<path d="M1.22 2.54C0.54 2.54 0.0200001 1.98 0.0200001 1.34C0.0200001 0.679999 0.56 0.14 1.22 0.14C1.88 0.14 2.42 0.659999 2.42 1.34C2.42 2 1.88 2.54 1.22 2.54ZM1.22 8.66C0.54 8.66 0.0200001 8.1 0.0200001 7.46C0.0200001 6.8 0.56 6.26 1.22 6.26C1.84 6.26 2.42 6.76 2.42 7.46C2.42 8.12 1.88 8.66 1.22 8.66ZM1.22 14.7C0.54 14.7 0.0200001 14.14 0.0200001 13.5C0.0200001 12.88 0.52 12.3 1.22 12.3C1.88 12.3 2.42 12.84 2.42 13.5C2.42 14.18 1.88 14.7 1.22 14.7Z" fill="#565656"/>
</svg>
