<svg width="20" height="20" viewBox="0 0 20 20" fill="none" xmlns="http://www.w3.org/2000/svg">
<path d="M6.03571 0.691406L5.71429 1.25H1.42857C0.638393 1.25 0 1.80859 0 2.5C0 3.19141 0.638393 3.75 1.42857 3.75H18.5714C19.3616 3.75 20 3.19141 20 2.5C20 1.80859 19.3616 1.25 18.5714 1.25H14.2857L13.9643 0.691406C13.7232 0.265625 13.2277 0 12.6875 0H7.3125C6.77232 0 6.27679 0.265625 6.03571 0.691406ZM18.5714 5H1.42857L2.375 18.2422C2.44643 19.2305 3.38393 20 4.51339 20H15.4866C16.6161 20 17.5536 19.2305 17.625 18.2422L18.5714 5Z" fill="#565656"/>
</svg>
