<svg width="17" height="17" viewBox="0 0 17 17" fill="none" xmlns="http://www.w3.org/2000/svg">
<g clip-path="url(#clip0_673_20544)">
<path d="M8.49051 10.8172C8.15071 10.8172 7.87118 10.5496 7.85625 10.2103L7.27107 4.56247C7.21789 3.85301 7.779 3.24805 8.49051 3.24805C9.20202 3.24805 9.76313 3.85301 9.70995 4.56247L9.12458 10.2103C9.10984 10.5498 8.83031 10.8172 8.49051 10.8172Z" fill="#D92D20" fill-opacity="0.8"/>
<path d="M8.49087 13.7327C9.04944 13.7327 9.50225 13.2799 9.50225 12.7213C9.50225 12.1628 9.04944 11.71 8.49087 11.71C7.9323 11.71 7.47949 12.1628 7.47949 12.7213C7.47949 13.2799 7.9323 13.7327 8.49087 13.7327Z" fill="#D92D20" fill-opacity="0.8"/>
<path d="M8.49082 16.8879C3.86068 16.8879 0.09375 13.121 0.09375 8.49082C0.09375 3.86068 3.86068 0.09375 8.49082 0.09375C13.121 0.09375 16.8879 3.86068 16.8879 8.49082C16.8879 13.121 13.121 16.8879 8.49082 16.8879ZM8.49082 1.21336C4.47795 1.21336 1.21336 4.47795 1.21336 8.49082C1.21336 12.5037 4.47795 15.7683 8.49082 15.7683C12.5037 15.7683 15.7683 12.5037 15.7683 8.49082C15.7683 4.47795 12.5037 1.21336 8.49082 1.21336Z" fill="#D92D20" fill-opacity="0.8"/>
</g>
<defs>
<clipPath id="clip0_673_20544">
<rect width="17" height="17" fill="white"/>
</clipPath>
</defs>
</svg>
