<svg width="20" height="16" viewBox="0 0 20 16" fill="none" xmlns="http://www.w3.org/2000/svg">
<path d="M8.43687 7.88934C10.6119 7.88934 12.3756 6.12559 12.3756 3.95059C12.3756 1.77559 10.6119 0.0118408 8.43687 0.0118408C6.26187 0.0118408 4.49813 1.77559 4.49813 3.95059C4.50063 6.12497 6.26312 7.88684 8.43687 7.88934ZM8.43687 0.949341C10.0944 0.949341 11.4381 2.29309 11.4381 3.95059C11.4381 5.60809 10.0944 6.95184 8.43687 6.95184C6.77937 6.95184 5.43563 5.60809 5.43563 3.95059C5.4375 2.29372 6.78 0.951216 8.43687 0.949341ZM8.43687 9.26997C4.71437 9.28559 1.6025 11.8843 0.801875 15.3656L0.791875 15.4187C0.785 15.4487 0.78125 15.4831 0.78125 15.5187C0.78125 15.7775 0.99125 15.9875 1.25 15.9875C1.47312 15.9875 1.66 15.8312 1.70688 15.6218L1.7075 15.6187C2.41 12.5012 5.15562 10.2075 8.4375 10.2075C11.7194 10.2075 14.4644 12.5012 15.1587 15.5725L15.1675 15.6187C15.2125 15.8312 15.3988 15.9881 15.6213 15.9881C15.6581 15.9881 15.6944 15.9837 15.7288 15.9756L15.7256 15.9762C15.9381 15.9287 16.0944 15.7418 16.0944 15.5181C16.0944 15.4825 16.0906 15.4481 16.0831 15.415L16.0838 15.4181C15.2719 11.8843 12.1613 9.28559 8.44 9.26934H8.43812L8.43687 9.26997ZM19.0656 4.92309C18.9825 4.84747 18.8719 4.80122 18.75 4.80122C18.6131 4.80122 18.49 4.85934 18.4044 4.95247V4.95309L15.4506 8.18184L14.7019 7.43872C14.6169 7.35372 14.5 7.30122 14.37 7.30122C14.1106 7.30122 13.9006 7.51122 13.9006 7.77059C13.9006 7.90122 13.9538 8.01872 14.04 8.10372L15.135 9.19059L15.1456 9.19497L15.15 9.20434C15.2312 9.28059 15.3406 9.32747 15.4613 9.32747C15.5863 9.32747 15.6994 9.27684 15.7819 9.19559C15.7869 9.19122 15.7944 9.19309 15.7994 9.18809L15.8025 9.18059L15.8119 9.17372L19.0956 5.58497C19.1719 5.50184 19.2188 5.39059 19.2188 5.26872C19.2188 5.13184 19.16 5.00872 19.0669 4.92309L19.0662 4.92247L19.0656 4.92309Z" fill="white"/>
</svg>
