<svg width="50" height="50" viewBox="0 0 21 20" fill="none" xmlns="http://www.w3.org/2000/svg">
<circle cx="10.7188" cy="10" r="10" transform="rotate(-90 10.7188 10)" fill="#008A91"/>
<path fill-rule="evenodd" clip-rule="evenodd" d="M7.01944 14.7708C6.83615 14.6278 6.73599 14.4359 6.74097 14.2375C6.74596 14.039 6.85569 13.8502 7.04604 13.7124L12.2831 10.008L7.04604 6.30355C6.94717 6.23621 6.86731 6.15466 6.81119 6.06373C6.75507 5.9728 6.72383 5.87433 6.71932 5.77416C6.71481 5.674 6.73713 5.57417 6.78495 5.4806C6.83277 5.38703 6.90511 5.30162 6.9977 5.22942C7.09029 5.15723 7.20124 5.09973 7.32397 5.06032C7.4467 5.02091 7.57872 5.0004 7.71221 5.00001C7.84569 4.99961 7.97792 5.01933 8.10106 5.05801C8.22421 5.09669 8.33576 5.15353 8.42911 5.22517L14.4135 9.46879C14.5101 9.53865 14.5868 9.6224 14.6393 9.71504C14.6917 9.80768 14.7187 9.90732 14.7187 10.008C14.7187 10.1086 14.6917 10.2083 14.6393 10.3009C14.5868 10.3936 14.5101 10.4773 14.4135 10.5472L8.42911 14.7908C8.23859 14.9284 7.9831 15.0036 7.71877 14.9999C7.45444 14.9961 7.20291 14.9137 7.01944 14.7708Z" fill="white"/>
</svg>
