<svg width="123" height="36" viewBox="0 0 123 36" fill="none" xmlns="http://www.w3.org/2000/svg">
                            <path d="M0.826031 16L6.73003 0.543999H10.906L16.81 16H12.778L11.386 12.496H6.22603L4.85803 16H0.826031ZM6.75403 9.64H10.858L8.79403 4.264L6.75403 9.64ZM18.767 16V0.543999H25.463C27.031 0.543999 28.351 0.807999 29.423 1.336C30.495 1.848 31.311 2.68 31.871 3.832C32.431 4.968 32.711 6.48 32.711 8.368C32.711 11.024 32.095 12.96 30.863 14.176C29.647 15.392 27.847 16 25.463 16H18.767ZM22.631 13.024H24.935C25.767 13.024 26.463 12.904 27.023 12.664C27.599 12.408 28.031 11.944 28.319 11.272C28.623 10.6 28.775 9.632 28.775 8.368C28.775 7.088 28.639 6.104 28.367 5.416C28.111 4.712 27.695 4.224 27.119 3.952C26.559 3.664 25.831 3.52 24.935 3.52H22.631V13.024ZM34.681 16V0.543999H38.497L42.697 9.112L46.873 0.543999H50.665V16H46.801V7.12L43.753 13.36H41.617L38.545 7.12V16H34.681ZM53.1029 16V0.543999H56.9669V16H53.1029ZM64.3276 16.24C63.3036 16.24 62.3436 16.16 61.4476 16C60.5676 15.856 59.8076 15.64 59.1676 15.352V12.064C59.8716 12.368 60.6476 12.616 61.4956 12.808C62.3596 13 63.1756 13.096 63.9436 13.096C64.9036 13.096 65.6156 13.008 66.0796 12.832C66.5596 12.656 66.7996 12.272 66.7996 11.68C66.7996 11.28 66.6796 10.96 66.4396 10.72C66.2156 10.48 65.8396 10.272 65.3116 10.096C64.7996 9.904 64.0956 9.68 63.1996 9.424C62.1436 9.104 61.3036 8.752 60.6796 8.368C60.0556 7.968 59.6076 7.488 59.3356 6.928C59.0636 6.368 58.9276 5.68 58.9276 4.864C58.9276 3.392 59.4556 2.264 60.5116 1.48C61.5676 0.695999 63.1276 0.303999 65.1916 0.303999C66.0876 0.303999 66.9596 0.375999 67.8076 0.519999C68.6556 0.647999 69.3436 0.799999 69.8716 0.975999V4.288C69.1836 4.016 68.4876 3.816 67.7836 3.688C67.0956 3.56 66.4236 3.496 65.7676 3.496C64.9036 3.496 64.1996 3.576 63.6556 3.736C63.1276 3.896 62.8636 4.264 62.8636 4.84C62.8636 5.176 62.9596 5.448 63.1516 5.656C63.3436 5.848 63.6716 6.024 64.1356 6.184C64.6156 6.344 65.2636 6.536 66.0796 6.76C67.3436 7.096 68.3116 7.504 68.9836 7.984C69.6556 8.448 70.1196 8.992 70.3756 9.616C70.6316 10.224 70.7596 10.912 70.7596 11.68C70.7596 13.04 70.2316 14.144 69.1756 14.992C68.1196 15.824 66.5036 16.24 64.3276 16.24ZM77.1713 16.24C76.1473 16.24 75.1873 16.16 74.2913 16C73.4113 15.856 72.6513 15.64 72.0113 15.352V12.064C72.7153 12.368 73.4913 12.616 74.3393 12.808C75.2033 13 76.0193 13.096 76.7873 13.096C77.7473 13.096 78.4593 13.008 78.9233 12.832C79.4033 12.656 79.6433 12.272 79.6433 11.68C79.6433 11.28 79.5233 10.96 79.2833 10.72C79.0593 10.48 78.6833 10.272 78.1553 10.096C77.6433 9.904 76.9393 9.68 76.0433 9.424C74.9873 9.104 74.1473 8.752 73.5233 8.368C72.8993 7.968 72.4513 7.488 72.1793 6.928C71.9073 6.368 71.7713 5.68 71.7713 4.864C71.7713 3.392 72.2993 2.264 73.3553 1.48C74.4113 0.695999 75.9713 0.303999 78.0353 0.303999C78.9313 0.303999 79.8033 0.375999 80.6513 0.519999C81.4993 0.647999 82.1873 0.799999 82.7153 0.975999V4.288C82.0273 4.016 81.3313 3.816 80.6273 3.688C79.9393 3.56 79.2673 3.496 78.6113 3.496C77.7473 3.496 77.0433 3.576 76.4993 3.736C75.9713 3.896 75.7073 4.264 75.7073 4.84C75.7073 5.176 75.8033 5.448 75.9953 5.656C76.1873 5.848 76.5153 6.024 76.9793 6.184C77.4593 6.344 78.1073 6.536 78.9233 6.76C80.1873 7.096 81.1553 7.504 81.8273 7.984C82.4993 8.448 82.9633 8.992 83.2193 9.616C83.4753 10.224 83.6033 10.912 83.6033 11.68C83.6033 13.04 83.0753 14.144 82.0193 14.992C80.9633 15.824 79.3473 16.24 77.1713 16.24ZM85.5638 16V0.543999H89.4278V16H85.5638ZM99.0925 16.24C96.5805 16.24 94.6685 15.6 93.3565 14.32C92.0445 13.04 91.3885 11.048 91.3885 8.344C91.3885 5.48 92.0445 3.424 93.3565 2.176C94.6685 0.927999 96.5805 0.303999 99.0925 0.303999C101.605 0.303999 103.517 0.927999 104.829 2.176C106.141 3.424 106.797 5.48 106.797 8.344C106.797 11.048 106.141 13.04 104.829 14.32C103.517 15.6 101.605 16.24 99.0925 16.24ZM99.0925 12.952C100.389 12.952 101.333 12.584 101.925 11.848C102.533 11.096 102.837 9.928 102.837 8.344C102.837 6.616 102.533 5.4 101.925 4.696C101.333 3.976 100.389 3.616 99.0925 3.616C97.7805 3.616 96.8205 3.976 96.2125 4.696C95.6205 5.4 95.3245 6.616 95.3245 8.344C95.3245 9.928 95.6205 11.096 96.2125 11.848C96.8205 12.584 97.7805 12.952 99.0925 12.952ZM108.767 16V0.543999H112.079L118.655 9.784V0.543999H122.543V16H119.207L112.631 6.784V16H108.767ZM28.0838 36L33.9878 20.544H38.1638L44.0678 36H40.0358L38.6438 32.496H33.4838L32.1158 36H28.0838ZM34.0118 29.64H38.1158L36.0518 24.264L34.0118 29.64ZM46.0248 36V20.544H52.7208C54.2888 20.544 55.6088 20.808 56.6808 21.336C57.7528 21.848 58.5688 22.68 59.1288 23.832C59.6888 24.968 59.9688 26.48 59.9688 28.368C59.9688 31.024 59.3528 32.96 58.1208 34.176C56.9048 35.392 55.1048 36 52.7208 36H46.0248ZM49.8888 33.024H52.1928C53.0248 33.024 53.7208 32.904 54.2808 32.664C54.8568 32.408 55.2888 31.944 55.5768 31.272C55.8808 30.6 56.0328 29.632 56.0328 28.368C56.0328 27.088 55.8968 26.104 55.6248 25.416C55.3688 24.712 54.9528 24.224 54.3768 23.952C53.8168 23.664 53.0888 23.52 52.1928 23.52H49.8888V33.024ZM61.9388 36V20.544H65.7548L69.9548 29.112L74.1308 20.544H77.9228V36H74.0588V27.12L71.0108 33.36H68.8748L65.8028 27.12V36H61.9388ZM80.3607 36V20.544H84.2247V36H80.3607ZM86.6654 36V20.544H89.9774L96.5534 29.784V20.544H100.441V36H97.1054L90.5294 26.784V36H86.6654Z" fill="white" />
                        </svg>