                    <svg width="25" height="26" viewBox="0 0 25 26" fill="none" xmlns="http://www.w3.org/2000/svg">
                        <g clipPath="url(#clip0_504_4899)">
                            <path d="M24.5124 20.4139L19.0189 14.9204C18.7698 14.6714 18.4377 14.5343 18.0838 14.5343C17.9341 14.5343 17.7888 14.5603 17.6516 14.6074L16.3342 13.29C16.1376 13.0933 15.8753 12.985 15.5959 12.985C15.3166 12.985 15.0544 13.0933 14.8578 13.2899L14.5113 13.6364L13.8917 13.0167L16.6035 10.2906C17.2372 10.5654 17.9259 10.6968 18.6374 10.6968C18.6375 10.6968 18.6377 10.6968 18.6379 10.6968C20.0032 10.6968 21.287 10.1792 22.2527 9.21354C23.5465 7.91987 24.0512 6.02523 23.5699 4.25775C23.5101 4.03789 23.3037 3.88186 23.079 3.88186C22.9823 3.88186 22.8387 3.91213 22.7039 4.04694C22.6854 4.06517 20.8587 5.87887 20.2551 6.48256C20.1886 6.54902 20.0789 6.55939 20.0149 6.55939C19.9691 6.55939 19.9438 6.55459 19.9438 6.55459V6.55473L19.9025 6.55C19.1521 6.48109 18.252 6.34232 18.0248 6.23758C17.9165 6.00867 17.7863 5.08693 17.7167 4.32442V4.31419L17.7004 4.29276C17.6964 4.259 17.6788 4.08689 17.8301 3.93565C18.4584 3.30726 20.1857 1.56435 20.2022 1.54771C20.3483 1.40163 20.404 1.21789 20.3575 1.04348C20.3017 0.834413 20.124 0.717351 19.9769 0.677611C19.541 0.559784 19.09 0.5 18.6373 0.5C17.2718 0.5 15.9879 1.03172 15.0224 1.99717C13.4982 3.52141 13.1408 5.77601 13.9474 7.64434L11.2334 10.3583L6.58968 5.71469C6.58683 5.71184 6.5837 5.70947 6.58077 5.70669C6.62462 5.52803 6.6439 5.34249 6.63583 5.1536C6.61293 4.61562 6.37672 4.09573 5.97062 3.6897L4.31797 2.03691C4.28185 2.00079 4.08704 1.82053 3.79843 1.82053C3.66438 1.82053 3.46415 1.86111 3.27088 2.05431L1.45962 3.86564C1.24937 4.07589 1.17441 4.34607 1.25403 4.60699C1.30741 4.78182 1.41118 4.89505 1.44173 4.9256L3.08826 6.57213C3.5183 7.00217 4.06846 7.23901 4.63742 7.23901H4.63749C4.79666 7.23901 4.95339 7.21945 5.10525 7.18208C5.1081 7.185 5.11047 7.18813 5.11332 7.19098L9.75697 11.8346L7.5513 14.0403C7.45192 14.1397 7.36555 14.2485 7.29199 14.3642C6.64606 14.0766 5.94153 13.9239 5.21319 13.9239C3.84749 13.9239 2.56357 14.4557 1.59791 15.4214C0.30417 16.7151 -0.200547 18.6169 0.280716 20.3843C0.3405 20.6041 0.546925 20.7637 0.771514 20.7637H0.771584C0.868254 20.7637 1.0119 20.7352 1.14671 20.6004C1.16515 20.5821 2.99194 18.7693 3.59562 18.1657C3.66209 18.0992 3.77929 18.0893 3.84318 18.0893C3.88911 18.0893 3.92147 18.0943 3.92196 18.0943H3.92189L3.95578 18.0991C4.70597 18.1679 5.6131 18.3067 5.84033 18.4115C5.94862 18.6405 6.08914 19.5623 6.15728 20.3248L6.16215 20.3596C6.16257 20.3614 6.18734 20.5525 6.02629 20.7136C5.3979 21.342 3.66779 23.0849 3.65137 23.1015C3.50521 23.2476 3.44814 23.4314 3.49463 23.6058C3.55045 23.8148 3.72751 23.9318 3.87456 23.9716C4.31052 24.0895 4.76109 24.1493 5.21382 24.1493C6.57938 24.1493 7.8631 23.6175 8.82855 22.6521C9.79427 21.6864 10.3261 20.4024 10.3261 19.0367C10.3261 18.3084 10.1734 17.604 9.8858 16.958C10.0016 16.8845 10.1104 16.7981 10.2097 16.6987L12.4154 14.493L13.0351 15.1127L12.6886 15.4592C12.4919 15.6558 12.3836 15.918 12.3836 16.1973C12.3836 16.4768 12.4919 16.7389 12.6886 16.9355L14.006 18.2529C13.9589 18.3902 13.9329 18.5354 13.9329 18.6851C13.9329 19.039 14.0701 19.3711 14.3191 19.6201L19.8127 25.1137C20.0616 25.3626 20.3938 25.4998 20.7477 25.4998C21.1017 25.4998 21.4337 25.3626 21.6828 25.1137L24.5125 22.2839C24.7615 22.0348 24.8987 21.7028 24.8987 21.3488C24.8986 20.9951 24.7615 20.6629 24.5124 20.4139Z" fill="white" />
                        </g>
                        <defs>
                            <clipPath id="clip0_504_4899">
                                <rect width="25" height="25" fill="white" transform="translate(0 0.5)" />
                            </clipPath>
                        </defs>
                    </svg>