                    <svg width="25" height="26" viewBox="0 0 25 26" fill="none" xmlns="http://www.w3.org/2000/svg">
                        <g clipPath="url(#clip0_504_4830)">
                            <path d="M0 13C0 9.68479 1.31696 6.50537 3.66117 4.16117C6.00537 1.81696 9.18479 0.5 12.5 0.5C15.8152 0.5 18.9946 1.81696 21.3388 4.16117C23.683 6.50537 25 9.68479 25 13C25 16.3152 23.683 19.4946 21.3388 21.8388C18.9946 24.183 15.8152 25.5 12.5 25.5C9.18479 25.5 6.00537 24.183 3.66117 21.8388C1.31696 19.4946 0 16.3152 0 13ZM14.0625 5.1875C14.0625 4.7731 13.8979 4.37567 13.6049 4.08265C13.3118 3.78962 12.9144 3.625 12.5 3.625C12.0856 3.625 11.6882 3.78962 11.3951 4.08265C11.1021 4.37567 10.9375 4.7731 10.9375 5.1875C10.9375 5.6019 11.1021 5.99933 11.3951 6.29235C11.6882 6.58538 12.0856 6.75 12.5 6.75C12.9144 6.75 13.3118 6.58538 13.6049 6.29235C13.8979 5.99933 14.0625 5.6019 14.0625 5.1875ZM12.5 20.8125C14.2236 20.8125 15.625 19.4111 15.625 17.6875C15.625 16.8379 15.2881 16.0713 14.7412 15.5098L17.8711 8.39551C18.1299 7.80469 17.8613 7.11133 17.2705 6.85254C16.6797 6.59375 15.9863 6.8623 15.7275 7.45312L12.5928 14.5625C12.5635 14.5625 12.5293 14.5625 12.5 14.5625C10.7764 14.5625 9.375 15.9639 9.375 17.6875C9.375 19.4111 10.7764 20.8125 12.5 20.8125ZM8.59375 7.53125C8.59375 7.11685 8.42913 6.71942 8.1361 6.4264C7.84308 6.13337 7.44565 5.96875 7.03125 5.96875C6.61685 5.96875 6.21942 6.13337 5.9264 6.4264C5.63337 6.71942 5.46875 7.11685 5.46875 7.53125C5.46875 7.94565 5.63337 8.34308 5.9264 8.6361C6.21942 8.92913 6.61685 9.09375 7.03125 9.09375C7.44565 9.09375 7.84308 8.92913 8.1361 8.6361C8.42913 8.34308 8.59375 7.94565 8.59375 7.53125ZM4.6875 14.5625C5.1019 14.5625 5.49933 14.3979 5.79235 14.1049C6.08538 13.8118 6.25 13.4144 6.25 13C6.25 12.5856 6.08538 12.1882 5.79235 11.8951C5.49933 11.6021 5.1019 11.4375 4.6875 11.4375C4.2731 11.4375 3.87567 11.6021 3.58265 11.8951C3.28962 12.1882 3.125 12.5856 3.125 13C3.125 13.4144 3.28962 13.8118 3.58265 14.1049C3.87567 14.3979 4.2731 14.5625 4.6875 14.5625ZM21.875 13C21.875 12.5856 21.7104 12.1882 21.4174 11.8951C21.1243 11.6021 20.7269 11.4375 20.3125 11.4375C19.8981 11.4375 19.5007 11.6021 19.2076 11.8951C18.9146 12.1882 18.75 12.5856 18.75 13C18.75 13.4144 18.9146 13.8118 19.2076 14.1049C19.5007 14.3979 19.8981 14.5625 20.3125 14.5625C20.7269 14.5625 21.1243 14.3979 21.4174 14.1049C21.7104 13.8118 21.875 13.4144 21.875 13Z" fill="white" />
                        </g>
                        <defs>
                            <clipPath id="clip0_504_4830">
                                <path d="M0 0.5H25V25.5H0V0.5Z" fill="white" />
                            </clipPath>
                        </defs>
                    </svg>