<svg width="32" height="60" viewBox="0 0 32 60" fill="none" xmlns="http://www.w3.org/2000/svg">
<path fill-rule="evenodd" clip-rule="evenodd" d="M21.3582 6.26281C21.2067 6.31973 21.0555 6.46401 20.9852 6.61875C20.9134 6.77689 20.9088 6.93937 20.908 9.36197C20.9071 11.8453 20.9042 11.9428 20.826 12.0961C20.6909 12.3607 20.5303 12.4364 19.6003 12.6731C19.493 12.7004 19.3535 12.7821 19.2517 12.877L19.0821 13.0352V15.4946C19.0821 17.8959 19.084 17.9561 19.1641 18.0459C19.3351 18.2377 19.4288 18.2496 20.7663 18.2496C22.1329 18.2496 22.2393 18.2341 22.3368 18.0201C22.371 17.9451 22.3835 16.4118 22.3835 12.2933V6.6689L22.2919 6.53525C22.1521 6.33113 21.9438 6.23262 21.6602 6.23643C21.5279 6.2382 21.392 6.25009 21.3582 6.26281ZM6.65848 24.0569C6.35926 24.1292 6.15806 24.2772 6.05729 24.4991C5.98364 24.6613 5.98073 24.8791 5.98286 30.0815C5.9845 34.1225 5.99729 35.5266 6.03322 35.6195C6.10675 35.8096 6.19091 35.9083 6.36947 36.0138L6.5325 36.1102H10.3261H14.1196L14.3464 35.9988C14.4712 35.9375 14.6281 35.8302 14.695 35.7603L14.8168 35.6332V34.1902V32.7472L14.7143 32.5449C14.5808 32.2815 14.4166 32.1935 14.0588 32.1936C13.7056 32.1937 13.5328 32.2809 13.4122 32.5201C13.3274 32.6882 13.3199 32.7591 13.3199 33.3939C13.3199 34.2558 13.2857 34.4053 13.03 34.6609C12.7027 34.9883 12.7129 34.9871 10.3208 34.9735L8.25498 34.9618L8.01831 34.8456C7.86845 34.772 7.74435 34.6745 7.67996 34.5798L7.57829 34.4302L7.57838 30.1437C7.57842 25.3161 7.55229 25.7008 7.89785 25.4391C8.19256 25.216 8.29969 25.2011 9.60837 25.2011C10.9399 25.2011 11.0733 25.2225 11.3772 25.485L11.5359 25.6221L11.5564 26.4779C11.5797 27.4508 11.5987 27.5168 11.9206 27.7432L12.0964 27.8668L13.1427 27.8791C14.3109 27.8927 14.4776 27.8668 14.6975 27.6375L14.8168 27.5129L14.8278 25.9674C14.8382 24.4817 14.8355 24.4167 14.7564 24.2882C14.7111 24.2147 14.6139 24.1179 14.5404 24.073C14.4095 23.9932 14.3294 23.9916 10.6542 23.9948C7.54401 23.9975 6.85997 24.0081 6.65848 24.0569ZM16.1167 41.9501C15.5319 42.1521 15.4469 42.6606 15.9536 42.9265L16.1702 43.0402L17.4006 43.0639C18.2195 43.0796 18.6704 43.1041 18.7491 43.1371C18.9418 43.218 19.0991 43.3466 19.1749 43.4852C19.2411 43.6061 19.2475 43.9705 19.2666 48.6187C19.2837 52.7868 19.2967 53.6407 19.3443 53.7334C19.3757 53.7946 19.4756 53.8961 19.5664 53.959L19.7312 54.0732H20.8831C21.9532 54.0732 22.0465 54.0674 22.1978 53.9912C22.2882 53.9457 22.3977 53.8453 22.4439 53.7657C22.5259 53.6241 22.5273 53.5517 22.5475 48.5759C22.5705 42.9363 22.542 43.4198 22.8633 43.2201C23.0153 43.1256 23.0487 43.1226 24.2085 43.1008C25.2315 43.0816 25.4222 43.0681 25.5716 43.0043C25.9983 42.8221 26.1333 42.4137 25.8603 42.1303C25.6003 41.8602 25.8335 41.8722 20.8485 41.8736C16.5808 41.8749 16.3224 41.8791 16.1167 41.9501Z" fill="#F3F3CB"/>
<path fill-rule="evenodd" clip-rule="evenodd" d="M15.6882 3.80446L10.6128 6.66092L10.6232 12.4213L10.6336 18.1817L15.6985 21.044C18.4842 22.6183 20.7819 23.9065 20.8045 23.9067C20.827 23.907 23.1339 22.6198 25.9309 21.0464L31.0164 18.1857V12.4275V6.66933L25.9514 3.80791C23.1657 2.23413 20.8588 0.946856 20.825 0.947266C20.7911 0.947717 18.4796 2.23343 15.6882 3.80446ZM21.3581 6.26385C21.2066 6.32077 21.0554 6.46505 20.9851 6.61979C20.9133 6.77793 20.9088 6.94042 20.9079 9.36301C20.907 11.8464 20.9041 11.9438 20.8259 12.0971C20.6909 12.3617 20.5302 12.4374 19.6003 12.6742C19.493 12.7015 19.3534 12.7831 19.2517 12.878L19.082 13.0363V15.4956C19.082 17.8969 19.0839 17.9571 19.164 18.0469C19.335 18.2387 19.4287 18.2506 20.7662 18.2506C22.1328 18.2506 22.2393 18.2351 22.3367 18.0212C22.3709 17.9461 22.3834 16.4129 22.3834 12.2943V6.66995L22.2918 6.53629C22.152 6.33217 21.9437 6.23366 21.6601 6.23748C21.5279 6.23924 21.392 6.25113 21.3581 6.26385ZM5.17905 21.325L0.093608 24.186L0.0722824 29.9436C0.0605121 33.1102 0.0512845 35.7037 0.0517766 35.707C0.0522277 35.7102 2.34712 37.008 5.15153 38.5911L10.2505 41.4694L10.8971 41.1074C11.2527 40.9084 13.5483 39.6198 15.9985 38.2438L20.4535 35.7421L20.4547 29.9764L20.4559 24.2107L15.5447 21.4384C12.8436 19.9137 10.5505 18.6207 10.449 18.5651L10.2645 18.4641L5.17905 21.325ZM26.341 21.3257L21.2556 24.1857L21.2314 29.9434C21.218 33.1101 21.2088 35.7037 21.2109 35.7069C21.2303 35.7372 31.417 41.4659 31.4294 41.4535C31.4385 41.4444 29.4906 40.1464 27.1008 38.569L22.7557 35.7011L22.7564 29.9595L22.7571 24.2178L27.0651 21.388C29.4344 19.8316 31.3937 18.5454 31.4191 18.5297C31.4444 18.514 31.4564 18.4932 31.4458 18.4835C31.4352 18.4737 29.138 19.7528 26.341 21.3257ZM6.65842 24.0579C6.3592 24.1303 6.158 24.2783 6.05723 24.5002C5.98357 24.6624 5.98066 24.8802 5.98279 30.0825C5.98443 34.1235 5.99723 35.5276 6.03316 35.6205C6.10669 35.8106 6.19085 35.9093 6.36941 36.0149L6.53243 36.1112H10.326H14.1196L14.3464 35.9998C14.4711 35.9385 14.628 35.8312 14.695 35.7613L14.8168 35.6342V34.1912V32.7483L14.7143 32.546C14.5807 32.2826 14.4165 32.1946 14.0587 32.1947C13.7055 32.1948 13.5327 32.282 13.4121 32.5211C13.3273 32.6893 13.3199 32.7601 13.3199 33.395C13.3199 34.2569 13.2857 34.4063 13.03 34.662C12.7027 34.9893 12.7128 34.9881 10.3208 34.9746L8.25492 34.9629L8.01824 34.8467C7.86839 34.7731 7.74428 34.6756 7.6799 34.5808L7.57823 34.4312L7.57831 30.1448C7.57835 25.3171 7.55223 25.7018 7.89779 25.4401C8.1925 25.217 8.29962 25.2021 9.6083 25.2021C10.9398 25.2021 11.0732 25.2235 11.3771 25.486L11.5359 25.6231L11.5564 26.4789C11.5797 27.4518 11.5987 27.5179 11.9206 27.7443L12.0964 27.8679L13.1426 27.8801C14.3109 27.8938 14.4776 27.8679 14.6974 27.6386L14.8168 27.514L14.8277 25.9684C14.8381 24.4827 14.8354 24.4177 14.7563 24.2892C14.711 24.2157 14.6139 24.1189 14.5403 24.0741C14.4094 23.9942 14.3294 23.9926 10.6541 23.9958C7.54394 23.9985 6.85991 24.0092 6.65842 24.0579ZM15.7315 38.9157C12.9413 40.486 10.6507 41.78 10.6412 41.7913C10.6317 41.8026 10.6111 44.3956 10.5953 47.5537L10.5667 53.2954L15.6768 56.1804L20.7868 59.0654L21.4354 58.7024C21.7922 58.5028 24.0887 57.2137 26.5388 55.8378L30.9937 53.3361L30.9948 47.5729L30.9959 41.8096L26.1686 39.0834C23.5137 37.5841 21.2206 36.2905 21.0729 36.209L20.8045 36.0606L15.7315 38.9157ZM16.1167 41.9511C15.5318 42.1532 15.4468 42.6617 15.9535 42.9276L16.1702 43.0413L17.4005 43.0649C18.2195 43.0807 18.6704 43.1052 18.749 43.1382C18.9417 43.2191 19.099 43.3477 19.1749 43.4863C19.241 43.6071 19.2475 43.9715 19.2665 48.6198C19.2836 52.7878 19.2966 53.6418 19.3442 53.7345C19.3757 53.7957 19.4756 53.8972 19.5663 53.96L19.7312 54.0743H20.883C21.9532 54.0743 22.0464 54.0685 22.1977 53.9923C22.2881 53.9468 22.3977 53.8464 22.4438 53.7667C22.5258 53.6252 22.5273 53.5527 22.5475 48.5769C22.5704 42.9374 22.5419 43.4209 22.8632 43.2211C23.0152 43.1266 23.0487 43.1236 24.2084 43.1018C25.2314 43.0826 25.4221 43.0691 25.5715 43.0053C25.9983 42.8232 26.1332 42.4148 25.8603 42.1313C25.6002 41.8612 25.8334 41.8732 20.8484 41.8747C16.5807 41.876 16.3223 41.8801 16.1167 41.9511Z" fill="#146C6C"/>
</svg>
