                    <svg width="25" height="26" viewBox="0 0 25 26" fill="none" xmlns="http://www.w3.org/2000/svg">
                        <g clipPath="url(#clip0_504_4904)">
                            <path d="M11.2503 0.486468C11.3115 0.485845 11.3726 0.485221 11.4356 0.48458C11.5017 0.48443 11.5678 0.484321 11.6339 0.48425C11.7025 0.483936 11.7711 0.483607 11.8397 0.483265C11.9832 0.482682 12.1268 0.482499 12.2703 0.482557C12.4532 0.482567 12.636 0.481235 12.8189 0.479552C12.9606 0.47846 13.1022 0.478269 13.2438 0.47832C13.3112 0.478206 13.3786 0.477779 13.4459 0.477018C13.8418 0.472968 14.1568 0.492008 14.5016 0.695966C14.5335 0.714438 14.5653 0.73291 14.5982 0.751942C14.9375 0.958483 15.1243 1.3005 15.2341 1.67253C15.2605 1.81327 15.279 1.95468 15.297 2.09672C15.3023 2.1368 15.3076 2.17687 15.313 2.21816C15.324 2.30252 15.335 2.38689 15.3457 2.47128C15.3622 2.5999 15.3791 2.72845 15.3962 2.85699C15.4069 2.93926 15.4176 3.02153 15.4282 3.1038C15.4333 3.14196 15.4383 3.18011 15.4435 3.21942C15.469 3.42147 15.4835 3.61678 15.4782 3.82097C15.5079 3.82757 15.5376 3.83418 15.5682 3.84099C15.9069 3.92417 16.2119 4.04711 16.5245 4.1994C16.662 4.26372 16.7726 4.30949 16.9257 4.30791C17.0773 4.24531 17.1773 4.15873 17.3001 4.04985C17.5382 3.84342 17.7831 3.64939 18.0356 3.46086C18.0681 3.43648 18.1006 3.4121 18.134 3.38698C18.6515 3.00158 19.0472 2.81249 19.7051 2.85356C20.1802 2.966 20.5018 3.24165 20.838 3.58197C20.9028 3.64637 20.9028 3.64637 20.9688 3.71207C21.0825 3.8255 21.1955 3.93949 21.3083 4.0537C21.3772 4.12304 21.4465 4.19189 21.516 4.26057C21.6508 4.39383 21.7847 4.52792 21.9184 4.6623C21.9594 4.7028 22.0004 4.74331 22.0426 4.78504C22.4065 5.15626 22.6245 5.52026 22.6712 6.04265C22.6574 6.60695 22.4002 7.0196 22.0491 7.43885C21.8971 7.62312 21.7523 7.81307 21.6061 8.00187C21.5613 8.0592 21.5613 8.0592 21.5156 8.11768C21.4876 8.15361 21.4595 8.18954 21.4306 8.22656C21.3931 8.27458 21.3931 8.27458 21.3548 8.32357C21.2236 8.4805 21.2236 8.4805 21.2039 8.67421C21.2387 8.79719 21.2794 8.9123 21.3284 9.03032C21.3543 9.09357 21.3543 9.09357 21.3807 9.15811C21.3987 9.20154 21.4167 9.24497 21.4352 9.28971C21.471 9.3761 21.5066 9.46256 21.542 9.54911C21.5578 9.58719 21.5736 9.62527 21.5899 9.66451C21.6323 9.78291 21.6577 9.89841 21.6794 10.0221C21.7163 10.0246 21.7532 10.0271 21.7912 10.0297C22.1903 10.0584 22.5875 10.0979 22.9846 10.1474C23.0506 10.1555 23.1167 10.1633 23.1828 10.1708C23.5714 10.215 23.9207 10.2708 24.2673 10.4616C24.3176 10.4878 24.368 10.514 24.4198 10.5409C24.7067 10.7779 24.8979 11.0816 24.9997 11.4382C25.0127 11.5891 25.0127 11.5891 25.0139 11.7513C25.0148 11.843 25.0148 11.843 25.0157 11.9365C25.0159 12.0027 25.016 12.0688 25.0161 12.1349C25.0164 12.2035 25.0167 12.2721 25.0171 12.3407C25.0176 12.4842 25.0178 12.6277 25.0178 12.7713C25.0178 12.9542 25.0191 13.137 25.0208 13.3199C25.0219 13.4615 25.0221 13.6032 25.022 13.7448C25.0221 13.8122 25.0225 13.8795 25.0233 13.9469C25.0291 14.5168 24.9387 14.8911 24.5463 15.3093C24.2012 15.6551 23.8127 15.7449 23.3388 15.8027C23.2988 15.8079 23.2588 15.8132 23.2176 15.8185C23.1339 15.8294 23.0502 15.84 22.9665 15.8504C22.8386 15.8663 22.7108 15.8829 22.5831 15.8995C22.5013 15.91 22.4195 15.9205 22.3378 15.9309C22.2998 15.9358 22.2619 15.9407 22.2228 15.9457C22.0406 15.9682 21.863 15.9849 21.6794 15.9792C21.6728 16.0089 21.6661 16.0386 21.6593 16.0692C21.5762 16.4079 21.4532 16.7129 21.3009 17.0254C21.2366 17.163 21.1908 17.2736 21.1924 17.4267C21.255 17.5783 21.3416 17.6783 21.4505 17.8011C21.6569 18.0391 21.8509 18.284 22.0395 18.5365C22.0638 18.569 22.0882 18.6015 22.1133 18.635C22.4987 19.1525 22.6878 19.5482 22.6468 20.206C22.5343 20.6812 22.2587 21.0028 21.9184 21.339C21.8754 21.3822 21.8325 21.4253 21.7883 21.4698C21.6748 21.5834 21.5608 21.6965 21.4466 21.8093C21.3773 21.8782 21.3084 21.9475 21.2398 22.017C21.1065 22.1518 20.9724 22.2857 20.838 22.4193C20.7773 22.4808 20.7773 22.4808 20.7153 22.5436C20.3293 22.922 19.9492 23.1464 19.4018 23.1657C18.8503 23.1361 18.4736 22.8951 18.0615 22.55C17.8772 22.3981 17.6873 22.2533 17.4985 22.1071C17.4602 22.0772 17.422 22.0474 17.3826 22.0166C17.3467 21.9886 17.3108 21.9605 17.2738 21.9316C17.2257 21.8941 17.2257 21.8941 17.1768 21.8558C17.0198 21.7246 17.0198 21.7246 16.8261 21.7048C16.7031 21.7397 16.588 21.7804 16.47 21.8294C16.4278 21.8466 16.3857 21.8639 16.3422 21.8816C16.2988 21.8996 16.2554 21.9177 16.2106 21.9362C16.1242 21.972 16.0378 22.0076 15.9512 22.043C15.9131 22.0588 15.8751 22.0746 15.8358 22.0909C15.7174 22.1333 15.6019 22.1587 15.4782 22.1803C15.4757 22.2172 15.4732 22.2541 15.4706 22.2922C15.442 22.6913 15.4024 23.0885 15.353 23.4856C15.3449 23.5516 15.3371 23.6177 15.3295 23.6838C15.2854 24.0724 15.2295 24.4217 15.0387 24.7682C15.0126 24.8186 14.9864 24.8689 14.9594 24.9208C14.7224 25.2077 14.4187 25.3989 14.0622 25.5007C13.9113 25.5137 13.9113 25.5137 13.749 25.5148C13.6573 25.5158 13.6573 25.5158 13.5638 25.5167C13.4977 25.5169 13.4315 25.517 13.3654 25.5171C13.2968 25.5174 13.2282 25.5177 13.1596 25.518C13.0161 25.5186 12.8726 25.5188 12.7291 25.5187C12.5462 25.5187 12.3633 25.5201 12.1804 25.5218C12.0388 25.5228 11.8972 25.523 11.7555 25.523C11.6882 25.5231 11.6208 25.5235 11.5534 25.5243C11.0048 25.5299 10.5712 25.435 10.1559 25.0612C9.85536 24.728 9.75059 24.3303 9.69759 23.895C9.68977 23.8351 9.68977 23.8351 9.6818 23.774C9.67096 23.6903 9.66034 23.6065 9.64994 23.5227C9.63407 23.3949 9.61749 23.2672 9.60079 23.1395C9.59029 23.0577 9.57983 22.9759 9.56942 22.8941C9.56454 22.8562 9.55966 22.8184 9.55463 22.7794C9.52987 22.5783 9.51606 22.3835 9.52116 22.1803C9.49145 22.1737 9.46174 22.1671 9.43113 22.1603C9.09244 22.0771 8.78742 21.9542 8.47488 21.8019C8.33734 21.7376 8.22678 21.6918 8.07367 21.6934C7.92207 21.756 7.82204 21.8426 7.69926 21.9515C7.46118 22.1579 7.21628 22.3519 6.96379 22.5404C6.93129 22.5648 6.89879 22.5892 6.86531 22.6143C6.34787 22.9997 5.95216 23.1888 5.29429 23.1477C4.81265 23.0338 4.48965 22.7517 4.14892 22.4069C4.10456 22.3628 4.06019 22.3187 4.01448 22.2732C3.92127 22.1803 3.82851 22.0871 3.73605 21.9935C3.61836 21.8744 3.4996 21.7564 3.38048 21.6388C3.26575 21.5251 3.15196 21.4106 3.03808 21.2961C2.97461 21.2334 2.97461 21.2334 2.90985 21.1694C2.61793 20.8717 2.38611 20.5563 2.34343 20.1296C2.34034 20.0993 2.33726 20.069 2.33408 20.0378C2.3009 19.4395 2.58295 19.0068 2.9503 18.5632C3.10159 18.3782 3.2468 18.1883 3.39323 17.9994C3.42309 17.9612 3.45295 17.923 3.48371 17.8836C3.51176 17.8477 3.53981 17.8118 3.56871 17.7747C3.59373 17.7427 3.61875 17.7107 3.64452 17.6777C3.77573 17.5208 3.77573 17.5208 3.79549 17.3271C3.76065 17.2041 3.7199 17.089 3.67094 16.971C3.6537 16.9288 3.63645 16.8866 3.61868 16.8432C3.60068 16.7998 3.58268 16.7563 3.56413 16.7116C3.52832 16.6252 3.49271 16.5387 3.45732 16.4522C3.44152 16.4141 3.42572 16.376 3.40944 16.3368C3.36706 16.2184 3.34167 16.1029 3.31999 15.9792C3.26464 15.9754 3.26464 15.9754 3.20817 15.9716C2.80903 15.9429 2.41183 15.9034 2.01477 15.8539C1.94873 15.8458 1.88265 15.838 1.81655 15.8305C1.42793 15.7863 1.07861 15.7305 0.732099 15.5397C0.681745 15.5135 0.631391 15.4873 0.579511 15.4604C0.292623 15.2234 0.101411 14.9197 -0.000322919 14.5632C-0.0133808 14.4122 -0.0133808 14.4122 -0.0145088 14.25C-0.0151319 14.1889 -0.0157549 14.1278 -0.0163968 14.0648C-0.0165461 13.9986 -0.0166549 13.9325 -0.0167261 13.8664C-0.0170404 13.7978 -0.017369 13.7292 -0.0177111 13.6606C-0.0182943 13.5171 -0.0184769 13.3736 -0.0184189 13.23C-0.018409 13.0472 -0.019741 12.8643 -0.0214237 12.6814C-0.0225157 12.5398 -0.0227075 12.3981 -0.022656 12.2565C-0.0227704 12.1891 -0.0231978 12.1218 -0.0239584 12.0544C-0.0280089 11.6585 -0.0089682 11.3435 0.19499 10.9987C0.213462 10.9668 0.231934 10.935 0.250966 10.9022C0.457352 10.5631 0.799554 10.3755 1.17155 10.2663C1.31643 10.2397 1.46198 10.2213 1.60814 10.2033C1.67006 10.1954 1.67006 10.1954 1.73322 10.1873C1.82008 10.1763 1.90695 10.1654 1.99385 10.1546C2.12654 10.1381 2.25916 10.1212 2.39178 10.1042C2.47643 10.0934 2.56108 10.0828 2.64574 10.0721C2.70495 10.0646 2.70495 10.0646 2.76536 10.0569C2.9515 10.034 3.13199 10.016 3.31999 10.0221C3.3266 9.99243 3.33321 9.96272 3.34002 9.93211C3.4232 9.59342 3.54613 9.28839 3.69842 8.97586C3.76275 8.83831 3.80852 8.72775 3.80694 8.57465C3.74433 8.42304 3.65776 8.32302 3.54887 8.20024C3.34245 7.96216 3.14841 7.71726 2.95988 7.46476C2.9355 7.43227 2.91112 7.39977 2.88601 7.36629C2.54116 6.9033 2.26966 6.47112 2.34343 5.87175C2.44895 5.3081 2.80701 4.95334 3.20021 4.55739C3.23982 4.51734 3.27943 4.47729 3.32024 4.43602C3.40366 4.3519 3.48722 4.26791 3.5709 4.18404C3.69795 4.05641 3.82407 3.92789 3.95018 3.79932C4.03175 3.71728 4.11339 3.63529 4.19508 3.55336C4.23223 3.51526 4.26937 3.47716 4.30765 3.43791C4.6676 3.08091 5.03345 2.87452 5.54167 2.82914C6.10598 2.84291 6.51862 3.10017 6.93787 3.45127C7.12214 3.6032 7.3121 3.74798 7.5009 3.89421C7.53912 3.92407 7.57733 3.95392 7.61671 3.98469C7.65264 4.01274 7.68857 4.04079 7.72558 4.06968C7.7576 4.0947 7.78961 4.11972 7.8226 4.1455C7.97952 4.2767 7.97952 4.2767 8.17324 4.29647C8.29621 4.26162 8.41132 4.22088 8.52934 4.17192C8.57151 4.15467 8.61368 4.13743 8.65713 4.11966C8.70056 4.10166 8.74399 4.08365 8.78874 4.06511C8.87512 4.0293 8.96159 3.99369 9.04814 3.95829C9.08622 3.9425 9.1243 3.9267 9.16353 3.91042C9.28194 3.86803 9.39743 3.84265 9.52116 3.82097C9.52366 3.78407 9.52616 3.74717 9.52873 3.70915C9.5574 3.31 9.59691 2.91281 9.64639 2.51574C9.6545 2.44971 9.6623 2.38363 9.6698 2.31752C9.73344 1.75776 9.84489 1.1805 10.3078 0.8085C10.6112 0.597747 10.8762 0.489069 11.2503 0.486468ZM8.56215 9.60407C7.59528 10.7151 7.23015 12.1408 7.3239 13.5866C7.47568 14.9373 8.17705 16.1063 9.17936 17.0046C10.3324 17.9226 11.7533 18.3261 13.218 18.1616C14.5654 17.9587 15.773 17.2386 16.6213 16.1731C17.4589 15.0108 17.85 13.6325 17.6419 12.2028C17.4052 10.8243 16.6596 9.59064 15.5179 8.76786C13.2527 7.27112 10.4029 7.58573 8.56215 9.60407Z" fill="#565656" />
                        </g>
                        <defs>
                            <clipPath id="clip0_504_4904">
                                <rect width="25" height="25" fill="white" transform="translate(0 0.5)" />
                            </clipPath>
                        </defs>
                    </svg>