<svg width="20" height="20" viewBox="0 0 20 20" fill="none" xmlns="http://www.w3.org/2000/svg">
<path d="M10.1443 13.1571V11.3536C10.1443 10.063 11.1443 9.01979 12.3816 9.01979H18.8224V5.79306C18.8224 5.13887 18.3224 4.59961 17.7038 4.59961H1.11867C0.500011 4.59961 0 5.13003 0 5.79306V18.8061C0 19.4603 0.500011 19.9995 1.11867 19.9995H17.7122C18.3309 19.9995 18.8309 19.4691 18.8309 18.8061V15.4909H12.3901C11.1443 15.4909 10.1443 14.4478 10.1443 13.1571Z" fill="#565656"/>
<path d="M18.9578 9.80664H12.0678C11.4915 9.80664 11.0254 10.3813 11.0254 11.0973V13.5019C11.0254 14.218 11.4915 14.7926 12.0678 14.7926H18.9578C19.534 14.7926 20.0002 14.218 20.0002 13.5019V11.0973C20.0002 10.3901 19.534 9.80664 18.9578 9.80664ZM13.7288 13.1571C13.2797 13.1571 12.9068 12.777 12.9068 12.2996C12.9068 11.8222 13.2712 11.4421 13.7288 11.4421C14.178 11.4421 14.5509 11.8222 14.5509 12.2996C14.5509 12.777 14.1865 13.1571 13.7288 13.1571Z" fill="#565656"/>
<path d="M16.5602 3.87497L16.1026 2.1953C16.1026 2.1953 15.6873 1.36431 14.5093 1.76212C13.3398 2.15994 7.22949 3.87497 7.22949 3.87497H16.5602Z" fill="#565656"/>
<path d="M12.6612 1.54129L12.1188 0.44509C12.1188 0.44509 11.4917 -0.2975 10.695 0.135678C9.89841 0.568855 3.52539 3.84863 3.52539 3.84863L4.74576 3.86631L12.6612 1.54129Z" fill="#565656"/>
</svg>
