                    <svg width="25" height="26" viewBox="0 0 25 26" fill="none" xmlns="http://www.w3.org/2000/svg">
                        <g clipPath="url(#clip0_504_4835)">
                            <path d="M22.6982 4.42188H2.3018C1.03264 4.42188 0 5.45452 0 6.72367V19.2782C0 20.5474 1.03264 21.58 2.3018 21.58H22.6982C23.9674 21.58 25 20.5474 25 19.2782V6.72367C25 5.45442 23.9674 4.42188 22.6982 4.42188ZM23.5614 19.2782C23.5614 19.7541 23.1742 20.1414 22.6982 20.1414H2.3018C1.8258 20.1414 1.43862 19.7541 1.43862 19.2782V6.72367C1.43862 6.24778 1.8258 5.8605 2.3018 5.8605H22.6982C23.1742 5.8605 23.5614 6.24778 23.5614 6.72367V19.2782Z" fill="#E5E7EB" />
                            <path d="M20.7199 8.5293H14.1087C13.7908 8.5293 13.5332 8.787 13.5332 9.10475C13.5332 9.42249 13.7908 9.68019 14.1087 9.68019H20.7199C21.0377 9.68019 21.2953 9.42249 21.2953 9.10475C21.2953 8.787 21.0377 8.5293 20.7199 8.5293Z" fill="#E5E7EB" />
                            <path d="M20.7199 16.3223H14.1087C13.7908 16.3223 13.5332 16.5799 13.5332 16.8977C13.5332 17.2155 13.7908 17.4732 14.1087 17.4732H20.7199C21.0377 17.4732 21.2953 17.2155 21.2953 16.8977C21.2953 16.5799 21.0377 16.3223 20.7199 16.3223Z" fill="#E5E7EB" />
                            <path d="M20.7201 11.8574H16.719C16.4013 11.8574 16.1436 12.1151 16.1436 12.4329C16.1436 12.7506 16.4013 13.0083 16.719 13.0083H20.7201C21.0379 13.0083 21.2955 12.7506 21.2955 12.4329C21.2955 12.1151 21.0379 11.8574 20.7201 11.8574Z" fill="#E5E7EB" />
                            <path d="M20.7201 14.0898H16.719C16.4013 14.0898 16.1436 14.3475 16.1436 14.6653C16.1436 14.9831 16.4013 15.2407 16.719 15.2407H20.7201C21.0379 15.2407 21.2955 14.9831 21.2955 14.6653C21.2955 14.3475 21.0379 14.0898 20.7201 14.0898Z" fill="#E5E7EB" />
                            <path d="M8.16746 13.269C9.79829 13.269 11.1251 11.9417 11.1251 10.3103C11.1251 8.67884 9.79829 7.35156 8.16746 7.35156C6.53616 7.35156 5.20898 8.67884 5.20898 10.3103C5.20898 11.9417 6.53616 13.269 8.16746 13.269ZM8.16746 8.79028C9.00503 8.79028 9.68646 9.47219 9.68646 10.3104C9.68646 11.1486 9.00513 11.8305 8.16746 11.8305C7.32942 11.8305 6.64761 11.1486 6.64761 10.3104C6.64761 9.47219 7.32942 8.79028 8.16746 8.79028Z" fill="#E5E7EB" />
                            <path d="M9.31245 13.8008H7.04115C5.44984 13.8008 4.15527 15.0953 4.15527 16.6865V17.9295C4.15527 18.3268 4.47724 18.6488 4.87458 18.6488C5.27193 18.6488 5.5939 18.3268 5.5939 17.9295V16.6865C5.5939 15.8886 6.24319 15.2394 7.04115 15.2394H9.31245C10.1104 15.2394 10.7597 15.8885 10.7597 16.6865V17.9295C10.7597 18.3268 11.0817 18.6488 11.479 18.6488C11.8764 18.6488 12.1983 18.3268 12.1983 17.9295V16.6865C12.1983 15.0953 10.9037 13.8008 9.31245 13.8008Z" fill="#E5E7EB" />
                        </g>
                        <defs>
                            <clipPath id="clip0_504_4835">
                                <rect width="25" height="25" fill="white" transform="translate(0 0.5)" />
                            </clipPath>
                        </defs>
                    </svg>