                    <svg width="25" height="26" viewBox="0 0 25 26" fill="none" xmlns="http://www.w3.org/2000/svg">
                        <g clipPath="url(#clip0_504_4893)">
                            <path d="M7 5C7.66304 5 8.29893 5.26339 8.76777 5.73223C9.23661 6.20107 9.5 6.83696 9.5 7.5C9.5 8.16304 9.23661 8.79893 8.76777 9.26777C8.29893 9.73661 7.66304 10 7 10C6.33696 10 5.70107 9.73661 5.23223 9.26777C4.76339 8.79893 4.5 8.16304 4.5 7.5C4.5 6.83696 4.76339 6.20107 5.23223 5.73223C5.70107 5.26339 6.33696 5 7 5ZM18.5 5C19.163 5 19.7989 5.26339 20.2678 5.73223C20.7366 6.20107 21 6.83696 21 7.5C21 8.16304 20.7366 8.79893 20.2678 9.26777C19.7989 9.73661 19.163 10 18.5 10C17.837 10 17.2011 9.73661 16.7322 9.26777C16.2634 8.79893 16 8.16304 16 7.5C16 6.83696 16.2634 6.20107 16.7322 5.73223C17.2011 5.26339 17.837 5 18.5 5ZM2.5 14.3344C2.5 12.4938 3.99375 11 5.83437 11H7.16875C7.66562 11 8.1375 11.1094 8.5625 11.3031C8.52187 11.5281 8.50313 11.7625 8.50313 12C8.50313 13.1938 9.02812 14.2656 9.85625 15C9.85 15 9.84375 15 9.83437 15H3.16562C2.8 15 2.5 14.7 2.5 14.3344ZM15.1656 15C15.1594 15 15.1531 15 15.1438 15C15.975 14.2656 16.4969 13.1938 16.4969 12C16.4969 11.7625 16.475 11.5312 16.4375 11.3031C16.8625 11.1062 17.3344 11 17.8313 11H19.1656C21.0063 11 22.5 12.4938 22.5 14.3344C22.5 14.7031 22.2 15 21.8344 15H15.1656ZM9.5 12C9.5 11.2044 9.81607 10.4413 10.3787 9.87868C10.9413 9.31607 11.7044 9 12.5 9C13.2956 9 14.0587 9.31607 14.6213 9.87868C15.1839 10.4413 15.5 11.2044 15.5 12C15.5 12.7956 15.1839 13.5587 14.6213 14.1213C14.0587 14.6839 13.2956 15 12.5 15C11.7044 15 10.9413 14.6839 10.3787 14.1213C9.81607 13.5587 9.5 12.7956 9.5 12ZM6.5 20.1656C6.5 17.8656 8.36562 16 10.6656 16H14.3344C16.6344 16 18.5 17.8656 18.5 20.1656C18.5 20.625 18.1281 21 17.6656 21H7.33437C6.875 21 6.5 20.6281 6.5 20.1656Z" fill="white" />
                        </g>
                        <defs>
                            <clipPath id="clip0_504_4893">
                                <path d="M2.5 5H22.5V21H2.5V5Z" fill="white" />
                            </clipPath>
                        </defs>
                    </svg>