                            <svg width="25" height="26" viewBox="0 0 25 26" fill="none" xmlns="http://www.w3.org/2000/svg">
                                <g clipPath="url(#clip0_504_4856)">
                                    <path d="M20.3273 2.45695H17.1717V2.43249C17.1717 2.01433 16.8316 1.67417 16.4134 1.67417H14.432V1.64971C14.432 1.01575 13.9163 0.5 13.2823 0.5H11.7168C11.0828 0.5 10.567 1.01575 10.567 1.64971V1.67417H8.58564C8.16749 1.67417 7.82732 2.01433 7.82732 2.43249V2.45695H4.67174C3.60619 2.45695 2.73926 3.32387 2.73926 4.38943V23.5675C2.73926 24.6331 3.60619 25.5 4.67174 25.5H20.3273C21.3929 25.5 22.2598 24.6331 22.2598 23.5675V4.38943C22.2598 3.32387 21.3929 2.45695 20.3273 2.45695ZM16.8047 4.75636H19.9359C19.9494 4.75636 19.9604 4.76732 19.9604 4.78082V23.1761C19.9604 23.1896 19.9494 23.2006 19.9359 23.2006H5.06313C5.04963 23.2006 5.03867 23.1896 5.03867 23.1761V4.78082C5.03867 4.76732 5.04963 4.75636 5.06313 4.75636H8.1943C8.19865 4.75636 8.20286 4.75587 8.20716 4.75572C8.55956 5.23068 9.12429 5.53914 9.75981 5.53914H15.2393C15.8748 5.53914 16.4395 5.23068 16.7919 4.75572C16.7962 4.75587 16.8004 4.75636 16.8047 4.75636ZM11.3009 1.64971C11.3009 1.4204 11.4874 1.23386 11.7168 1.23386H13.2823C13.5116 1.23386 13.6982 1.4204 13.6982 1.64971V1.67417H11.3009V1.64971ZM8.56118 2.43249C8.56118 2.41898 8.57213 2.40802 8.58564 2.40802H16.4134C16.4269 2.40802 16.4379 2.41898 16.4379 2.43249V2.82104C16.4379 2.82202 16.4377 2.82295 16.4377 2.82387C16.4377 2.8248 16.4379 2.82578 16.4379 2.82671V3.60665C16.4379 4.26756 15.9002 4.80528 15.2393 4.80528H9.75981C9.0989 4.80528 8.56118 4.26756 8.56118 3.60665V2.43249ZM21.526 23.5675C21.526 24.2284 20.9882 24.7661 20.3273 24.7661H4.67174C4.01083 24.7661 3.47311 24.2284 3.47311 23.5675V4.38943C3.47311 3.72852 4.01083 3.1908 4.67174 3.1908H7.82732V3.60665C7.82732 3.74941 7.84337 3.88845 7.87287 4.0225H5.06313C4.64498 4.0225 4.30482 4.36267 4.30482 4.78082V23.1761C4.30482 23.5943 4.64498 23.9344 5.06313 23.9344H19.9359C20.3541 23.9344 20.6942 23.5943 20.6942 23.1761V4.78082C20.6942 4.36267 20.3541 4.0225 19.9359 4.0225H17.1262C17.1557 3.88845 17.1717 3.74941 17.1717 3.60665V3.1908H20.3273C20.9882 3.1908 21.526 3.72852 21.526 4.38943V23.5675Z" fill="#E5E7EB" />
                                    <path d="M7.06917 11.0193H10.1024C10.3317 11.0193 10.5183 10.8327 10.5183 10.6034V7.57015C10.5183 7.34084 10.3317 7.1543 10.1024 7.1543H7.06917C6.83987 7.1543 6.65332 7.34084 6.65332 7.57015V10.6034C6.65332 10.8327 6.83987 11.0193 7.06917 11.0193ZM7.38718 7.88815H9.78444V10.2854H7.38718V7.88815Z" fill="#E5E7EB" />
                                    <path d="M10.1024 17.3301H7.06917C6.83987 17.3301 6.65332 17.5166 6.65332 17.7459V20.7792C6.65332 21.0085 6.83987 21.195 7.06917 21.195H10.1024C10.3317 21.195 10.5183 21.0085 10.5183 20.7792V17.7459C10.5183 17.5166 10.3317 17.3301 10.1024 17.3301ZM9.78444 20.4612H7.38718V18.0639H9.78444V20.4612Z" fill="#E5E7EB" />
                                    <path d="M10.6747 12.3497L10.4109 12.6135C10.2785 12.3916 10.0366 12.2422 9.75997 12.2422H7.41164C6.99349 12.2422 6.65332 12.5824 6.65332 13.0005V15.3488C6.65332 15.767 6.99349 16.1072 7.41164 16.1072H9.75997C10.1781 16.1072 10.5183 15.767 10.5183 15.3488V14.9575C10.5183 14.7548 10.354 14.5905 10.1514 14.5905C9.94872 14.5905 9.78444 14.7548 9.78444 14.9575V15.3488C9.78444 15.3623 9.77348 15.3733 9.75997 15.3733H7.41164C7.39813 15.3733 7.38718 15.3623 7.38718 15.3488V13.0005C7.38718 12.987 7.39813 12.976 7.41164 12.976H9.75997C9.77348 12.976 9.78444 12.987 9.78444 13.0005V13.2399L8.97719 14.0472L8.45386 13.5238C8.31056 13.3805 8.07822 13.3805 7.93497 13.5238C7.79168 13.6671 7.79168 13.8994 7.93497 14.0427L8.71775 14.8255C8.78938 14.8972 8.88331 14.933 8.97719 14.933C9.07108 14.933 9.16501 14.8972 9.23664 14.8255L10.4108 13.6514L10.4109 13.6513L11.1936 12.8686C11.3369 12.7253 11.3369 12.493 11.1936 12.3497C11.0503 12.2064 10.8179 12.2064 10.6747 12.3497Z" fill="#E5E7EB" />
                                    <path d="M11.7165 8.27878H12.8907C13.0933 8.27878 13.2576 8.11449 13.2576 7.91185C13.2576 7.70921 13.0933 7.54492 12.8907 7.54492H11.7165C11.5139 7.54492 11.3496 7.70921 11.3496 7.91185C11.3496 8.11449 11.5139 8.27878 11.7165 8.27878Z" fill="#E5E7EB" />
                                    <path d="M11.3496 9.47826C11.3496 9.6809 11.5139 9.84518 11.7165 9.84518H17.5874C17.79 9.84518 17.9543 9.6809 17.9543 9.47826C17.9543 9.27561 17.79 9.11133 17.5874 9.11133H11.7165C11.5139 9.11133 11.3496 9.27561 11.3496 9.47826Z" fill="#E5E7EB" />
                                    <path d="M11.7165 13.7592H15.6304C15.8331 13.7592 15.9974 13.595 15.9974 13.3923C15.9974 13.1897 15.8331 13.0254 15.6304 13.0254H11.7165C11.5139 13.0254 11.3496 13.1897 11.3496 13.3923C11.3496 13.595 11.5139 13.7592 11.7165 13.7592Z" fill="#E5E7EB" />
                                    <path d="M17.5874 14.5898H11.7165C11.5139 14.5898 11.3496 14.7541 11.3496 14.9568C11.3496 15.1594 11.5139 15.3237 11.7165 15.3237H17.5874C17.79 15.3237 17.9543 15.1594 17.9543 14.9568C17.9543 14.7541 17.79 14.5898 17.5874 14.5898Z" fill="#E5E7EB" />
                                    <path d="M11.7165 18.8471H13.2821C13.4847 18.8471 13.649 18.6829 13.649 18.4802C13.649 18.2776 13.4847 18.1133 13.2821 18.1133H11.7165C11.5139 18.1133 11.3496 18.2776 11.3496 18.4802C11.3496 18.6829 11.5139 18.8471 11.7165 18.8471Z" fill="#E5E7EB" />
                                    <path d="M17.5874 19.6777H11.7165C11.5139 19.6777 11.3496 19.842 11.3496 20.0447C11.3496 20.2473 11.5139 20.4116 11.7165 20.4116H17.5874C17.79 20.4116 17.9543 20.2473 17.9543 20.0447C17.9543 19.842 17.79 19.6777 17.5874 19.6777Z" fill="#E5E7EB" />
                                </g>
                                <defs>
                                    <clipPath id="clip0_504_4856">
                                        <rect width="25" height="25" fill="white" transform="translate(0 0.5)" />
                                    </clipPath>
                                </defs>
                            </svg>