<svg width="25" height="26" viewBox="0 0 25 26" fill="none" xmlns="http://www.w3.org/2000/svg">
<g clip-path="url(#clip0_703_3307)">
<path d="M6.37068 19.3917C6.15234 19.6101 5.97583 20.0367 5.97583 20.345V24.3605H8.30696V18.0139C8.30696 17.7056 8.13046 17.6319 7.91211 17.8502L6.37068 19.3917Z" fill="#565656"/>
<path d="M16.6098 15.5869C16.392 15.8053 16.215 16.232 16.215 16.5408V24.3607H18.5461V14.2069C18.5461 13.8986 18.3696 13.8254 18.1512 14.0438L16.6098 15.5869Z" fill="#565656"/>
<path d="M20.0222 12.1699C19.8039 12.3877 19.6268 12.8144 19.6268 13.1227V24.3605H21.7943V10.9592C21.7943 10.6509 21.6173 10.5772 21.3989 10.7955L20.0222 12.1699Z" fill="#565656"/>
<path d="M13.2657 18.9301C13.2657 18.9301 13.1618 19.0345 13.0334 19.163C12.9055 19.2915 12.8016 19.6461 12.8016 19.9544V24.3597H15.1328V17.6233C15.1328 17.315 14.9557 17.2412 14.7374 17.4596L13.2657 18.9301Z" fill="#565656"/>
<path d="M9.78408 17.7465C9.56573 17.5287 9.38867 17.6018 9.38867 17.9101V24.3606H11.7198V20.2362C11.7198 19.9279 11.5522 19.5107 11.3451 19.3047L10.9704 18.9316L9.78408 17.7465Z" fill="#565656"/>
<path d="M3.43691 22.3262L2.6841 23.0802C2.4663 23.2985 2.28979 23.6733 2.28979 23.9179V24.3602H4.89177V21.4276C4.89177 21.1193 4.71526 21.0461 4.49691 21.2645L3.43691 22.3262Z" fill="#565656"/>
<path d="M24.6051 10.8562C24.8229 11.0745 25 11.0008 25 10.6925V2.71237C25 2.14101 24.4527 1.64062 23.8847 1.64062H15.9508C15.6425 1.64062 15.5688 1.81768 15.7872 2.03603L18.6092 4.86027L17.4582 6.00629L12.1196 11.3498L9.29594 8.52678C9.07759 8.30843 8.72458 8.30898 8.50623 8.52678L0.653997 16.3846C-0.218366 17.2576 -0.217816 18.6722 0.654547 19.5445L0.709306 19.5998C1.58167 20.4722 2.99633 20.4722 3.86808 19.5993L8.9006 14.564L11.7243 17.3849C11.9426 17.6027 12.2962 17.6027 12.5145 17.3849L21.8228 8.07496L24.6051 10.8562Z" fill="#565656"/>
</g>
<defs>
<clipPath id="clip0_703_3307">
<rect width="25" height="25" fill="white" transform="translate(0 0.5)"/>
</clipPath>
</defs>
</svg>
